<?xml version="1.0" standalone="no"?>
<!DOCTYPE svg PUBLIC "-//W3C//DTD SVG 20010904//EN"
 "http://www.w3.org/TR/2001/REC-SVG-20010904/DTD/svg10.dtd">
<svg version="1.0" xmlns="http://www.w3.org/2000/svg"
 width="216.000000pt" height="216.000000pt" viewBox="0 0 216.000000 216.000000"
 preserveAspectRatio="xMidYMid meet">
<metadata>
Created by potrace 1.11, written by Peter Selinger 2001-2013
</metadata>
<g transform="translate(0.000000,216.000000) scale(0.100000,-0.100000)"
fill="#000000" stroke="none">
<path d="M1012 1707 c-95 -188 -296 -587 -448 -886 -151 -299 -273 -545 -271
-547 4 -4 153 47 226 77 13 5 26 7 29 4 3 -3 0 -5 -7 -5 -7 0 -9 -5 -5 -12 4
-7 3 -8 -4 -4 -8 4 -10 2 -6 -7 7 -18 45 -16 62 3 11 12 11 11 1 -10 -9 -21
-9 -23 2 -12 17 16 30 15 23 -2 -3 -8 -1 -17 4 -20 5 -3 12 3 15 14 3 12 -1
24 -11 29 -12 7 -13 12 -5 23 10 11 8 14 -10 15 -18 2 -19 0 -7 -8 12 -8 10
-9 -8 -4 -15 4 -22 2 -20 -5 2 -7 -3 -15 -10 -17 -18 -7 -3 26 18 37 10 5 27
7 39 5 13 -2 24 2 27 10 3 7 12 11 20 8 8 -3 14 1 14 8 0 9 5 7 11 -5 9 -15
13 -16 20 -5 5 8 3 17 -4 22 -8 6 -6 7 6 3 9 -3 17 0 17 6 0 6 3 8 6 5 4 -4 1
-13 -6 -22 -10 -12 -10 -15 4 -15 9 0 16 8 16 19 0 21 26 36 35 21 4 -6 1 -10
-5 -10 -7 0 -9 -8 -5 -20 5 -15 3 -18 -9 -14 -14 5 -14 3 0 -24 17 -36 56 -49
86 -28 11 8 26 12 34 9 8 -3 17 2 20 11 4 11 13 14 25 11 13 -4 19 -1 19 9 0
9 6 16 13 16 17 0 39 37 27 45 -6 3 -14 4 -19 0 -9 -5 -22 20 -20 39 0 5 -5
12 -11 16 -8 5 -7 9 5 13 9 4 14 3 11 -2 -3 -5 4 -11 15 -14 14 -4 18 -10 13
-18 -6 -10 -9 -10 -12 -1 -2 7 -8 12 -13 12 -4 0 -6 -7 -2 -15 3 -9 13 -15 22
-13 21 4 24 48 3 48 -21 0 -6 13 16 15 14 1 17 -5 16 -29 -2 -33 7 -58 22 -58
5 1 8 -7 7 -16 -1 -9 4 -2 12 15 8 18 21 33 28 33 8 0 7 -4 -3 -10 -10 -6 -11
-10 -2 -10 6 0 12 -5 12 -11 0 -5 -4 -7 -10 -4 -5 3 -10 1 -10 -5 0 -7 6 -10
13 -7 6 2 11 12 11 21 -1 9 3 16 10 16 6 0 4 5 -4 11 -12 8 -9 9 10 4 l25 -6
-23 18 c-13 10 -20 22 -16 26 8 7 33 -22 30 -36 -2 -13 31 -28 47 -21 17 6 29
41 17 49 -4 3 -11 -6 -14 -20 -8 -32 -18 -32 -33 0 -6 14 -7 25 -2 25 5 0 9 8
9 18 0 10 3 13 8 7 4 -6 16 -11 27 -11 11 0 19 -6 17 -13 -1 -7 2 -10 7 -6 6
3 8 12 4 20 -3 10 1 15 11 15 13 0 15 -4 6 -19 -5 -11 -15 -23 -20 -26 -11 -7
-4 -25 10 -25 5 0 6 8 3 18 -6 14 -4 15 9 5 8 -7 18 -9 22 -5 4 4 12 8 17 8 5
1 10 2 12 4 1 1 11 3 22 5 22 4 47 34 39 46 -3 5 0 9 6 9 6 0 8 5 4 11 -5 8
-9 8 -14 -1 -8 -13 -51 -5 -47 10 1 4 -1 8 -5 9 -22 3 -27 0 -22 -14 4 -8 12
-15 20 -15 8 0 14 -4 14 -9 0 -4 -12 -7 -27 -5 -17 2 -20 1 -8 -2 29 -9 46
-28 18 -21 -13 3 -23 1 -23 -4 0 -5 -4 -9 -8 -9 -5 0 -8 10 -6 23 1 12 3 22 4
22 2 0 4 10 5 22 2 16 -2 20 -13 15 -11 -4 -12 -7 -4 -10 10 -3 10 -7 1 -18
-6 -8 -15 -11 -20 -8 -5 3 -9 1 -9 -4 0 -13 -61 -9 -85 6 -24 14 -19 15 22 3
29 -8 31 -7 28 15 -2 26 5 30 22 13 12 -12 33 -4 33 12 0 6 -5 7 -12 3 -7 -4
-8 -3 -4 5 6 9 11 9 22 0 11 -9 14 -8 14 5 0 12 6 15 24 10 18 -4 25 -1 29 13
5 17 5 17 6 0 0 -10 7 -17 14 -14 6 2 11 13 9 23 -2 19 -2 19 12 0 9 -10 13
-23 10 -27 -3 -5 0 -9 6 -9 6 0 8 -5 4 -12 -5 -7 -3 -8 5 -4 7 5 10 15 7 23
-3 8 -1 11 4 8 6 -3 11 1 11 9 3 36 5 40 17 44 15 5 15 -3 2 -28 -6 -12 -7
-21 0 -25 16 -10 0 -33 -28 -40 l-27 -8 28 -11 c15 -7 24 -16 20 -21 -5 -4 -1
-4 7 0 8 5 23 10 34 11 11 0 22 6 24 13 2 6 8 9 12 6 5 -3 11 -1 14 4 3 5 -3
11 -14 14 -11 3 -20 1 -20 -4 0 -4 -6 -6 -14 -3 -19 7 -17 84 2 84 7 0 11 4 7
10 -3 5 8 16 25 25 30 16 31 16 21 -3 -17 -31 11 -49 43 -28 15 10 27 12 31 6
3 -6 -1 -10 -10 -10 -9 0 -13 -5 -10 -10 4 -6 10 -8 14 -6 4 3 5 -8 3 -25 -3
-18 0 -29 8 -29 7 0 9 8 5 19 -3 11 -1 22 5 26 6 3 7 11 4 17 -5 7 -1 9 9 5
18 -7 57 35 57 62 0 13 2 13 9 2 5 -7 10 -9 12 -3 2 6 9 4 17 -4 11 -12 9 -14
-9 -14 -15 0 -19 -4 -15 -16 4 -12 2 -15 -9 -10 -9 3 -15 0 -15 -10 0 -8 -4
-12 -10 -9 -9 5 -14 -7 -11 -27 0 -4 -8 -5 -19 -3 -11 2 -20 0 -20 -6 0 -18
39 -9 66 16 24 22 52 26 39 5 -3 -4 6 -3 19 3 13 7 22 15 20 18 -2 4 -1 9 3
12 5 2 3 2 -4 1 -6 -2 -14 4 -17 13 -5 11 -2 14 10 9 13 -5 14 -4 6 7 -7 8 -8
18 -4 22 4 5 -1 6 -10 2 -20 -7 -34 21 -18 37 8 8 11 7 8 -3 -2 -7 4 -16 12
-18 12 -4 12 -3 2 5 -8 5 -13 13 -13 18 1 5 -3 9 -9 8 -5 -1 -17 -2 -26 -2
-13 -2 -14 -5 -5 -16 10 -11 8 -16 -8 -21 -11 -3 -20 -9 -19 -13 5 -16 -24
-52 -42 -52 -22 0 -27 16 -7 23 7 2 8 8 3 13 -5 5 -11 4 -13 -3 -3 -7 -9 -13
-14 -13 -6 0 -7 5 -3 12 4 7 3 8 -5 4 -6 -4 -9 -11 -6 -16 3 -5 1 -11 -5 -15
-6 -4 -9 4 -8 19 1 13 5 23 9 21 3 -3 14 4 23 14 13 14 14 21 6 26 -9 6 -9 10
1 16 12 8 12 11 -1 18 -8 6 -11 13 -7 17 4 4 -1 16 -10 27 -20 21 -20 26 -4
37 16 9 21 60 9 90 -7 20 -11 22 -18 10 -6 -9 -6 -16 0 -18 16 -6 11 -22 -6
-22 -10 0 -14 7 -12 23 2 12 -2 21 -7 20 -6 -1 -12 9 -13 23 -1 13 3 24 9 24
5 0 7 5 4 10 -4 6 -11 7 -17 4 -5 -4 -3 4 5 17 8 13 13 32 12 42 -2 10 3 17
11 17 9 0 12 5 9 10 -3 6 -2 10 3 10 20 0 21 -31 3 -49 -11 -11 -17 -22 -14
-25 4 -3 0 -6 -7 -6 -9 0 -8 -6 5 -20 9 -10 15 -26 11 -35 -3 -9 -2 -14 2 -11
14 9 32 -10 34 -36 1 -15 6 -24 10 -22 10 7 10 1 -2 -30 -9 -24 -8 -25 9 -14
21 13 21 28 3 50 -6 8 -10 24 -7 36 3 20 -5 27 -27 23 -5 0 -8 4 -8 9 0 13 27
13 35 1 3 -6 14 -8 24 -6 10 2 18 -3 18 -11 0 -10 -4 -11 -13 -3 -8 6 -14 6
-18 0 -8 -12 4 -19 27 -16 9 2 17 -1 17 -7 0 -6 -6 -8 -14 -5 -16 6 -30 -19
-16 -28 4 -3 10 0 12 7 5 14 28 2 28 -15 0 -8 -3 -8 -9 2 -6 9 -11 10 -15 2
-4 -6 -2 -11 5 -11 7 0 4 -7 -7 -16 -14 -11 -10 -11 13 2 25 14 30 21 21 31
-6 7 -7 13 -3 13 4 0 1 10 -7 23 -8 12 -14 30 -12 40 1 9 -2 15 -7 11 -5 -3
-9 4 -9 15 0 12 -5 21 -11 21 -6 0 -9 -9 -6 -20 5 -21 -16 -29 -28 -10 -4 6
-10 8 -15 5 -18 -11 -21 18 -5 51 9 20 14 42 11 50 -7 17 -46 19 -46 2 0 -9
-3 -8 -10 2 -6 9 -5 17 1 21 6 3 11 10 11 15 0 5 11 8 24 8 20 -1 23 2 19 17
-4 11 -2 19 6 19 9 0 9 3 0 14 -7 8 -13 25 -15 38 -6 47 -19 88 -27 88 -5 0
-9 -7 -9 -15 0 -8 -5 -15 -10 -15 -6 0 -9 3 -8 8 2 4 -1 8 -6 10 -6 1 -11 -4
-12 -13 -2 -10 6 -15 27 -15 16 0 29 -5 29 -11 0 -6 -8 -8 -18 -5 -13 4 -19 1
-19 -9 0 -16 27 -16 39 0 5 6 8 6 8 -2 0 -6 -5 -15 -10 -18 -7 -5 -8 -11 -1
-19 6 -7 6 -17 1 -26 -9 -14 -11 -13 -14 10 -3 24 -21 7 -22 -20 -3 -57 -3
-58 -26 -53 -22 4 -22 4 -3 -8 11 -7 23 -17 27 -22 8 -13 0 -59 -14 -72 -8 -7
-9 -4 -3 10 10 27 8 56 -5 69 -8 8 -9 6 -5 -9 6 -19 6 -19 -5 -2 -7 11 -13 24
-14 30 -1 7 -5 18 -9 25 -5 7 -3 12 4 12 7 0 5 8 -6 20 -17 19 -17 20 0 20 10
0 15 3 11 8 -4 4 -12 7 -17 7 -5 0 -9 5 -10 10 0 6 -6 16 -12 24 -7 8 -7 12
-2 9 6 -4 22 2 35 13 14 10 20 19 13 19 -6 0 -15 -4 -18 -10 -8 -12 -25 -13
-25 -2 0 5 10 14 23 20 l22 11 -25 -2 c-14 -1 -29 -6 -33 -12 -5 -6 -7 -4 -4
5 2 8 13 14 23 12 15 -2 16 -1 5 7 -8 5 -20 7 -26 5 -7 -3 -15 4 -18 15 -3 12
-1 21 4 21 5 0 9 -6 9 -13 0 -11 21 -14 50 -7 3 0 -6 7 -19 14 -14 8 -19 16
-13 20 6 3 13 2 17 -4 4 -6 11 -8 16 -5 5 4 9 -1 9 -9 0 -23 15 -19 17 4 1 13
-2 18 -9 14 -7 -4 -8 -2 -4 4 4 7 -1 10 -14 7 -11 -2 -20 0 -20 6 0 5 -5 9
-11 9 -5 0 -8 -4 -5 -9 3 -5 -1 -12 -10 -15 -10 -4 -13 -2 -8 6 5 7 2 9 -8 6
-12 -5 -15 0 -13 23 1 16 -2 29 -7 29 -6 0 -6 6 1 14 8 10 9 16 1 21 -5 3 -10
1 -10 -6 0 -7 -3 -9 -6 -6 -4 4 -2 13 4 20 7 8 9 17 5 20 -3 4 -1 7 7 7 9 0
10 3 1 14 -20 24 -4 42 34 38 21 -3 32 -8 28 -15 -3 -5 -2 -7 4 -4 5 3 10 0
10 -7 0 -7 -6 -13 -14 -13 -7 0 -13 6 -13 14 0 31 -15 10 -17 -25 -2 -31 -1
-34 10 -21 12 16 57 35 57 24 0 -3 -12 -10 -26 -16 -26 -9 -26 -10 -8 -30 11
-12 18 -23 17 -25 -7 -11 -2 -24 7 -19 6 4 4 17 -5 35 -14 27 -13 29 5 35 22
7 26 20 10 30 -6 4 -8 11 -5 16 4 5 0 11 -7 14 -8 3 -14 15 -15 25 -1 13 2 18
10 13 9 -5 9 -3 0 8 -6 8 -11 18 -11 22 0 5 -4 12 -8 15 -4 4 -4 1 0 -5 4 -7
2 -13 -3 -13 -15 0 -14 -37 2 -43 6 -3 2 -4 -10 -4 -12 1 -19 5 -17 9 3 4 -5
7 -18 5 -25 -2 -50 -37 -36 -51 11 -13 10 -26 -1 -26 -13 0 -21 42 -10 56 11
14 -13 38 -27 26 -4 -4 -3 0 4 10 9 11 10 18 3 23 -6 3 -16 15 -22 27 -6 11
-7 18 -2 15 4 -3 14 1 20 9 8 8 9 15 3 19 -6 3 -10 1 -10 -4 0 -22 -16 -10
-27 18 -9 25 -8 32 7 46 11 10 23 14 29 11 5 -4 12 -2 16 4 3 5 3 10 -2 11 -4
0 -18 2 -31 3 -13 2 -26 -2 -29 -7 -4 -6 -1 -7 7 -2 9 5 11 4 6 -4 -4 -6 -12
-9 -17 -5 -5 3 -7 10 -4 15 4 5 2 9 -2 9 -5 0 -24 52 -42 115 -18 63 -36 115
-40 115 -3 0 -84 -154 -179 -343z m545 -495 c11 8 12 7 7 -6 -8 -21 -30 -21
-39 2 -5 13 -4 14 6 5 9 -9 16 -10 26 -1z m10 -307 c5 -4 2 -5 -6 0 -11 6 -13
4 -8 -8 9 -23 0 -21 -13 2 -7 15 -7 19 5 17 8 -1 18 -6 22 -11z m-41 -232
c-11 -11 -17 4 -9 23 7 18 8 18 11 1 2 -10 1 -21 -2 -24z m187 2 c4 -8 1 -17
-5 -21 -7 -4 -8 -3 -4 4 4 7 2 12 -3 12 -6 0 -11 5 -11 10 0 15 17 12 23 -5z
m-333 -36 c0 -5 -4 -9 -8 -9 -5 0 -9 7 -9 15 0 8 4 12 9 9 4 -3 8 -9 8 -15z
m47 -14 c0 -8 -4 -12 -9 -9 -5 3 -6 10 -3 15 9 13 12 11 12 -6z m-263 -53 c3
-5 -1 -9 -9 -9 -8 0 -12 4 -9 9 3 4 7 8 9 8 2 0 6 -4 9 -8z m286 -13 c0 -14
-20 -11 -21 4 0 9 -2 9 -5 0 -3 -7 -13 -9 -21 -6 -14 6 -14 7 3 13 22 8 44 2
44 -11z m-355 -20 c-4 -5 4 -8 16 -6 12 1 24 -3 26 -9 2 -7 -5 -10 -22 -7 -24
5 -29 -2 -26 -32 1 -16 -51 -37 -63 -25 -7 7 -5 10 5 10 12 0 12 2 -1 10 -9 6
-10 10 -3 10 7 0 10 11 7 28 l-4 27 14 -25 c9 -16 11 -27 4 -31 -7 -4 -7 -9 0
-13 18 -11 32 26 16 42 -18 17 -9 33 13 25 12 -5 14 -3 8 7 -5 9 -4 11 4 6 6
-4 9 -12 6 -17z m235 -13 c0 -8 -6 -16 -14 -19 -10 -4 -12 0 -9 14 6 22 23 26
23 5z m-404 -48 c5 -8 2 -9 -9 -5 -17 6 -23 -4 -10 -17 11 -11 12 -35 2 -42
-12 -7 -11 -24 2 -24 5 0 8 4 5 9 -3 5 0 11 8 14 9 4 12 14 9 28 -4 15 -3 20
5 15 7 -4 12 -16 12 -27 0 -11 5 -17 10 -14 17 10 11 -4 -9 -24 -11 -11 -22
-16 -26 -13 -4 4 -13 -1 -20 -12 -8 -10 -19 -15 -25 -11 -6 4 -18 1 -26 -6
-20 -16 -42 -20 -50 -8 -3 5 2 9 10 9 9 0 16 5 16 10 0 13 -6 13 -32 -1 -17
-9 -19 -8 -16 8 2 10 11 17 20 17 10 -1 14 4 11 12 -2 7 -12 10 -21 7 -14 -4
-15 -3 -2 5 8 6 18 8 22 6 4 -3 8 0 8 6 0 6 -7 13 -16 17 -15 5 -15 7 1 16 11
6 21 5 28 -3 9 -8 7 -9 -7 -4 -13 5 -17 4 -12 -4 3 -6 14 -11 24 -11 9 0 26
-1 37 -3 12 -2 21 4 23 16 3 11 0 16 -7 11 -6 -3 -8 -12 -4 -18 5 -8 2 -8 -9
0 -8 7 -18 10 -21 6 -4 -3 -7 -1 -7 6 0 8 7 11 15 7 9 -3 19 3 25 14 12 23 25
26 36 8z"/>
<path d="M827 408 c-2 -7 0 -21 5 -31 5 -9 6 -23 3 -30 -4 -6 0 -4 8 6 8 10
23 17 33 15 14 -2 19 4 19 23 1 18 -3 25 -12 22 -16 -6 -16 -15 0 -33 10 -12
9 -12 -4 -2 -12 9 -18 9 -27 0 -9 -9 -12 -9 -12 0 0 7 4 12 8 12 5 0 9 7 9 15
0 18 -24 20 -30 3z"/>
<path d="M930 399 c0 -5 5 -7 10 -4 6 3 10 8 10 11 0 2 -4 4 -10 4 -5 0 -10
-5 -10 -11z"/>
<path d="M1339 1948 c-7 -18 -20 -38 -29 -45 -13 -10 -13 -11 4 -10 20 2 29
-22 16 -43 -5 -9 -9 -9 -14 -1 -4 6 -3 11 2 11 5 0 9 7 9 14 0 20 -33 3 -48
-26 -10 -19 -9 -20 16 -14 16 4 24 3 21 -3 -7 -11 20 -8 31 4 5 4 1 4 -7 0
-13 -8 -13 -6 -1 8 7 9 17 14 23 11 5 -3 4 -12 -3 -21 -10 -11 -10 -16 0 -22
10 -6 9 -10 -3 -14 -9 -4 -16 -10 -15 -14 3 -20 -2 -34 -11 -28 -5 3 -7 12 -3
20 3 8 0 15 -7 15 -6 0 -8 -4 -5 -10 3 -5 -1 -10 -9 -10 -13 0 -14 -3 -4 -19
6 -11 20 -18 30 -16 22 5 23 -13 2 -37 -14 -14 -14 -20 -4 -33 14 -17 40 -20
40 -4 0 6 -7 8 -16 5 -10 -4 -13 -2 -8 6 4 7 3 8 -4 4 -7 -4 -12 -2 -12 3 0
14 6 14 31 1 12 -7 19 -7 19 -1 0 5 -6 11 -12 14 -7 2 -5 3 5 2 9 -2 17 3 17
11 0 8 -6 11 -15 8 -10 -4 -13 0 -10 15 2 12 0 19 -6 16 -5 -4 -9 1 -9 10 0 9
4 14 8 11 13 -8 39 13 26 22 -12 8 -12 80 0 100 4 6 3 12 -3 12 -6 0 -8 6 -5
14 3 8 0 17 -7 22 -9 5 -10 2 -6 -10 5 -12 3 -15 -6 -10 -9 5 -9 4 1 -7 15
-16 16 -39 1 -39 -5 0 -7 5 -4 10 3 6 2 10 -4 10 -12 0 -6 37 8 54 5 6 6 17 2
25 -6 8 -12 2 -22 -21z m-36 -93 c-3 -9 -8 -14 -10 -11 -3 3 -2 9 2 15 9 16
15 13 8 -4z m67 -75 c0 -5 -2 -10 -4 -10 -3 0 -8 5 -11 10 -3 6 -1 10 4 10 6
0 11 -4 11 -10z"/>
<path d="M1391 1854 c0 -11 3 -14 6 -6 3 7 2 16 -1 19 -3 4 -6 -2 -5 -13z"/>
<path d="M1387 1824 c-3 -4 -1 -16 5 -27 8 -16 7 -23 -4 -31 -20 -15 -22 -27
-6 -37 22 -14 31 -10 17 7 -11 14 -11 18 1 28 9 6 14 23 12 39 -3 26 -12 34
-25 21z"/>
<path d="M1411 1751 c-9 -6 -10 -11 -3 -15 14 -9 -41 -102 -57 -98 -7 1 -10
-2 -6 -8 5 -8 33 -8 55 0 3 2 8 2 11 2 3 -1 13 15 21 34 13 28 13 36 4 40 -8
3 -11 15 -8 30 5 26 3 28 -17 15z m18 -68 c-24 -32 -49 -54 -49 -44 0 5 7 16
15 24 8 8 11 18 7 22 -4 5 -2 5 5 1 6 -3 14 -2 18 4 3 5 9 10 12 10 3 0 -1 -8
-8 -17z"/>
<path d="M1390 1566 c0 -9 5 -16 10 -16 6 0 10 4 10 9 0 6 -4 13 -10 16 -5 3
-10 -1 -10 -9z"/>
<path d="M1393 1498 c1 -25 5 -44 9 -42 5 3 8 1 8 -5 0 -5 -6 -12 -12 -14 -8
-3 -7 -6 4 -6 20 -1 32 15 18 24 -13 8 -13 25 1 25 5 0 7 -5 3 -12 -5 -7 -3
-8 6 -3 8 5 11 4 6 -3 -3 -6 1 -18 10 -27 15 -14 18 -14 40 0 13 8 24 11 24 5
0 -5 -4 -10 -9 -10 -5 0 -8 -12 -7 -27 5 -40 -3 -56 -19 -43 -8 7 -16 7 -19 2
-3 -6 2 -13 11 -16 11 -5 23 1 35 16 14 18 17 19 12 4 -5 -13 -3 -17 6 -14 7
2 14 12 16 21 1 9 -2 15 -6 12 -5 -3 -11 -1 -15 5 -3 5 0 10 7 10 10 0 11 2 0
8 -7 5 -10 16 -7 24 4 9 2 19 -4 22 -6 4 -7 14 -4 23 4 11 3 14 -6 9 -7 -5
-10 -14 -7 -22 3 -8 -1 -14 -9 -14 -8 0 -15 -6 -15 -12 -1 -12 -34 40 -35 54
0 3 -4 10 -9 15 -5 4 -6 3 -3 -3 4 -7 0 -15 -9 -18 -8 -3 -13 -2 -9 3 3 5 1
20 -4 33 -8 19 -9 14 -8 -24z"/>
<path d="M1470 1503 c0 -8 5 -13 12 -11 18 6 21 25 3 25 -8 0 -15 -7 -15 -14z"/>
<path d="M1471 1289 c-5 -13 -10 -18 -10 -10 -1 18 -14 6 -17 -15 -1 -9 0 -13
3 -10 4 3 13 0 21 -7 13 -9 14 -9 8 1 -4 6 -5 12 -2 12 3 0 10 -10 17 -21 8
-15 8 -19 0 -15 -18 12 -34 -4 -21 -19 7 -8 9 -19 5 -25 -3 -5 1 -10 9 -10 9
0 15 3 15 8 -1 4 0 9 1 12 1 3 3 26 5 52 3 57 -19 86 -34 47z m25 -15 c1 -9 0
-13 -4 -10 -3 4 -7 14 -8 22 -1 9 0 13 4 10 3 -4 7 -14 8 -22z m-1 -72 c-3 -3
-11 0 -18 7 -9 10 -8 11 6 5 10 -3 15 -9 12 -12z"/>
<path d="M1536 1159 c3 -5 10 -9 16 -9 5 0 20 -8 32 -18 19 -15 21 -20 9 -30
-7 -7 -11 -17 -8 -23 4 -5 2 -9 -3 -9 -5 0 -12 -8 -14 -18 -7 -26 22 -24 44 2
21 25 24 43 4 27 -11 -9 -16 -9 -22 0 -4 7 -3 9 3 6 12 -7 22 21 16 41 -3 6
-12 12 -20 12 -13 0 -13 3 -3 15 9 10 9 15 1 15 -6 0 -11 -6 -11 -12 0 -8 -3
-9 -8 -3 -9 12 -44 16 -36 4z m64 -99 c0 -5 -5 -10 -11 -10 -5 0 -7 5 -4 10 3
6 8 10 11 10 2 0 4 -4 4 -10z"/>
<path d="M1540 1095 c-7 -9 -8 -15 -2 -15 5 0 12 7 16 15 3 8 4 15 2 15 -2 0
-9 -7 -16 -15z"/>
<path d="M1527 1013 c-10 -9 -9 -23 1 -23 5 0 9 7 9 15 0 17 -1 18 -10 8z"/>
<path d="M1661 886 c-7 -8 -23 -13 -37 -11 -13 1 -27 -2 -30 -7 -3 -4 -9 -6
-14 -3 -4 3 -10 -2 -14 -10 -3 -8 2 -19 11 -23 21 -12 53 -3 53 15 0 9 6 13
14 10 7 -3 19 -1 25 4 6 5 9 6 6 3 -3 -4 0 -13 6 -21 9 -9 8 -13 0 -13 -6 0
-11 5 -11 11 0 5 -5 7 -11 3 -8 -4 -8 -9 0 -17 13 -13 15 -30 2 -23 -5 3 -11
-2 -13 -12 -8 -28 -39 -24 -34 4 3 15 0 21 -8 18 -7 -3 -13 -18 -13 -33 0 -18
5 -27 12 -25 6 3 12 -2 12 -11 0 -9 -6 -14 -13 -11 -7 3 -18 -2 -25 -10 -10
-12 -9 -13 5 -8 11 4 19 -1 26 -17 l11 -24 -5 23 c-3 17 -1 22 10 18 7 -3 13
-2 12 2 -1 4 1 14 4 22 4 8 9 23 12 34 3 10 12 16 19 13 17 -7 44 9 34 20 -5
4 -12 1 -17 -7 -13 -20 -13 -4 -1 19 7 12 6 26 -4 44 -7 14 -11 28 -7 31 3 3
3 6 0 6 -3 0 -11 -6 -17 -14z m-46 -26 c4 -6 1 -9 -7 -8 -7 2 -12 -2 -11 -9 2
-7 -4 -10 -12 -6 -13 5 -13 7 2 19 22 16 20 16 28 4z"/>
<path d="M1630 808 c0 -19 2 -20 10 -8 13 19 13 30 0 30 -5 0 -10 -10 -10 -22z"/>
<path d="M1462 675 c4 -5 4 -13 -1 -19 -5 -6 -11 -22 -13 -36 -3 -23 0 -25 37
-26 52 -2 53 -3 35 -14 -8 -5 -10 -10 -4 -10 5 0 19 7 30 15 18 15 18 15 0 8
-13 -4 -17 -3 -12 5 9 15 -12 26 -27 13 -17 -14 -39 2 -31 22 9 25 23 20 16
-5 -5 -21 -4 -22 11 -9 19 15 10 34 -27 53 -12 6 -18 7 -14 3z m11 -30 c-3 -9
-8 -14 -10 -11 -3 3 -2 9 2 15 9 16 15 13 8 -4z"/>
<path d="M1535 640 c-4 -7 -1 -16 6 -21 17 -10 26 8 11 23 -6 6 -12 6 -17 -2z"/>
<path d="M1327 603 c-11 -12 -17 -13 -17 -5 0 7 -5 10 -11 6 -8 -5 -6 -10 5
-16 9 -5 14 -14 10 -20 -4 -7 0 -6 13 1 11 6 24 7 28 3 4 -4 3 3 -3 14 -6 12
-8 24 -5 28 3 3 4 6 2 6 -3 0 -12 -8 -22 -17z"/>
<path d="M1260 600 c0 -5 5 -10 11 -10 5 0 7 5 4 10 -3 6 -8 10 -11 10 -2 0
-4 -4 -4 -10z"/>
<path d="M1390 599 c0 -5 5 -7 10 -4 6 3 10 8 10 11 0 2 -4 4 -10 4 -5 0 -10
-5 -10 -11z"/>
<path d="M1190 560 c0 -5 5 -10 11 -10 5 0 7 5 4 10 -3 6 -8 10 -11 10 -2 0
-4 -4 -4 -10z"/>
<path d="M1356 535 c-9 -23 -8 -24 14 -18 12 3 19 10 17 16 -6 18 -24 19 -31
2z"/>
<path d="M1163 503 c-15 -5 -17 -23 -4 -23 5 0 11 7 15 15 3 8 4 15 3 14 -1 0
-8 -3 -14 -6z"/>
<path d="M997 440 c9 -10 9 -17 2 -26 -12 -15 -3 -37 12 -29 5 4 14 16 20 28
7 12 8 19 4 14 -5 -4 -18 1 -29 10 -12 10 -15 11 -9 3z m16 -35 c-3 -9 -8 -14
-10 -11 -3 3 -2 9 2 15 9 16 15 13 8 -4z"/>
<path d="M1110 440 c0 -5 5 -10 10 -10 6 0 10 5 10 10 0 6 -4 10 -10 10 -5 0
-10 -4 -10 -10z"/>
<path d="M645 371 c-10 -9 8 -21 31 -21 14 0 23 4 20 9 -8 13 22 7 36 -7 8 -8
5 -16 -13 -31 -13 -11 -32 -23 -41 -26 -22 -8 -24 -25 -3 -25 8 0 15 5 15 11
0 6 9 8 20 4 12 -4 20 -2 20 5 0 6 -6 8 -12 4 -7 -4 -4 2 7 13 11 11 24 18 29
15 4 -2 3 -8 -4 -12 -8 -5 -9 -10 -2 -14 21 -13 30 28 13 54 -13 22 -23 26
-64 26 -26 0 -50 -2 -52 -5z"/>
<path d="M630 341 c0 -6 4 -12 10 -16 5 -3 6 -13 3 -21 -5 -14 -3 -15 15 -5
12 7 22 19 22 27 0 8 -5 12 -10 9 -6 -4 -7 -11 -4 -17 4 -7 2 -8 -4 -4 -7 4
-12 14 -12 22 0 8 -4 14 -10 14 -5 0 -10 -4 -10 -9z"/>
<path d="M693 335 c-9 -25 4 -29 17 -6 7 15 7 21 0 21 -6 0 -13 -7 -17 -15z"/>
<path d="M510 295 c7 -9 10 -19 6 -22 -4 -4 -11 -2 -15 6 -6 10 -10 9 -14 -4
-4 -9 -3 -14 1 -11 4 2 19 -5 32 -16 14 -11 19 -17 13 -13 -9 4 -11 1 -6 -11
5 -15 8 -15 17 -2 6 8 17 13 24 11 6 -3 12 0 12 6 0 5 9 8 20 6 11 -2 22 1 25
6 4 5 11 7 16 4 5 -4 9 1 9 9 0 21 -9 20 -27 -1 -13 -16 -14 -17 -9 -1 3 12
-4 21 -23 31 -22 11 -28 11 -28 1 0 -7 5 -10 10 -7 6 3 7 1 3 -6 -10 -15 -26
-4 -26 17 0 15 -2 15 -10 2 -6 -10 -10 -11 -10 -2 0 6 -7 12 -16 12 -14 0 -14
-3 -4 -15z m44 -30 c5 -14 8 -14 31 1 23 15 25 15 19 0 -3 -9 -10 -14 -14 -11
-5 3 -11 1 -15 -5 -7 -12 -45 5 -45 20 0 16 17 12 24 -5z"/>
<path d="M463 219 c-11 -27 -10 -30 5 -24 9 4 22 8 29 9 25 4 24 14 0 12 -17
-2 -24 1 -20 10 2 7 11 10 19 7 8 -3 14 0 14 6 0 25 -36 10 -47 -20z"/>
</g>
</svg>
