<?xml version="1.0" standalone="no"?>
<!DOCTYPE svg PUBLIC "-//W3C//DTD SVG 1.1//EN" "http://www.w3.org/Graphics/SVG/1.1/DTD/svg11.dtd" >
<svg xmlns="http://www.w3.org/2000/svg">
<metadata></metadata>
<defs>
<font id="wishfulwavesregular" horiz-adv-x="1234" >
<font-face units-per-em="2048" ascent="1638" descent="-410" />
<missing-glyph horiz-adv-x="1024" />
<glyph horiz-adv-x="0" />
<glyph unicode="&#xd;" horiz-adv-x="1024" />
<glyph unicode=" "  horiz-adv-x="1024" />
<glyph unicode="&#x09;" horiz-adv-x="1024" />
<glyph unicode="&#xa0;" horiz-adv-x="1024" />
<glyph unicode="!" horiz-adv-x="567" d="M557 -109v5q-2 -66 -22 -134h4q2 2 4 2q-37 -106 -125 -106q-16 2 -92 14q-2 0 -119 13q0 -2 -2 -2v-2q-14 -10 -27 -11h-43q-31 4 -31 31q12 55 12.5 160.5t8.5 163.5q8 68 37 131l-6 6q2 33 -6 84q-12 76 -13 82q-4 35 -24 100q0 6 -4 12q-23 115 -60 344v9 q-20 57 -26 106q-43 174 -39 281q4 70 24 307q-2 8 -2 16v17q12 57 113 92q78 18 106 18q23 -8 23 -24q16 16 39 20q16 -2 32 2q14 2 31 -4h74q6 0 57 -4q31 -2 58 0q37 -4 26 -41q-18 -70 -18 -96v-21q-2 -12 -6 -35q0 -6 -2 -18t-2 -18v-19h-13q-8 -2 -12 -2v6 q-25 -154 -27 -307q-2 -156 15 -309q82 -401 82 -465v-31q0 -10 -9 -84q-14 -18 -32 -33q12 -18 20 -26q-2 -23 -1 -45.5t1 -44.5q2 -10 2 -23v-22q0 -33 -4 -66v-14q-2 -11 -2 -15zM412 1370h-2q4 20 6 64.5t6 64.5q-25 2 -72 2h-55q-20 2 -64 6h-36l-37 -4q-18 -2 -37 0 q2 -51 2 -104t-4 -169t-2 -175q4 -2 14 -11q10 -203 49 -299q14 -63 17 -120q18 -55 49 -215q8 -47 26 -140q6 0 15 2q6 0 12 -4q33 -2 76 0q57 4 74 2q4 31 4 62q0 68 -19 127q0 8 -4 30.5t-2 34.5v-2q2 0 2 -2v12q-2 6 -2 11q-2 14 -8 45q0 8 -4 22q-12 80 -33 264 q-12 113 -10 183q2 92 18 180q0 20 6 39v10q2 6 2 10q4 12 4 23q9 47 9 51zM438 -123v2q2 0 2 2q4 31 4 62q0 47 -8 96l-2 2v2h-4q-23 2 -70 8q-10 0 -31.5 4t-31.5 4q-27 0 -51 -8l-4 -92q0 -14 -4 -61q-4 -37 -5 -60v-31q25 0 74 -8t74 -8q18 0 37 2q2 2 2 4t2 4 q0 -2 -2 -2v-2l6 31q6 31 12 49z" />
<glyph unicode="0" horiz-adv-x="1187" d="M1296 377v-12q2 -6 2 -11q0 -10 -6 -28q8 -207 -55 -367q-4 2 -14 6q-115 -217 -363 -274h2q-20 -6 -63 -16.5t-64 -16.5h2q0 -2 2 -2q-23 -4 -66.5 -8t-66.5 -8h-8q-6 2 -8 2h-21q-25 4 -51 4h-14q-2 0 -2 2h-2q-76 -4 -141.5 34.5t-90.5 108.5q-47 57 -73 148 q-8 27 -35 161q-14 35 -15 47q-8 88 -39 265q-18 70 -59 186q-55 152 -65 186q-45 139 -43 224q-14 72 2 143q29 131 45 170q33 74 110 141q82 57 105 70q59 35 114 49q10 2 258 41q27 8 76 8q59 0 76.5 2t34.5 2q141 0 203 -196q100 -324 100 -355v7q0 -41 8 -66 q0 -41 12 -100q16 -82 19 -99q80 -252 158 -368h-3q0 2 -2 2q2 -4 3.5 -5t9.5 -14q12 -18 28 -63zM1159 301q-12 111 -105 338t-106 352q-6 76 -57 289q-61 178 -158 215v-2q2 0 2 -2q-20 10 -37 10h-36q-18 0 -37 -2q-20 2 -62 2h-43q-20 0 -43 4l-49 -12q-2 0 -49 -10 q-94 -18 -146 -43q-121 -74 -149 -228q-18 -98 -12 -161q8 -94 45 -265q16 -78 106 -313q29 -72 23 -127q-2 -29 -25 -57h10q6 2 11 2l4 -29q4 -29 49 -188q12 -49 27 -97q16 -59 38 -92l-4 4q29 -49 92.5 -84.5t120.5 -35.5h25q25 -4 51 -5h29q4 2 5 3.5t5 3.5 q57 -6 215 43q37 12 94 39q41 29 111 96h-4q31 37 49 84v2q29 92 35 135q8 76 -25 131zM674 967q18 -106 114 -357q88 -225 97 -352q-4 -78 -19 -231q-51 -135 -178 -160q-10 2 -33 8q-43 96 -43 158q0 18 4 39q-10 252 -145 532q-31 63 -61.5 129t-42.5 139q0 6 -5 15 q-6 29 -6 39l-2 20q-6 61 -8 131q-2 47 2 72l14 70q2 55 42 100t96 49q25 -10 86 -39q47 -20 39 -61l6 12q0 -57 43 -313zM567 844v2l-20 94q-10 43 -31 203q-8 66 -43 92q-10 -33 -16 -33q-4 -2 -8 2q2 -12 16 -53q10 -33 10 -53q0 -18 -8 -37l-6 6q6 -127 41 -254l8 -20 l10 -21l8 -20l7 -9q10 -27 40 -73q33 -72 87 -221q2 -33 43 -164q12 -39 32 -230l4 21v2q2 18 9 55q2 25 -5 53q4 176 -122 496q-36 88 -56 162z" />
<glyph unicode="1" horiz-adv-x="946" d="M997 -102q2 2 5.5 6t5.5 6l-21 -78q-37 -141 -127 -197q-72 -4 -160 -2h-82q-20 0 -49 -2h-30h-35q-6 0 -17.5 -2t-17.5 -2h-18q-4 0 -11 -2h-10q-59 8 -49 84q12 53 29 160q0 14 4 29l12 67q4 23 23 62q16 246 -101 565l-65 180h4q-23 61 -58 186q-4 2 -5 3.5t-5 3.5 q-129 -20 -215 -17q-23 -2 -53 29q-8 236 -10 207l4 -4v2q-2 0 -2 2v2q-2 0 -2 2v0q-12 27 -13 47q-2 68 90 86q53 25 168 119q63 51 179 164q31 37 90 43q27 2 61 -2q18 4 35 2q14 -2 33 -2q27 0 55 2q27 2 53 -2q29 0 58 2t59 0q29 -2 33 -35q-27 -143 -25 -295 q0 -86 35 -297q14 -86 55 -281q25 -92 72 -276q47 -193 47 -348q0 -106 -29 -217zM696 -231l-4 4q41 -2 121 -23q61 184 61 400q0 193 -45 391q-12 55 -73 256q-86 283 -74 602v-2q0 39 4 119q-2 0 -2 2q-8 0 -18 2q-23 2 -37 2h-15q-14 2 -18 4h-31q-25 4 -47 4h-24 q-6 2 -9 2q-23 -4 -41 -12q-6 -8 -22 -23q-4 -6 -12 -16l-21 -21q-68 -68 -131 -112q-29 -27 -57 -54q-35 -31 -66 -41q-18 -10 -55 -24q-12 -14 -17 -33q-4 -18 0 -37q6 -27 17 -84q18 -12 35 -12q18 -2 80 29q94 -6 131 -50q8 -27 28 -94q2 -6 37 -143q10 -25 41 -137 l6 -23l6 -10l11 -21l8 -18l8 -21l6 -22l8 -23q4 -27 33 -88q2 -33 18.5 -107.5t16.5 -115.5l4 -20v-13q2 -10 4 -36q8 -59 -6 -148l-23 -145q2 -12 -6 -93q33 -2 66 0l65 5h39zM31 1329z" />
<glyph unicode="2" horiz-adv-x="1114" d="M1024 1024v-2q2 0 2 -2q10 -47 10 -98q0 -49 -6 -97q-18 -41 -31 -200q-10 -43 -45 -127l2 4q0 2 2 6q-14 -117 -52 -196t-83 -169l-8 -24q98 -8 293 -8q23 -8 31 -23l14 -37q-4 -29 -6 -90l-17 -96q-4 -25 -6 -47q-2 -4 -4 -13v-10q-2 -4 -2 -8q-2 -10 -6 -33 q-27 -66 -125 -96q-172 -37 -311 -29l-6 -6l-88 4l-90 4q-135 0 -177 -4q-92 0 -178 -2q-51 -2 -67 37q-4 8 0 16v-2q-2 6 -7 17q-2 8 0 14t5 10l2 4l8 13q4 6 8 10q35 109 51 229q-4 20 -14 60q29 49 102 172q72 115 80 166q88 139 103 370q2 -2 10 -8q-2 78 16 197 q27 172 29 196q-2 6 -17 56l-12 18h-2l2 -12v-10q-2 -4 -2 -9v-18q0 -4 2 -4v-6q-29 -63 -18 -133q8 -53 18 -76q-8 -37 -8 -41q-8 -23 -27 -31h-12q-10 0 -33 -6q-8 -4 -22 -4h-144q-61 0 -120 -2l-23 -8q-33 6 -86 43q-8 20 -18 71q-4 23 -10.5 50.5t-6.5 56.5 q0 49 21 158q14 33 31.5 99t31.5 99q66 109 168 144q-2 0 -2 -2h-2q39 14 115 51q41 2 123 19.5t125 19.5q160 4 239 -58q31 -25 64 -61q139 -90 161 -334q6 -66 9 -129l4 -4q0 2 -2 4q6 -14 14 -43zM893 1010q2 -2 8 -6q-4 27 -38 203.5t-128 230.5q-96 86 -186 84 q-164 -2 -342 -70l4 -4q-82 -29 -98 -107q0 2 2 5v2q-2 -8 -33 -129q-2 -4 -14 -99q-10 -76 -11 -135q0 -6 4 -18h13q8 -2 12 -2q53 0 143 6q25 4 50 0q8 35 11 103.5t15 103.5v10q12 43 21 65q14 37 41 56q29 8 84 22q66 -12 102.5 -70.5t32.5 -127.5q10 -49 10 -99 q0 -94 -33 -196q-6 -102 -39 -308q-29 -59 -106 -247q-18 -31 -51 -93q-14 -29 -37 -53q0 2 2 4v2l-33 -53q-20 -33 -47 -41q-4 -154 -51 -311q80 6 286 20l500 25q33 119 39 211q0 2 -2 2v2q0 -4 2 -6v-4q-41 2 -174 -2q-100 -2 -174 0q-47 -6 -55 51q-2 14 0 26l32 56 q29 55 107 198q2 4 2 11q18 41 31 96l22 94q-2 -2 -2 -4q6 41 33 172q12 49 31 148q10 67 14 176zM72 850q-2 0 -2 -2v0q0 2 2 2zM432 1200z" />
<glyph unicode="3" horiz-adv-x="1161" d="M1274 250h-6q6 -49 10 -96q4 -51 -21 -95l-8 -36q-4 -18 -12 -35l-49 -33q-41 -78 -215 -219q-45 -37 -109 -58q-39 -12 -116 -34h8q-20 -6 -170 -21h-19q-16 -2 -28 0q-53 8 -80 8q-6 -2 -21 -8q-45 14 -80 60q-16 20 -57 84q-152 233 -164 540q-6 29 -14 85.5t-14 84.5 q0 29 28 33h60q72 0 141 8q53 -8 106 -8t105 16l22 -4l15 -8l22 -22l4 -17q35 -57 52 -115l32 -122q6 -25 6 -76l-6 -8q-10 229 -92 374l-20 17l-23 14l-31 8v2q-33 2 -98 19q-14 10 -33 37q-49 106 -82 221q18 51 89 65h-3q10 2 86 23l15 14l2 4q-2 -4 -2 -6l-2 -4 q6 45 8 88q-4 49 -4 150q0 31 -25 51q-6 -14 -26 -86v-76q0 -37 6 -74v-10q-2 -6 -2 -10l-15 -14h-2l-8 -3l4 -2q-6 -8 -20 -20q-20 -4 -47 -4h2q-10 -2 -33 -6q-35 -2 -111 -6q-33 -2 -114 -7q-35 -2 -119 11q-27 14 -54.5 29.5t-23.5 43.5q2 6 -2 11q-6 33 -6 67 q0 47 20 158q25 80 43 121q31 70 68 108q90 94 215 133q160 49 279 50q29 0 55 -9q31 4 61 4q66 0 185 -24l-2 6q102 -35 129 -143q6 -27 34 -197q0 2 -2 2v2q12 -47 27 -129v-70q8 -47 8 -96t-16 -96q-10 -70 -58 -115q74 -43 160 -157q63 -82 101 -162l-3 2q2 -10 17 -25 q31 -92 43 -188zM1147 274q2 0 2 -2h2q-6 49 -64 177q-72 156 -129 198q-8 6 -24 19l-25 12l-49 18q-66 33 -80 74v35q121 84 121 209q0 8 -24 239q-12 55 -56 162q-20 80 -141 80h6q-10 0 -31 6q-14 0 -24 6q-8 4 -10 -2q-55 2 -164 11l-8 -3q-37 -6 -195 -38 q-61 -25 -121 -86q-18 -20 -22 -46q-66 -123 -74 -286q0 -4 4 -15h137q16 0 51 7q-2 0 -2 -2h-2q41 10 60 10q10 2 28 8h-2q10 51 33 156l4 -9q27 131 133 152q86 4 129 -80q35 -66 33 -158q0 -29 3 -82t3 -77q0 -27 -2 -54q-33 -90 -100 -104q-47 -10 -82 -21 q10 -43 35 -96q170 -27 252 -184q25 -47 41 -98q8 -49 34 -144q2 -20 7 -63q0 -20 -3 -64l-12 -12q16 -20 17 -45q-25 -154 -134 -158q-59 -2 -90.5 45t-31.5 109q-4 25 -7 51q-2 25 0 49q-6 29 -14 84q-8 14 -43 127l-78 4q-39 2 -80 2q-27 4 -51 0q-27 -4 -51 -12 q0 -23 20 -119q0 -25 9 -43q-6 -127 88 -287q78 -193 182 -182l86 8q74 -6 150 15q57 6 108 28q57 39 148 162q23 20 61 66q16 18 37 65q0 23 6 68q0 8 -2 16t2 17q0 20 2 41q2 18 -6 36zM254 410v-11q-2 -4 -2 -8v10q2 5 2 9zM997 1288z" />
<glyph unicode="4" horiz-adv-x="1228" d="M1364 23v-5q-31 -63 -96 -71v-2q-20 -78 -70 -234q-55 -61 -143 -71q-35 2 -150 -2q-84 -2 -147 0q-16 -2 -31 -3q-53 0 -119 31q-10 6 -12 15q-2 10 0 20q10 47 41 162q23 57 22 86q0 6 5 10v8q-2 6 -2 8q-25 4 -56 2h-55q-27 0 -86 -7t-92 -5q-74 -4 -146 -4h-28 q-53 0 -62 41q8 59 10 119q2 59 -2 119q-4 23 -14 65q-8 27 -27 76q12 115 11 135q-2 27 -19 49q2 47 -2 129q-6 94 -6 129q0 72 16 142l-6 -7q12 86 41 185q18 66 68 174q70 154 155 252q39 18 121 49q41 -2 150 -12q35 -4 47 -2q150 16 188 14q33 -2 68 6q72 -6 100 -31 q4 -10 8 -26q-33 -137 -32 -189q0 -27 4 -55q-12 -72 -19 -137q-6 -72 0 -139q12 -129 54 -263q53 -113 110 -245q2 -14 12.5 -41t10.5 -39q0 14 8 -21q2 -14 14 -37q16 -4 25 -4q47 0 88 -37q12 -25 12 -28q27 -117 27 -219v-21q0 -8 4 -18l-2 2q0 -14 4 -27q4 -12 0 -26z M1151 53l2 2q23 10 70 23q4 39 4 74q0 66 -13 127q-6 0 -18 -5h2q-10 -4 -18 -6t-19 0q-33 -2 -74 49q-29 104 -57 197q-16 53 -63 148.5t-64 142.5q-12 35 -35 133l-16 70q-4 16 -4 39q0 16 2 30q-4 39 -4 76q0 86 24 211q2 27 0 57q-4 51 -4 58q-94 -4 -213 2 q-100 4 -215 -6q-29 -35 -67 -107q-29 -51 -62 -111h6q-31 -86 -73 -260l-19 17l-4 4l8 -258q4 -129 29 -258v-15q-2 -8 -6 -26q-2 -6 0 -15v3q0 -4 -2 -13q0 -4 2 -6q43 -162 43 -278q0 -35 -4 -72q12 0 39 -4q37 0 73 6h-2q0 2 -2 2l99 6q20 6 45 6h-2q8 0 16 2t16 -2 q82 8 168 8q37 0 54 -51v-82q0 -10 -7 -43q0 -20 -6 -39q-8 -39 -22 -118q4 0 12 -4h-2q25 -6 47 -7q6 0 14 -4q20 -4 17 -22q-6 -16 -17 -27q150 55 252 68q6 18 43 139v6q-2 4 -2 6q0 20 2 41q0 20 -4 41q0 37 31 45zM768 322q-6 -6 -15.5 -20.5t-15.5 -20.5h11 q-14 -14 -37 -15l-41 4l-11 4h-184q-37 0 -45 37q0 2 -2 2v6q-2 2 -2 5q0 -2 2 -2v-5q-16 10 -49 35q6 59 4 84l-18 252q-6 72 -5 168q2 86 27 166l10 18l17 11l8 2h27l20 -9l8 -4l15 -16l16 -16l2 -4q16 -123 94 -287q23 -49 70 -127l10 -23l10 -20l11 -17l10 -20v-2l2 -6 q35 -104 51 -180zM592 403l12 3q-37 113 -76 192l4 -20l11 -23l4 -6l6 -146h39z" />
<glyph unicode="5" horiz-adv-x="1193" d="M1321 276l-8 9q4 -33 4 -68q0 -168 -72 -276q-121 -180 -284 -228q-25 -16 -74 -30q-61 -18 -78 -27q-152 -33 -188 -33q-27 0 -201 35q-57 43 -60 43q-33 29 -47 55q2 0 4 -2h2q-20 14 -55 51q-33 25 -61 107v4q2 2 2 4q-20 98 -25 246q-4 16 -2 33v32q-20 68 -57 156 q-4 25 4 39q27 33 74 33q0 2 2 4v2q41 -4 80 -2t77 2q96 0 287 -16q16 -10 49 -37q2 -14 15.5 -51t11.5 -58q2 -8 10 -39t12 -55l7 -31l-7 12q4 37 -28 179q-78 203 -166 325v-12l-4 2q8 -33 18 -102v2l-16 -33l-15 -10l-16 -9h-29l-41 5l-6 -7q-141 14 -352 48 q-31 4 -70 38q-100 213 -108 443q-8 229 74 448q25 27 77 74q66 33 121 33q29 0 56 -10l718 32q45 2 72 -6q43 -12 39 -49h-6q-20 -123 -47 -324q-8 -70 -78 -69q-27 4 -51 4q10 0 -156 -12q-16 -2 -31 2q-20 -6 -41 -4q-8 0 -41 6q-12 2 -28 0q-14 -2 -31 -2q-12 0 -35 4 h-4q-23 0 -72 -19q2 -23 9 -69l12 8l-2 -2q29 18 90 47q88 -4 248 -27q70 -27 139 -102q57 -68 115 -135q23 -88 155 -299l66 -152q33 -76 43 -160zM1186 272v-6q-8 68 -66 211q-25 43 -55 133q-61 82 -166 264q-102 135 -207 140q-37 2 -162 -10l-22 -23q-12 -12 -21 -27 l2 2l-28 -36q-20 -23 -39 -27q-66 -4 -86 70l-8 28l22 -8l8 -2q-41 6 -41 45q0 12 11 25l-6 4l-7 159q33 66 74 78l383 8q18 6 53 11q16 6 45 6q18 86 50 174l-654 6q-41 -4 -104 -10q-55 -8 -99 -33q-41 -152 -34 -313q0 -25 26.5 -170.5t30.5 -149.5l-2 4q10 -23 22 -57 q6 -14 17 -47q2 -8 12 -14q74 -8 221 -39l13 2h51l-6 18q-8 23 -8 43q0 53 51 92q33 25 57 31q55 -6 115 -72q45 -51 86 -94q143 -229 172 -403q8 -53 0 -148q0 -72 -27 -125q-35 -66 -102 -53q-94 -16 -125 123q-8 41 -10 61q8 63 -54 176l-286 9q10 -23 24 -144 q0 -37 6 -90l11 -90q4 -43 100 -139q41 -41 78 -60q68 -51 170 -51q39 0 100 10q-2 0 -2 -2h-4q25 8 76 21q14 4 30 0q137 39 246 190v-14q76 109 76 236q0 38 -8 77zM328 991z" />
<glyph unicode="6" horiz-adv-x="1210" d="M1315 244q-18 193 -156 411l-151 191q-90 100 -187 151l-8 -16l-16 4l-11 -2l-20 -2v-4l2 -21l-4 19l-12 18q-8 2 -23 8q-47 -2 -139 -8q-63 -29 -115 -55l-4 41q-2 18 -8 37q-2 37 -4 114q-2 61 22 111l15 -45q2 -8 6 -20q0 -27 24 -125v-7l15 -18l20 -6l10 -6l17 -10 l20 -3q25 -2 62 3q49 6 61 6l109 4h41q18 -2 39 2q12 0 38 -4q8 -4 17 -2h29q37 -8 61.5 19.5t17.5 64.5q-4 70 -20 209q-39 119 -76 198q-31 63 -127 90q-72 51 -174 47q-39 10 -78 7l-78 -9q-20 -6 -61 -16q-102 -10 -246 -68q-92 -37 -157 -125q-90 -164 -119 -264 q-6 -37 -6 -73q0 -27 4 -80.5t4 -79.5v4q14 -90 35 -168q4 -14 53 -162q18 -59 69 -215q20 -63 64 -215q6 -31 29 -184q16 -109 49 -178q82 -174 327 -174q27 0 56 4q14 -10 33 -11q12 0 33.5 6.5t33.5 6.5h-2q51 8 150 39q25 12 125 53q8 4 112.5 68.5t145.5 117.5 q55 70 61 172q4 80 -10 164v-6q2 -6 2 -8zM1190 229q4 -31 -2 -102q-4 -55 -4 -100q-16 -18 -47 -56h2q-72 -121 -240 -161q-125 -55 -248 -62q-258 25 -291 180q-74 94 -94 320l-12 110q-20 90 -148 383q0 4 -26 154q-18 104 -14 154q4 63 12 106q12 66 26 105 q57 141 162 182q78 55 223 80q-2 -2 -2 -4l-2 -2q43 2 127 10q90 -16 131 -37q49 -16 123 -76q72 -133 72 -211v-61q-4 0 -10 2h-80q-16 0 -33 -2l-33 -4q-20 2 -57 -2q-45 -4 -59 -5h-21q0 96 -63 187q-27 37 -70 37q-55 8 -103.5 -35t-56.5 -100q-8 -20 -8 -52 q-2 -14 0 -47q2 -29 2 -47q8 -92 57 -272q29 -27 64 -33q41 10 56.5 36.5t31.5 33.5q45 45 145 39q129 -6 244 -136q57 -78 176 -231l45 -135q25 -76 29 -139q-2 -2 -2 -5zM881 274q-2 63 -56 199q-35 53 -67 107q-78 104 -168 116q-55 -16 -101 -88v-6l3 -20 q80 -209 79 -404q0 -33 -2 -67q27 -27 27 -70v-41q0 -18 -2 -35q18 -33 65 -43q37 -18 68 -18q29 0 84 33v-3q88 78 74 242q-4 43 -11 88q2 4 3.5 5t3.5 5zM756 252q6 -88 -19 -223h-10l-6 30v17q0 10 -2 16q-4 176 -37 289q0 14 -29 96q-14 41 -14 78q6 -6 63 -117 q18 -35 35 -94q23 -80 29 -98q-4 2 -5 3t-5 3zM1186 43l-4 -4zM723 31v-2h-2zM1180 37q2 0 2 2q0 -2 -2 -2z" />
<glyph unicode="7" horiz-adv-x="974" d="M971 1565q-14 -66 -84 -293q-86 -274 -76 -443q6 -119 31 -274q12 -74 16 -135q0 -10 4 -191q2 -98 -16 -192q-29 -57 -68 -170t-63 -164q-20 -27 -49 -33q-8 -4 -23 -14q2 0 2 2h2q-53 -29 -80 -25q-98 2 -192 3.5t-193 3.5q-27 8 -26 36q0 10 2 21v10q2 8 2 12 q115 184 151 287q29 150 39 256q14 45 21 80l8 8q4 4 10 8q0 164 -35 334q-16 76 -16 174q-2 139 2 172l2 21l2 12l4 21l8 18l4 4l-360 8q-18 -2 -29.5 14.5t-7.5 32.5q0 6 4 21q0 8 -4 27q10 33 6 71l-4 74q10 53 23 160q6 10 16 30q37 27 74 33q98 16 354 64q74 -2 225 -4 l224 -7q29 2 53 -15t28.5 -30.5t8.5 -27.5zM770 1343l-6 -6l33 86q16 43 30 86q-23 -2 -61 7q-45 8 -63.5 8t-38.5 8q-238 0 -433 -39q-61 -12 -125 -20q-4 -25 -14 -74q0 -25 -4 -74q4 -20 4 -41q0 -20 -6 -41q113 8 174 2l21 -2q55 2 165 10l21 -6q16 -33 16 -41 q-16 -61 -10 -116q0 -61 -10 -164q6 -82 22 -246q-4 -20 0 -49q6 -41 7 -51q0 -27 4 -78q6 -4 16 -13q-23 -264 -53 -395q-8 -33 -25 -74q2 4 4 13q-41 -147 -100 -260l-12 -19q6 2 20 8q66 -4 129 -4q61 6 146 6q10 27 30 82l31 82q18 84 53 254v21q0 12 -4 22q10 31 10 54 q2 27 0 55q-2 55 -2 53q0 29 6 55q-55 233 -55 389q0 111 29 220l4 10q-8 151 47 282z" />
<glyph unicode="8" horiz-adv-x="1171" d="M1315 201h-4q6 -35 6 -72q0 -123 -64 -195q2 4 9 15q-104 -156 -318 -240h-8q-2 0 -4 -2h-4q-31 -4 -90 -18q-43 -14 -146 -56q-68 -4 -135 -6l-135 -4q-45 -2 -78 21l-70 45q-72 86 -71 176q-63 147 -68 385q0 45 -12 180q-2 29 -6 72q-6 20 -6 41v-2q-2 20 -5 59 q-4 35 0 59q-2 12 -2 25q0 29 21 68q4 20 12 34q-2 2 -10 9l2 -2q-25 16 -59 34q-45 61 -86 127q-45 115 -39 152q8 51 41 168l34 86q25 47 52 76q43 55 108 90q160 68 170 69q98 39 174 58l17 -4q8 -2 12 -11q25 4 49 4q10 0 39 -6q41 0 121 -2q68 -2 110 -35 q57 -27 99 -94q14 -25 57 -127v2q4 -25 19 -69l12 -111q6 -55 18 -108q6 -66 -18 -179l-15 -67q-12 -35 -38 -60q27 -27 96 -69q207 -305 213 -516zM1178 229q2 -2 6 -8q-10 70 -47 205q-20 39 -64 119q-25 37 -82 104l2 -2q-33 27 -88 64q-20 12 -80 45q-27 18 -26 43 q0 18 41 53q27 8 75 35q8 20 23 63q6 27 8 66q2 31 -6 63q2 23 -18 162q-35 98 -43 119q-29 70 -64 108q-66 37 -194 48h-9q-8 -2 -10 -3h-16q-8 0 -25.5 -2t-25.5 -2h-29q-6 -2 -8 -2q-10 0 -26.5 6.5t-23 7.5t-6.5 5q-162 -35 -270 -144q-76 -102 -92 -264q-4 -37 12 -98 l4 4q35 -115 150 -170q29 -14 39 -51q2 -16 -18.5 -83t-18.5 -77q-8 -43 -2 -96q8 -78 8 -96v-31q-2 -8 -2 -17q0 -6 3 -20t3 -23q23 -100 23 -254q14 -68 28 -163q6 -39 23 -64q6 -31 28 -45q33 -33 109 -80q53 0 100 4q66 6 98.5 4t112.5 17h-2q0 -2 -2 -2q12 2 35 8 l29 12q14 6 30 2l76 29q238 90 238 330q0 36 -6 71zM895 293q0 -27 -4 -53q2 -23 6 -66q0 -27 -4 -68q-23 -94 -72 -145q-29 -43 -100 -53q-45 6 -66 14q-37 14 -43 45q-14 63 -45 273q-10 61 -24 114q-14 131 -15 148q-4 100 52 133l36 4q16 0 35 -4q68 4 148 -76 q96 -119 96 -266zM645 1067h12q2 -53 -6 -162q-18 -100 -98 -102q-68 -2 -118 40t-62.5 108.5t-14.5 117.5q-2 43 0 123q0 27 31 90l-8 -2q25 37 35 49q33 37 94 37h47q61 -18 78 -74l4 2q8 -114 6 -227zM735 428h-2q-2 23 -31 61v-2q-10 10 -26 31q-16 -6 -17 -20 q-2 -10 3 -29q2 -29 24 -100q10 -106 19 -162q12 -98 30 -158q10 25 33 76q4 37 4 74q0 108 -37 229zM518 1085l-2 15q-4 31 -16 141l4 2l-6 -4q-10 -33 -6 -65q4 -33 6 -68q-8 -80 22 -148v64q0 49 -2 63z" />
<glyph unicode="9" horiz-adv-x="1163" d="M1073 1049l2 -2v-50q0 -23 4 -47q0 2 -2 2v2q2 -18 23 -100q39 -150 90 -264q0 -4 5 -11.5t5 -9.5l-4 -8q35 -20 55 -119q4 -20 11 -59q2 -25 -2 -57q12 -74 6 -150q-20 -248 -207 -385q-276 -147 -430 -147q-39 0 -78 6q-31 -4 -62 -4q-119 0 -208 61q-70 80 -117 313h2 q0 33 -21 115q-6 25 -6 49q0 33 54 68q8 2 14 2q16 0 33 -10q4 0 6 2h4q45 -2 123 6q88 8 125 8q35 0 71 -4l2 2h-16q-8 -2 -14 4q-18 -2 -37 -2q-82 0 -172 41q-145 102 -271 336l-67 127q-29 43 -53 194l4 154q2 76 22 150l-2 -2q14 100 150 225q61 55 266 117 q135 41 188 36q31 -2 49 -8q29 -4 56 -4q29 -8 57 -6q25 2 55 6q162 -23 238 -227q22 -117 49 -350zM1110 418q-12 55 -49 155l-57 156q-63 178 -64 318q0 35 -14.5 98t-16.5 92t-43 156q-57 78 -133 102q-14 0 -59 -2q-14 0 -40 2t-38 2h-16q-6 0 -21 4l-20 6q-20 6 -33 15 q-49 -12 -144 -45l7 -7q-84 -14 -168 -57v2q-25 -23 -64 -72q-14 -23 -43 -98q4 -43 -2 -102l-10 -103q-4 -74 -4 -77q2 -45 0 -80q33 -135 78 -224q16 -27 98 -118q59 -68 127 -123q25 -14 78 -31h59q16 -2 47 2t43 4q61 41 117 96h29l22 -6l21 -16q39 -53 63 -217 q4 -23 4 -27q4 -35 17 -102q-8 -37 -15 -55q-12 -31 -30 -50q-45 -72 -127 -79q-61 6 -99 110l-32 90q-12 0 -58 -4q-35 -2 -55 0q-82 -8 -160 -8h-29v-12q8 -18 21 -58q25 -188 111 -221q78 -72 174 -72q20 0 41 5q111 4 165 26l82 17q43 10 72 28q57 27 84 78q0 -2 -2 -2 v-2q12 16 31 55q6 6 43 68q12 20 39 63q12 78 8 162q-2 56 -35 158zM651 979h-4q12 -68 49 -199q0 -18 2 -53t2 -53q0 -20 -4 -62q-18 -29 -49 -28q-23 -8 -22 -9q-35 6 -88 31q-63 43 -93 74q-72 152 -92 313q-10 78 10 185q49 162 146 180q115 -10 115 -101v11 q5 -27 28 -289zM518 987v-2q-4 68 -20 205l-15 -19l-4 -2q4 -37 4 -73v-72l29 -123q18 -74 31 -123l8 -20l10 -21q-31 123 -43 250zM649 276h10q37 -4 43 -36l15 -99q4 -29 20 -45q0 141 -14 215q-29 -10 -74 -35zM651 586l-4 -2z" />
<glyph unicode="A" horiz-adv-x="1294" d="M1360 -283q0 -2 -2 -2v-2q-31 -78 -103 -73q-20 4 -61 14q-16 2 -35 10q-51 -6 -153.5 -13t-153.5 -13q-2 -2 -4 -3v0q-35 -16 -53 -12q-51 12 -52 64q0 25 19 43q27 100 26 125l3 2q6 35 6 67q0 20 -2 39h-15v-6q-2 -4 -2 -6q-4 -10 -12 -39l-8 -37q-10 -23 -25 -72 q-8 -20 -22 -41q-4 -6 -9 -26q-2 -2 -2 -6t2 -6q-10 -31 -28 -46q-63 -47 -107 -47h-18q-139 0 -205 9q-41 6 -68 0q-4 0 -10 -2h-8q-20 2 -72 8h-22q-6 0 -18.5 2t-18.5 2h-29q-6 2 -10 2q-20 25 -20 53q0 23 32 74l-2 -2q4 4 33 55l2 -2q18 47 57 139q6 23 11 60 q23 63 51 192q-14 125 -25 176q-18 94 -51 168q-84 268 -82 381q0 59 12 88q4 102 31 230q0 -2 25 92q8 37 28 98q37 78 64 113q43 59 98 80q20 0 37 -9v2q4 -2 23 -6q12 -4 12 -14q184 0 555 6q27 -10 25 -37t0 -49q-2 -49 -7 -149q0 -16 -4 -66q-4 -41 -4 -65 q0 -66 8 -132h-8q33 -152 176 -403l111 -195q145 -256 145 -469q0 -82 -22 -167v-15l-17 -82q-4 -10 -6 -20l-4 -21q-4 -12 -12 -39zM1065 -221q2 2 2 4l2 2q104 10 158 8q4 0 10 -2h10q10 25 33 72q25 94 25 188q0 190 -80 361q-16 37 -135 213q-90 137 -119 221 q-49 88 -80 180l-41 123q0 113 22 336q-43 0 -65 8q-10 2 -23 2h-20q-2 -2 -6 -7t-6 -7q-137 2 -412 10q-27 -102 -88 -303q-20 -59 -29 -189q-6 -104 49 -297q14 -47 52 -172q35 -111 41 -188q16 -242 -119 -563l110 -6q35 4 82 0q27 -2 80 -2q16 0 47 -7q70 147 99 252 q4 29 28.5 49.5t52.5 20.5h7l8 2l20 4l21 4l-2 -2q27 2 57 17q70 -10 78 -127l4 -54q-4 -55 -31 -166h6q12 0 25 3l25 4q49 0 102 8zM909 381q0 2 -2 2v2q4 -10 4 -18q0 -23 -20.5 -42.5t-44.5 -21.5q-25 4 -47 4l-23 2l-4 2h-67q-37 10 -43 35q-16 45 -25 88 q-35 90 -105 273q-57 156 -57 284q0 35 4 72q6 29 37 33h27q10 0 30 -11q14 -14 68 -139q27 -66 37 -96q8 -16 22 -53q4 -39 43 -105q31 -49 107 -182q0 -2 37 -76q8 -18 22 -53zM696 473q8 2 17 2q10 0 20 -4q-14 37 -37 76l4 -37q0 -19 -4 -37z" />
<glyph unicode="B" horiz-adv-x="1204" d="M1350 172q-2 2 -3 2t-4 2q4 -29 5 -57q0 -156 -113 -281q-51 -84 -127 -121q-49 -23 -174 -49q-29 -6 -90 -14l8 8q-12 0 -61 -12q-39 -10 -64 -6q-59 0 -94 6q-29 0 -86 6q-39 -8 -113 -8q-45 -6 -133 -17q-10 0 -33.5 5.5t-36.5 3.5q-31 4 -92 16h-14q-4 -2 -12 -4 q-25 20 -27 49q-2 31 12 72l25 67q6 68 31 178q8 74 16 162q-23 111 -45 221q-29 119 -72 220q-39 90 -82 210q-6 33 -28 58q-20 102 -21 192q-2 111 17 195q12 55 79 258h2q14 33 111 76q27 12 57 12q29 0 58 -4q33 8 65 10l133 -4q25 0 71 5t69 5q74 0 200 -47 q102 0 201 -88q49 -70 53 -190v2q2 0 2 2q4 -25 4 -47q2 -10 3 -23q0 -12 -5 -22q29 -53 39 -181q2 -20 9 -73q2 -31 -3 -76q4 -80 -75 -139q90 -37 186 -160q117 -150 117 -232l6 -24q2 -8 8 -31q0 10 14 -90q3 -14 7 -43zM1223 174q-2 16 -11 39l-12 61q-2 20 -12 72 q-14 68 -74 189q-31 43 -100 88l-68 30q-6 2 -94 37q-23 18 -33 35l-8 25q-4 23 6 45q111 25 127 82q16 25 19 75l2 39q2 23 6 37q-12 82 -76 299q-35 119 -205 146q-39 20 -147 20h-80q-6 0 -20.5 2t-20.5 2q-23 0 -66 4l4 2q-16 2 -86 4q-33 0 -108 -10v0h-2 q-16 -6 -33 -6q-10 0 -20 2q-53 -135 -58 -281q-4 -195 62 -417q43 -147 147 -398q4 -37 14 -110q0 -35 9 -49q2 -37 -13 -99q4 -41 4 -84q0 -66 -10 -133q-12 -39 -28 -119q-2 -18 14 -29.5t35 -9.5q6 0 12 -2h10q18 0 68 2q37 2 78 7q33 2 37 2h14q8 0 23.5 2t23.5 2h82 q39 0 76 -6h8q4 2 6 2q51 -6 78 -6q29 0 76 10l71 16l68 12h8q6 2 8 2q39 14 58 23q29 16 47 39q18 14 35 57q2 -4 10 -14q35 125 39 262zM905 252q4 -2 13 -8q-10 -51 -23 -105q-14 -59 -37 -98q-55 -94 -184 -109q-35 2 -68 54v16q0 63 4 49q-4 14 -2 31l-2 20v41 q2 -6 6 -20q0 201 -90 422q-2 25 14.5 45t41.5 14q18 2 36 2q125 0 211 -119q76 -104 80 -235zM672 1040v4q2 -61 10 -186l-4 -2q6 -12 6 -25q0 -39 -47 -67q-45 -20 -84 -27h-59l-31 13l-2 2q-41 33 -37 65q-2 12 -6 39q-8 18 -19 62l-8 32q-4 16 -14 31q4 23 4 47 q0 27 -7 78t-7 76q-2 14 0 28q4 35 -2 62q2 39 28.5 68.5t65.5 33.5l57 -16q29 -8 59 -15q107 -106 97 -303zM545 1055l-2 2q-2 49 -31 121l-8 20q-2 -41 -2 -78q0 -139 28 -248q2 2 4.5 3.5t4.5 3.5q14 20 10 43q0 23 -4 67q-4 37 0 66zM768 264h-2q-23 141 -70 197 q43 -145 43 -295q0 -35 -2 -70q33 33 35 80v45q-2 23 -4 43z" />
<glyph unicode="C" d="M1141 1010q-4 -2 -13 -4q16 -51 58 -271q-2 -10 -8 -26q-33 -27 -54 -25q-4 -2 -14 -6q-29 4 -57 4h-92q-25 0 -73 -2t-73 -2l-12 -4q-125 -6 -156 63l-8 19l-2 12l10 12q-45 125 -59 246q-14 53 -47 158h-11l-18 -31l-2 6q-4 -20 -4 -41q-2 -20 12 -37q-4 -90 23 -239 l8 -19l8 -20l2 -6q6 -12 10 -27q16 -61 72 -188l12 -41l9 -19v-20l-7 -13l25 -24l4 -6l2 -8l6 -19q14 -41 47 -221q-2 -39 0 -78t11 -78q6 16 12 45q31 41 31 105q0 20 -5 41v8l3 6q-4 37 -29 125q-16 59 -14 72l4 18l12 4q37 18 119 23q14 0 41 2q98 0 297 -6 q25 -10 41 -25q31 -55 41 -104q18 -45 18 -86q0 -47 -47 -260q-90 -195 -275 -295l-186 -58q-92 -29 -192 -39h-60q-18 0 -39 9h-2q-4 2 -6 2q-18 10 -47 10q-80 8 -158 55q-16 10 -39 41h15q8 2 12 2q-68 31 -104 121q-20 49 -43 160q4 31 4 61q0 55 -9 129l-14 129 q-4 41 -22 123q-35 92 -70 178q-4 6 -4 17q-43 119 -66 186q-35 111 -47 193q16 205 133 374q-12 6 -20 6q51 53 117 89l131 69q27 8 133 37q88 25 127 25h28q12 0 37 4q61 -16 62 -17q0 2 -2 2v2q27 -6 82 -20q53 0 116 -33q6 -2 105 -63q94 -94 127 -195q14 -90 22 -158z M997 1124l7 6q-8 74 -37 144q-20 41 -72 96q-59 66 -80.5 88.5t-99.5 40.5q-41 -4 -103 12h-14q-6 2 -10 2q-14 2 -37 15q-182 -16 -281 -68q-41 -20 -96 -57q-82 -115 -78 -264q-12 -66 -8 -111q10 -92 33 -332q86 -143 135 -342q2 -8 6 -18q4 -29 14 -84q8 -109 25 -203 q20 -115 55 -182q25 -29 82 -78q80 -10 238 -35q100 10 190 53q10 10 97 46q113 66 190 198q31 92 31 185q0 45 -8 92q-2 12 -19 28l-258 13q6 -25 10 -49.5t11 -49.5v-20q0 -6 2 -20.5t2 -20.5v-19q4 -27 -29 -131q-68 -135 -164 -129q-10 -2 -18 -2q-66 0 -82 70h-2 q-8 20 -23 94q2 27 6 58q4 33 0 57q0 37 -16 94q-8 37 -31 109q-4 66 -39 127q-2 12 -13 42.5t-11 47.5q0 12 4 24q-117 236 -133 451q-4 66 35 125q35 88 108 88q12 0 27 -4h37q86 0 86 -58q2 -25 26 -120q18 -74 15 -121q10 -94 47 -197q39 0 118 4l76 -2q39 -2 72 12 q-23 170 -23 269v26z" />
<glyph unicode="D" horiz-adv-x="1243" d="M1313 510v4q-2 2 -2 4q47 -168 63 -297q2 -16 -14 -24q14 -14 26 -33q-14 -121 -55 -211q2 4 3 5t3 5q-80 -135 -194 -213q-229 -78 -398 -94q-68 -6 -383 -27q-43 6 -126 19h-39q-12 0 -35 -3t-35 -3h-23q-23 0 -20 18q2 18 8 33q4 41 29.5 117.5t30.5 117.5q2 16 6 39 v4q-4 -16 -4 -26q14 92 14 180q0 164 -51 317q-51 115 -144 351q-39 113 -47 213l19 196q23 205 75 330q45 59 144 84q152 0 307 8l53 -6q16 -4 35 -6q10 -2 19 -2q10 0 20 5t37 21q205 -23 340 -114l-4 6q25 -23 45 -64q14 -37 31 -71q16 -66 30 -187q16 -133 27.5 -190.5 t28.5 -126.5q29 -66 84 -197q33 -59 96 -182zM1233 340v8q-23 57 -35 105q-10 23 -27 71q-2 6 -6 17q-45 84 -131 254q-68 139 -67 274q-8 57 -25 172q-16 94 -70 156v-2q-29 31 -114 59q0 6 -4 16q-53 -2 -109 -2q-55 0 -108 17q-188 20 -375 16v10q2 4 2 9q8 16 26 49 q-119 -229 -129 -492q-6 -127 19 -256q18 -106 104 -321q84 -207 101 -324q10 -70 10 -143q0 -139 -39 -273h150q47 8 96 4l98 -8q63 18 166 31l166 20q127 20 252 140l-2 -2q0 -2 -2 -4q27 33 51 168q10 57 6 116q-4 58 -4 115zM809 649q106 -227 106 -459q0 -33 -2 -67 q-6 -90 -90 -133q-106 -55 -143 -53q-49 2 -45 34q2 16 10 29q4 39 4 76q0 180 -90 381q-55 117 -192 424q-10 68 -11 137q0 143 43 305l13 20l16 13q14 8 31 12q16 4 33 0q59 0 92 -49q2 -6 10 -16q43 -55 57 -117q-2 -23 0 -49q4 -45 4 -52q0 -18 -4 -36q31 -137 92 -263 l19 -61q14 -27 47 -76zM700 561q-70 137 -100 268q-29 63 -65 181q-43 131 -64 180q0 -244 111 -481q14 -20 59 -107q119 -221 127 -483q6 16 8 33q0 14 -10 28q0 86 -25 217q-6 23 -18 78l-4 21l-2 20l-4 21zM645 -51q0 -2 2 -2zM651 -55v0q-2 2 -4 2q2 0 4 -2z" />
<glyph unicode="E" horiz-adv-x="954" d="M877 -342l-695 -14q-8 0 -108 39q-10 10 -6 20q2 10 10 18q25 139 37 275q10 133 -25 276q-10 117 -80 308q-76 209 -94 303q-35 190 -31 342q4 156 45 309q20 29 66 43q14 -6 18 -10q2 -6 0 -11q-8 -4 -22 -16q49 53 102 53q10 0 21 -2q78 39 164 41q84 2 167 -8h11 q4 2 8 2q27 -6 76 -6q18 -4 39 -2h51q10 2 16 2h19q20 2 59 6h-4q53 8 106 12q37 -4 58 -32q4 -29 -13 -54q-55 -213 -55 -383q-2 -12 -12 -26q-25 -37 -57 -31q-12 2 -29 18q-23 -16 -27 -14h-22q-10 0 -21 2h-14q-10 -2 -14 -2q-25 -6 -46 -6h-18q6 -51 10 -109l8 -108h17 q8 -2 14 -2q16 4 33 4h35q29 4 57 4h10q4 -2 9 -2q16 4 31.5 -7t27.5 -23.5t33 -39.5q10 -61 43 -165q37 -115 47 -164q6 -14 4 -27q-8 -51 -57 -45q-18 0 -56 6q-10 4 -43 10q-20 -4 -41 -4h-41l9 -37q18 -82 18 -112l12 -117q0 -27 -6 -51q39 10 80 10q-20 0 172 -18 q43 -53 33 -129q-18 -145 -74 -297q-18 -35 -45 -35q-10 0 -20 6zM246 -219l4 2q2 0 6 2l584 6q33 123 41 195q-55 6 -166 24l-13 -6q-12 -6 -38 -8q-39 -2 -54 72q8 223 -57 436q-8 59 57 69q61 -6 160 -6h12v2l-4 13q-4 16 -12 47v10q-10 18 -23.5 59t-23.5 60 q-12 8 -74 14h-39l-12 -2l-2 -2q-39 -23 -43 -23q-82 4 -96 78l-4 21l2 14q0 6 -5 14q-16 76 -22 265q-10 55 63 94q27 0 99 10q61 10 100 6q16 119 29 238q-82 2 -248 2t-248 2q-133 -27 -203 -68q-25 -102 -24 -200q0 -166 53 -344q47 -145 164 -527q33 -115 41 -268 q6 -135 -39 -279v-16q4 0 16.5 -3t18.5 -3zM594 768z" />
<glyph unicode="F" horiz-adv-x="940" d="M877 1331q2 0 4 2h2q-12 -47 -19 -76l-16 -77q-8 -27 -39 -37q-78 -8 -236 -29q-4 -31 -4 -59q0 -35 6 -68v-14q-2 -6 3 -15v-12q-2 -8 2 -14v-21q0 -10 -2 -20q123 -25 196 -23q29 -4 39 -32l29 -84l37 -74q35 -96 55 -186q2 -12 -6 -25q-8 -33 -31 -47l-170 12 q29 -133 29 -268q0 -207 -68 -424q-12 -41 -88 -70q-51 -14 -57 -14q-12 -2 -35 -8q-41 16 -86 12q-27 -2 -92 -8q-51 -6 -97 0q-18 2 -55 -2q-43 -4 -55 -4q-35 8 -49 49l-6 18q6 14 12 17q4 2 8 0q53 168 53 356q0 303 -143 639q-14 33 -16 76l-5 78q-25 96 -24 145 q0 20 2 41v20q0 8 -6 25l8 115q8 102 41 237q10 29 41 105q14 37 74 55q299 2 694 10q70 2 106 -39q-24 -69 -36 -262zM770 1470q14 16 33 29q-168 2 -553 10q-6 0 -23 -2q-6 -2 -10 -2q-23 -6 -45 -10q-23 -4 -45 2q-43 -150 -51 -311q-8 -162 16 -314q170 -520 162 -817 q-4 -139 -49 -276h61q10 -2 17 -2h18q4 0 10 -2h21q4 0 6 -2h4q10 2 23 2h22q10 2 21 2q18 0 36 -6q29 6 138 36q33 143 32 281q2 154 -39 348q-8 39 -4 70l4 -8l3 20l8 19q23 12 39 16q14 2 28 -2q29 -2 70 0q53 4 70 2q-20 61 -70 172q-12 16 -23 35h-38q-18 0 -37 6 q-70 -18 -78 -16q-41 -4 -74 45v-2q-6 35 -20 106q2 6 0 29q0 16 12 22q-18 86 -23 197l-2 -2v6q-8 18 -12 41q10 43 68 51q37 4 135 14q25 -2 49 3q25 4 49 0l6 36q4 10 15 84q0 70 20 90zM926 459q2 2 2 4t2 4l-2 -2v-4z" />
<glyph unicode="G" horiz-adv-x="1210" d="M1315 -70q-10 -31 -17 -49q-10 -86 -30 -129l-62 -53l-41 -29q-18 -12 -45 -18q-117 -25 -317 -29q-45 0 -45 58q0 12 2 24v10l-53 -20q-25 -10 -56 -14q-119 -31 -162 -25q-125 -8 -198 92q-49 25 -82 109l-27 69q-8 23 -24 70q-43 365 -111 555q-31 86 -72 207 q-35 115 -36 215q-10 41 -7 78q4 27 11 77v-8q16 66 22 88q14 47 37 82q-2 -2 -2 -4l-2 -2q37 68 51 109q45 37 131 116q45 29 139 74l-2 -2q29 8 107 23q14 2 51 8q25 4 51 10q158 14 160 14q100 10 205 -80l57 -49q43 -49 70 -133q20 -74 41 -147q33 -39 37 -113 q6 -115 8 -123v-18q2 -18 6 -39q0 -6 2 -19v-12q2 -12 8 -33q0 -27 -14 -36q-63 -33 -84 -29q-49 -2 -98 -2q-129 0 -328 20q-12 2 -43 19q-41 178 -35 293q0 12 -6 45q-20 -55 -27 -125q16 -166 84 -338q16 8 23 8l8 -4l438 24q66 -4 115 -49q49 -106 145 -319 q33 -115 33 -223q0 -107 -16 -224zM1192 -57v6l8 47q0 -18 10 67q2 20 -8 66q0 18 -2 41q-4 20 12 35q-20 115 -57 219q-31 86 -70 166l2 -2q-8 12 -20 28h-39q-14 -2 -39.5 3.5t-36.5 5.5q-12 0 -36.5 -4.5t-36.5 -4.5q-10 0 -30 3.5t-30 3.5q-20 0 -62 -7.5t-63 -7.5 q10 -23 51 -137h9q4 2 6 2q-2 0 -2 -2h-2q4 2 12 4q80 -16 115 -123q6 -18 16 -55q2 -51 6 -152q0 -76 -37 -147l2 2q-37 -49 -170 -98q-59 10 -84 61q-33 68 -32 223q0 82 -17 207q-27 102 -71 211q-16 47 -70 168q-6 18 -20 55q-18 55 -19 78q-29 80 -29 164q10 90 25 137 q78 109 147 115q66 6 95 -74q14 -66 18 -108q4 -45 0 -101q-4 -51 4 -100q10 -2 31 -8q53 -2 162 -10q31 8 71 8l74 8v6q-2 4 -2 6q-4 18 -12 58l-4 36q-2 14 -6 35q4 76 -68 215q-68 133 -131 191l-2 -2q-55 39 -98 37q-18 0 -48 -7q-39 10 -77 11q-96 0 -240 -78 q-133 -49 -176 -227q-45 -100 -53 -220q-8 -117 38 -223q-8 -4 -22 -14q20 -49 98 -197q63 -121 86 -201q41 -225 35 -315q29 -119 33 -131q31 -84 84 -90q63 -33 104 -33q18 0 37 6q31 -4 62 -4q82 0 145 33q68 78 139 74q29 -39 23 -76q-8 -14 -10 -27l-9 -16 q-4 -8 -6 -21q-2 -4 -12 -14q43 6 128 19.5t128 19.5q12 52 43 156zM764 342q-23 -2 -66 -6q14 -72 19 -146q2 -25 0 -40q0 -14 -2 -44q-2 -49 14 -75q51 10 55 94q0 12 2 37q0 16 -6 84q-6 39 -12 80q-2 10 0 18h-4q-2 -2 -4 -2h4z" />
<glyph unicode="H" d="M1276 522q63 -174 67 -350q4 -178 -51 -354l-18 -31q-20 -33 -51 -90q-55 -45 -105 -49q-16 4 -18 18t0 29q-31 -29 -142 -53h-38q-43 -4 -127 -4q-51 6 -91 2q-8 0 -22 12q-8 23 -4 45q2 25 33 113q4 16 -13 16q49 145 58 289q8 143 -27 291h-27v-3q2 -8 7 -20 q6 -20 18 -64l4 -16q16 -172 12 -248q-16 -80 -59 -235q-12 -20 -18 -62q-8 -51 -13 -61q-31 -25 -43 -33q-29 -14 -51 -16q-6 0 -27 6q-2 -2 -4 -2t-4 -2t-47 -17l-190 -6q-25 4 -49 4h-19q-6 0 -16 2q-45 20 -101 33q-27 12 -22 39q0 16 14 27q88 209 76 442 q-10 223 -111 432q-113 236 -125 473q-6 113 15 244q23 152 67 231q43 31 107 80l461 -12q20 0 20 -18q-2 -23 -12 -33q-84 -219 -84 -432q0 -88 14 -174q12 0 39 -4q-2 -12 -6 -39q-41 121 -41 247q0 209 100 394q45 35 107 53q23 -2 62.5 2t56.5 4q18 0 36 -2q47 2 113 0 q84 -4 111 -2q-2 -2 -4 -2l-2 -2q33 16 53 16h39q31 -6 22 -28l8 -25q-92 -211 -92 -451q0 -313 154 -604zM1145 524q-154 295 -154 602q0 184 60 355h-4q-2 -2 -7 -2h-4q-16 2 -51 8q-4 0 -14 4h-27l-90 -8q-63 4 -139 -15q-18 -45 -23 -90l-8 -94q-6 -18 -6 -37v-33 q-6 -53 -6 -88q2 -123 33 -247v-21l-3 -8q-16 -20 -49 -29q-18 0 -35 6l-22 9l-12 4l-13 -2h2l-22 -4h-16l-5 -3l-20 -4l-12 -2q-63 -4 -88 64v-6l4 -2q-8 55 -25 118q-10 41 -8 66q-4 37 6 72q-6 123 53 348h-129q-72 0 -100 4q-45 6 -100 2q-45 -141 -54 -289 q-12 -229 105 -532q131 -340 131 -549q0 -92 -27 -187l-6 7q8 -57 -37 -160q100 -27 123 -25q16 2 92 13q57 8 92 6q41 59 54 149q0 8 8 160q23 70 20 141q-2 72 -22 142q0 2 -2 2v2l-4 12l-6 18v-4q-2 6 -7 17l-2 10q-2 4 -4 16q-2 8 0 17v-8q0 12 6.5 37.5t6.5 37.5 q106 23 118 23q20 0 39 -4q55 0 107 -58q14 -47 35 -147q2 -29 8 -66q20 -135 6 -258q-14 -125 -60 -252q29 0 84 -4q98 4 228 27q8 27 10 22q16 49 45 150q-2 18 8 61q-2 27 45 101q-29 0 -28 26q0 8 2 21q-4 53 -37 174q-33 113 -33 172q-6 6 -20 18l-5 2q5 -4 15 -8z M1204 1591q0 4 2 6v0q-2 -2 -2 -6z" />
<glyph unicode="I" horiz-adv-x="608" d="M639 -186q-23 0 -68 4q16 0 50 4q39 -4 45 -23q4 -16 -7 -28q-41 -37 -120 -119q-4 0 -15 -4q-43 -18 -114 -29q-57 4 -170 10q-14 -4 -29 -4q-2 0 -84 17q-16 0 -36.5 14t-29.5 16q35 121 45 158q23 92 29 160q4 35 4 76q0 193 -73 497q-96 403 -97 574l11 10 q-10 18 -11 49q0 27 2 96q6 63 47 262q8 27 39 37v2q45 29 68 29q18 0 52 -2t52 -2l54 -8q23 -4 53 -2q16 0 49 6t51 6q10 0 31 4q90 -4 82 -147q-4 -59 -17 -154h-4q-2 -2 -6 -2q-8 -84 -4 -184q4 -113 10 -187q0 -8 7 -26q14 -41 18 -84q2 -18 12 -27q100 -436 97 -747 q-3 -125 -23 -252zM541 -217q23 139 22 278q0 281 -106 699q-27 61 -45 149q-6 57 -4 129q0 41 2 127q-4 35 -4 68q0 47 12 129q12 92 14 129l4 4l-305 8q-20 -47 -25 -106q-8 -96 -10 -109q-10 -47 -4 -90q2 -14 2 -41q0 -25 -4 -49q2 -14 2 -29v-28q2 -10 2 -23v-20 q0 -20 6 -62l-2 2q4 -20 15 -63q4 -39 28 -185q2 -6 11 -20l8 -25q74 -221 73 -551q0 -160 -26 -319l-4 -12q-2 -6 -2 -13l80 -18q27 2 221 31q2 6 6 20q18 12 24 6q7 -6 9 -16zM614 -272q-10 -14 -37.5 -38t-37.5 -38q6 6 14 18.5t12 16.5q12 4 49 41zM575 -289 q-2 -8 -10 -24q-6 -2 -20 -6q12 7 30 30z" />
<glyph unicode="J" horiz-adv-x="765" d="M668 1110q0 -166 102 -535q80 -285 80 -471q0 -37 -4 -69q-14 -145 -184 -295q-35 -20 -205 -59q-61 -27 -197 -27h-18q-6 2 -9 2q-16 4 -51 4q-8 -2 -22 -6l2 2q-25 -2 -51 -16q-45 4 -52 49q-4 25 0 41q23 74 68 219q-2 18 -14 49v27q2 10 6 28q6 10 24 25l74 16 q45 4 45 64q0 12 -2 28v54q-2 -6 -8 -19q8 39 8 76q0 127 -76 246q-63 240 -65 487q-2 246 65 483q18 31 66 86q10 6 33 15h14q8 2 12 2q20 4 43 4q10 2 21 2h30q0 -2 3 -2v-4q27 10 57 6l141 -16q2 -2 6 -2h8l44 14q12 4 24 6q25 0 41 -8q8 -29 4 -45t-12 -31 q-27 -172 -27 -323q-2 -16 0 -25q2 -27 6 -80h-14q-10 -2 -16 -2zM631 342l-45 283q-45 283 -45 454q0 217 55 396l-18 -7q-20 8 -172 27l-56 -6q-23 0 -49 -10q-20 -45 -41 -95q-29 -143 -20 -280q14 -219 94 -549q37 -150 53 -274q6 -47 6 -50q-2 -16 -4 -51q0 -10 -6 -22 q4 -92 -53 -140q-43 -16 -82 -20l-33 -170q-4 -14 -12 -45h69q180 0 234 27q55 18 80 36q86 39 94 119q2 0 4 -2h2q6 45 12 199q7 137 -67 180z" />
<glyph unicode="K" horiz-adv-x="1333" d="M1399 -248v-6q-2 -4 -2 -6q-14 -18 -41 -57q-78 -27 -123 -35h-6q-12 0 -37 4h-10q-8 2 -13 2q-4 0 -10 -2h-72q-37 -2 -63 -10q-16 0 -51 -7q-12 0 -35 -4q-35 4 -86 17q-33 -16 -62 -17q-27 0 -38 11h4q-6 10 -4 12q0 4 4 8q8 70 10 139q2 70 -10 140q-6 -25 -23 -93 q-18 -41 -47 -122q-12 -20 -55 -43q-16 -10 -33 -21q-47 -31 -82 -31h-25q-16 2 -28 0q-4 0 -31 -2l-70 -6q-12 0 -26 -6q-51 4 -154 21q-68 0 -92 24l-8 25q0 12 20 94q2 2 4 2t5 2q14 31 51 238q4 18 10 53q2 27 -6 53q8 59 8 102q0 49 -25 97q-10 88 -53 200 q-39 96 -80 193q-47 111 -55 182q-31 100 -31 244q0 94 19 190q43 150 76 222l12 16q33 43 110 53v-2q2 0 2 -2q20 -4 54 -2h53q102 -2 178 -25q25 2 76 9q35 2 74 -9q16 -16 16 -61q-23 -82 -59 -248q6 14 22 37q96 209 205 285q27 18 47 20h78q8 -2 16 -2h17q14 0 45 -6 q16 0 51 -6h211q8 -2 20 -8q16 -23 11 -47q-6 -25 -9 -48q-279 -360 -301 -718q184 -240 254 -355q201 -324 201 -592q0 -49 -8 -96zM1149 -221l2 2l33 -4q14 -2 30 0q12 0 39 4q-37 -39 -75 -76q8 61 8 123q0 408 -430 926q29 356 321 727h-43q-20 0 -41 4q-39 4 -63 12 q-12 6 -21 6h2q-6 0 -18 4h-41q-18 0 -39 -4q-59 -55 -76 -102q-10 -18 -30 -58l-25 -40v-3q2 0 2 -2l-57 -122q-20 -43 -56 -127q-6 -72 -16 -101q-20 -59 -68 -69q-33 2 -56 27.5t-25 60.5q0 8 -3 28l-18 21q4 174 39 354q4 23 29 100h-23q-33 4 -96 11q-33 0 -76 12 q-23 -2 -68 -2t-67 -2q-2 -12 -29 -64q-4 -94 -39 -241q-2 4 -8 12q-4 -43 -4 -88q0 -197 102 -438q39 -92 76 -164q72 -188 72 -377q0 -188 -66 -360q20 0 82 -9q51 -8 82 -4h21q4 2 8 2q29 4 55 4h8q23 2 43 7q20 4 41 -7q66 195 60 347q12 47 12 94q0 35 -18 180l-5 14 v15q-2 6 2 12l3 4l2 14l12 15l14 8h35l25 -8l16 -15q29 -27 82 -59q0 -68 20 -139l39 -138q33 -115 33 -192q0 -43 -10 -88v-25q0 -14 4 -26q51 0 78 2q43 4 78 -2q10 2 18 2h59q6 2 11 2h12zM750 -358l-2 2z" />
<glyph unicode="L" horiz-adv-x="854" d="M922 -203q0 -2 -2 -2v-2q-4 -53 -48 -88q-35 -29 -98 -39q-37 -14 -270 -43q-195 2 -432 10q-37 2 -25 41q0 2 2 2v5q-20 2 -20 26q0 6 2 14.5t8 26.5q2 20 -8 31q59 152 59 327q0 147 -41 338q-25 111 -74 332q-39 186 -38 338q0 82 12 164q16 43 26 133q18 53 50 162 q4 8 22 24q57 47 117 39h24q4 -2 9 -2h28q12 -2 25 -2h26q20 -2 39 -4q18 -2 39 2h25q14 -4 20 -4q8 0 56 4q25 2 53 -2q47 4 67 -41q6 -39 5 -67q-2 -31 -15 -68q0 -25 -11 -73t-11 -42q-4 -18 -8 -43q-2 -20 7 -60t7 -60q-2 -18 -19 -33q-8 -178 88 -492 q100 -328 101 -489q14 0 40.5 -6.5t41.5 -6.5q29 8 59 7q31 -2 60 0q39 8 38 -43q-2 -12 -10 -21l-2 2l-6 -55q0 -8 -3 -26.5t-3 -26.5v-19q0 -8 -2 -18v-21q0 -12 -2 -22q2 -16 -4 -47v2q0 -29 -4 -62zM414 -254q125 12 374 53q0 6 5 15v10q2 6 2 8q0 35 6 99.5t6 93.5h-53 q-70 0 -131 20q-6 10 -23 29q0 2 -2 2v2q-8 14 -12 26q2 25 2 50q0 55 -13 112l-4 115q-4 90 -55 219l-43 107q-53 133 -55 223q0 31 -10 106q-10 68 -9 107q2 35 15 69q-2 53 8 142q14 106 16 139h-153q-53 0 -154 23q-14 -37 -61 -326v-8l-7 -6q6 -70 27 -209 q25 -96 70 -291q29 -86 55 -184q8 -10 21 -31q8 -31 10 -98.5t14 -102.5q14 -82 14 -166q0 -180 -73 -319q31 -6 61 -8l62 -5q18 2 38 0q35 -4 38.5 -6t13.5 -10z" />
<glyph unicode="M" horiz-adv-x="1644" d="M1692 -272h-2q-6 -10 -54 -58q-35 -29 -129 -26q-154 2 -141 2q-139 -2 -225 0q-16 2 -17 14q0 16 25 41q102 211 92 399q-2 16 -6 58q-31 -121 -74 -234q-29 -41 -82 -127q-8 -25 -28 -73q-59 -43 -129 -48q-8 0 -33 5h2q-12 0 -37 4l-25 -7l-20 -4q-8 -2 -21 0 q-10 2 -51 -2q-31 -2 -51 0q-14 -2 -20 11l-13 24q57 131 62 279q-10 -53 -43 -148q-20 -59 -76 -129q-8 -8 -33 -24q-20 -8 -35 -13q-18 -4 -34 2q-92 -14 -162 -10q-31 2 -170 -12q-57 6 -80 37q-6 25 14 65v-2q6 25 33 86q10 23 23 39q37 119 36 250q2 10 2 16v19 q0 20 7 39q-4 174 -185 489q-55 98 -78 156q-57 152 -57 303q0 223 109 426q8 10 30 29l43 24q27 0 41 -8l2 2q2 0 4 2q139 8 400 21h8q6 -2 8 -3q12 2 25 0q12 -2 24 -6h68q8 0 18 -2q10 -10 11 -16q-2 -8 -4 -12q8 -47 8 -93q0 -41 -8.5 -122.5t-8.5 -124.5 q2 -104 33 -152q-8 123 111 332q27 47 53 102q-2 -2 -4 -2l-2 -2q25 33 72 62q43 20 86 43q53 -2 156.5 -10.5t156.5 -10.5q10 -2 20 -2q8 0 19 2q27 2 71 8q14 2 31 0q10 0 29 4q41 -4 92 -38q4 -4 12 -11q-6 -33 -37 -41q-90 -178 -94 -379q-4 -203 82 -383 q217 -352 242 -598q10 -100 -15 -210q-3 -72 -77 -252zM1294 -229q84 -6 250 -21q109 188 105 424q-4 233 -123 416q-178 274 -178 561q0 176 69 334q-4 0 -10 2h-39q-10 2 -18 2h-17q-18 -4 -37 -4q-18 -2 -41 0h-30q-4 0 -11 2h-14q-8 0 -21.5 -2t-21.5 -2q-41 8 -82 8 q-55 14 -59 14l-35 4q-16 2 -37 2q-43 -63 -84 -227q-8 -37 -18 -86q-39 -84 -37 -176q2 -102 10 -184q8 -12 8 -27q0 -47 -47 -51q-8 0 -35 6q-18 -4 -51 43q-98 139 -121 283q-31 106 -30 374v37q-10 4 -82 19l-13 -2q-25 -4 -65 -4q-129 -18 -115 -19h-125q-45 0 -88 -37 q-57 -158 -47 -327q8 -133 84 -322q43 -164 162 -401q12 -39 41 -117l4 -4q6 -53 24 -158q-2 -74 -26 -158q-23 -74 -45 -147q-2 -8 -6 -23q18 -10 28 -12l21 -4q115 14 123 14h37q4 0 10 -2h18q25 0 37 -4h8l13 25q14 37 51 112q8 55 20 140q4 27 4 41q0 66 -18 215 q-41 156 -107 252q-27 37 -53 75q-33 51 -35 82l7 -6q-14 25 -15 43q12 10 37 25q23 2 43 -11q10 -8 29 -22q47 -51 80 -113q39 -37 108 -141l49 -74q25 -37 56 -69q53 -127 63 -269q4 -57 -14 -145q-18 -96 -19 -137q0 -6 -2 -11q14 0 43 5q18 0 41 -5q-4 -10 -14 -26 q125 109 188 270q61 156 49 326q-8 102 -51 217q-8 20 -39 137q2 20 25 25q6 0 12 2h10q39 0 105 -78q31 -51 84 -158q8 -23 22 -39q37 -92 54 -170q12 -55 12 -180v-8q0 -2 -2 -8q0 -8 0 -6q2 -49 2 -68q0 -29 -12 -66q4 -18 4 -38q-2 -18 -11 -35z" />
<glyph unicode="N" horiz-adv-x="1196" d="M1141 784l92 -243q92 -244 92 -394q0 -57 -10 -114q4 -37 -19 -123q0 -10 -7 -33.5t-5 -38.5q-25 -43 -63 -131q-80 -53 -111 -49q-121 -4 -281 -10l-124 -6q-31 -2 -41 32q16 96 16 193q0 100 -18 201q-4 -51 -31 -144q-12 -57 -28.5 -108.5t-53.5 -104.5 q-78 -86 -211 -80q-115 6 -242 19q-23 4 -22 22q0 6 2 15v2q-2 2 -2 4q0 10 4 28q18 23 53 68q49 156 49 315q0 266 -131 537q-104 217 -119 461q-12 227 64 446q14 41 76 86q10 2 30 11q25 -4 43 -15q41 -4 82 -4q29 -10 60 -10q10 0 30 2h45q8 0 25.5 2t28 2t39.5 4h20 q10 0 21 2q14 -8 34 -35q-10 -293 70 -475l-16 -10q2 102 30 250q35 180 82 227v-2q31 45 72 41q10 -4 29 -16q25 -2 53 0q39 4 51 2q27 4 53 2q25 -4 52 -8q16 2 30 0q18 -2 29 -5h10q8 0 23 5q25 12 30 10q14 2 54 -25q-100 -242 -101 -475q1 -166 62 -330zM1130 -221 q2 6 9 20l16 -28q57 168 57 344q0 256 -104 479q-135 289 -135 567q0 156 43 307l-244 33q-55 -188 -55 -344q0 -43 4 -88q0 -33 -10 -53q2 -27 12 -98q2 -14 25 -89q2 -8 9 -23t15 -42q-25 -43 -65 -51q-37 -2 -93 71q-8 20 -10 31l-10 21l-2 10q-14 27 -57 94 q-74 106 -113 244q2 31 -9.5 90t-11.5 86q2 2 4.5 3t4.5 3q-10 27 -15 61l-8 62q-6 0 -17.5 -2t-17.5 -2h-37q-18 0 -34 -4q-6 2 -68 10q-29 -2 -57 -2q-29 0 -58 4q-25 -61 -24 -82q-33 -92 -31 -121l6 -67q-10 -25 -10 -52q0 -39 37 -149q2 -131 102 -410q90 -250 88 -413 l-6 6q25 -57 27 -107q6 -96 -66 -319l234 -4q2 0 6 2q14 29 33 84q-2 10 -17 24q45 170 37 338t-70 334q0 8 -2 14q-4 14 19 37q8 8 24 6q41 0 93 -51q23 -45 75 -127q4 -12 88 -229q53 -135 64 -236q2 4 3 5t3 6q0 -37 6 -99q8 -80 10 -96l62 -12q29 0 63 -4h4q37 4 76 4 h23q12 0 22 2h15q10 2 14 2h24zM649 999h-2l2 -6v6zM514 -96l-2 -2zM510 -106v4q2 2 2 4v-4q-2 -2 -2 -4z" />
<glyph unicode="O" horiz-adv-x="1204" d="M1300 457q2 -16 11 -35q43 -102 35 -199q-23 -268 -312 -495q-51 -25 -151 -74q-86 -4 -258 -14q-27 -10 -37 -9q-16 0 -32 7l-17 6q-20 8 -31 8l2 2q2 0 4 2q-190 -14 -303 246l-74 440q-20 123 -88 276q-39 90 -55 134q-29 80 -39 139q0 27 -12 49q2 12 2 27 q0 31 -21 86q6 10 17 28v0q2 20 8 62v-2q4 23 28 57q-8 227 252 363q74 31 197 47q182 25 203 30q37 -14 86 -16q39 -2 86 -4h-2q12 -4 24 -2q10 2 23 2l37 -8q18 -4 30 -21h-4q45 -27 80 -82q4 -8 55 -104l3 -2q25 -106 26 -207q2 -147 76 -379q20 -63 76.5 -180t74.5 -178 zM1198 227v-4q2 -2 2 -4q4 29 2 60q-2 29 -2 57q-16 37 -55 106q-16 61 -41 121l-49 119q-20 49 -45 131q-31 102 -31 131q-2 10 -4 19q-2 8 0 18v8q-2 4 -2 6v23q-2 16 -2 20q-4 12 -4 19v-8q-12 35 -15 131q-2 78 -37.5 128t-42.5 68q-39 33 -63 80q-27 27 -43 27l8 8 q-33 8 -96.5 8t-91.5 6q-90 -10 -267 -53q-12 0 -26 -10q-76 -29 -121 -88q-96 -80 -109 -314q2 -8 -4 -24v2q-2 -2 -2 -4t-2 -4q0 -23 -2 -43t0 -41q55 -168 146 -359q51 -106 69 -307q39 -131 119 -334q16 -43 53 -88q29 -23 43 -33q27 -16 49 -20q-2 -2 -4 -2l-2 -2 q43 -4 129 -19h-6q254 -10 363 113q166 92 186 352zM881 236q2 -53 2 -76q-4 -133 -101 -211l-16 12l-4 2q-10 -2 -21 -2q-57 0 -90 74q-10 23 -16 45q2 16 0 37q-4 20 -10 63q-2 14 4 27l-6 14q-74 213 -158 418q-96 233 -90 358q2 43 18 129q8 39 15 78l8 49q37 59 96 78 q104 0 117 -151q8 -29 10 -89.5t10 -89.5q23 -174 86 -342q106 -279 123 -337q2 -12 6 -27l2 2q5 -20 15 -61zM770 207q-20 109 -147 426q-104 262 -105 434l-4 8v-4q-2 18 -6 57l-2 -10l-4 -12q4 -35 4 -59q0 -4 -4 -60l30 12q8 -174 119 -450q-2 -31 41 -170 q27 -88 56 -174q6 -23 4 -55q4 18 18 57z" />
<glyph unicode="P" horiz-adv-x="1089" d="M1010 1016q-2 -4 -6 -15q76 -330 75 -436q0 -18 -10 -45q-35 -49 -115 -88q-39 4 -90 -10l-86 -25q2 0 2 -2h2q-31 -8 -86 -39q18 -84 19 -157q0 -78 -4 -158q0 -8 -9 -59v-17q-4 -39 -5 -51t-6 -34.5t-5 -35.5q-23 -88 -82 -145q-66 -66 -149 -57q-33 2 -78 10 q0 -2 -2 -2v-2q-39 8 -72 12q-49 0 -100 8l-103 17q-20 29 -18 61q2 33 2 68q6 45 18 92l7 37q14 49 17 78.5t3 39.5q8 27 41 31q35 0 35 -33v-4q-18 0 -37 2q-20 2 -39 0v-18q6 53 6 106q0 154 -57 353q-35 111 -101 331q-51 186 -53 342q0 111 39 234q4 12 10 27 q-4 25 7 49q16 35 17 43t3 12q8 51 78 76h-2q63 23 297 39q72 4 112 4q123 -2 217 -43q33 -2 68 -27q27 -23 55 -47q-2 -2 -6 -2t-6 -2q61 -25 111 -123q14 -61 41 -186v4q16 -70 45 -213zM893 965q0 -6 4 -15q-8 66 -18 113q-14 68 -33 111q-14 98 -53 155 q-66 141 -170 144q-23 4 -66 12q-14 0 -29 4l-385 33q-63 -188 -67 -392q-4 -205 55 -393q127 -293 127 -559q0 -135 -33 -270q2 -8 -6 -68l2 2q-2 -6 -2 -24q0 -6 -4 -23q43 0 141 -12q92 -10 144 -8q10 2 32 6q14 25 35 92q2 20 8 41v14l3 15q4 33 6 39q6 23 24 26 q10 186 -37 361q-10 20 -26 59q-4 16 28 61q33 2 99 13v6q-2 0 -2 4q63 12 182 53q43 10 53 13q31 12 43 28v-2q2 18 -8 55q-6 20 -12 56q0 -2 -2 -2v-2q-4 49 -21 143q-14 53 -14 82q0 15 2 29zM666 993l4 6q-2 -33 7 -96t7 -96q-4 2 -5 3t-5 3q8 -88 -76 -137 q-20 -8 -47 -6q-72 4 -107 63l-12 37q-8 25 -33 33q-37 143 -37 303q0 68 7 137q4 10 12 29q23 23 51 22q14 0 31 -6q133 8 178 -201q13 -59 25 -94zM543 971l2 -4q2 25 -13 63q-18 47 -20 64v-2q-6 14 -18 41v-11q0 -127 30 -237q0 -8 4 -23l7 -20l2 -2l4 -15q14 37 14 74 q0 33 -12 72z" />
<glyph unicode="Q" horiz-adv-x="1247" d="M1403 -90q-2 0 -2 2h-2q-12 -51 -113 -125q-72 -53 -124 -99t-99 -55q-29 4 -80 56q-10 10 -29 32q-27 -10 -43 -20q-53 -20 -159 -59q-53 -6 -158 -17q-23 0 -47.5 6.5t-54.5 18.5q-18 -2 -55.5 11t-57.5 9q-121 106 -172 371q-6 33 -29 135v39q-2 12 2 25q-4 10 -24 88 q-12 70 -45 90q-16 66 -76 207q-55 131 -70 206q-14 39 -26 82l-25 91q-2 16 10.5 25t28.5 5l-6 6q-18 25 -23 66v70q72 219 334 393q53 18 207 47q115 23 192 18q33 2 70 -12l-2 2q16 -4 47 -14l-2 2q25 -6 49 -6q23 -12 62 -19q53 -10 63 -12q63 -43 80 -90q8 16 20 33 q-2 -139 62 -426q4 -12 45 -160q29 -100 29 -160q0 -4 2 -4v-6q0 2 -2 2v2q2 -8 14 -47q23 -49 61 -152q2 -6 37 -129q14 -57 31 -119q10 -84 31 -163q0 2 -2 2v2q0 -6 4 -13q2 -6 -2 -12q2 -14 -13 -76q-10 -25 -22 -36l-2 -3q29 -20 82 -67q4 -10 4 -21v-22zM1122 -215 l-4 -4q43 37 129 113q-16 8 -69 61q-16 20 -2 49q4 8 43 72v-2q-2 -2 -2 -4q16 82 8 157q-4 43 -37 166h2q-12 63 -47 131l-45 146q-20 68 -51 141q-23 82 -37 154q-12 61 -23 180q-20 33 -78 207q-10 29 -28 67q-78 51 -195 62q-23 4 -68 14l-10 4q-12 4 -10 12 q-190 -4 -317 -53q-115 -66 -154 -145q-8 -12 -36 -80t-28 -76v-4q-2 -2 -2 -4q-2 0 -2 2h-4q-20 -115 -16 -143q10 -31 29 -93q25 -78 22 -100q37 -106 90 -199q10 -25 39 -86l19 -34q4 -6 12 -35q55 -178 57 -285q20 -68 53 -205q4 -31 23 -57q-4 -27 45 -94 q10 -6 34.5 -12.5t35.5 -12.5q-4 2 -6 2l-5 2q16 -4 99 -18q55 -10 98 -6q23 -4 45 -4q45 0 125 22q43 12 84 33h-2q0 -2 -2 -2q66 33 80 33q12 -2 71 -39q10 -8 19 -17l16 -16h2zM885 336h8q20 -86 16 -164q-4 -82 -37 -162q-10 -23 -63 -65v2q2 0 2 2l-37 -21 q-18 -10 -41 -14q-20 0 -35 8q-31 27 -84 144q10 31 8.5 92t2.5 86q-10 25 -62 186q-47 150 -137 297q-31 80 -53 170q4 -2 12 -4q-33 72 -27 154q6 80 21 155l-4 -2q18 43 61 86q25 18 80 41q61 -20 90 -86q10 -68 39 -246q6 -39 35 -61q14 -109 100 -299q89 -197 105 -299 zM692 537q-31 63 -90 192q0 -2 -2 -2v-2q-55 113 -84 248q0 16 -20 137q0 -8 -1 -15.5t1 -15.5q-2 -18 -2 -28q-2 -16 2 -29l2 -23v-12q2 -14 12 -37l18 11l4 4q2 -111 80 -318q33 -88 56 -158q29 -92 37 -159q14 -39 22 -94q10 -84 14 -95q6 -35 15 -69q0 -4 2 -4v-7 q2 6 6 21q14 61 12 127q-6 156 -84 328z" />
<glyph unicode="R" horiz-adv-x="1163" d="M1294 176q2 -2 2 -3t2 -3q12 -25 13 -49q0 -20 -12.5 -64.5t-16.5 -62.5q0 -74 -80 -275q-12 -18 -26 -32q-57 -33 -99 -49l2 2q2 0 4 2q-20 -4 -53 -21q-55 4 -172 16.5t-176 12.5q-33 6 -23 31q0 2 50 153q18 43 43 262q2 20 0 43q2 70 -50 199l-2 -14q20 -57 37 -189 q-10 -98 -10 -190q-23 -76 -82 -224q-49 -35 -53 -36q-31 -18 -57 -21q-10 0 -62 -8q-31 -4 -61 6l-256 -6q-20 0 -54 14q-10 18 -8 35q2 4 4 16q2 8 0 19q4 31 11 57q51 195 45 336q-10 33 -9 66l5 63q-4 47 -5 51q-6 33 -18 47q-27 133 -78 258q-10 25 -29 84q-6 10 -8 37 q-2 20 -14 29q-27 63 -51 197q-16 90 -17 176q2 233 72 409q59 47 131 82q92 -10 209 -14q109 -4 207 20q76 4 151 4q72 0 150 -22q25 -6 108 -59q49 -61 60 -146q-2 -2 -4 -2l-2 -2q2 -41 12 -121q-10 -199 35 -332q2 -51 10 -161q2 -29 -16 -47l-35 -35q-4 -4 -10.5 -5 t-10.5 -5q10 -8 23 -15l24 -12q129 -113 170 -199q43 -117 52 -149q26 -86 28 -154zM1167 139q-6 0 -18 -4q0 274 -92 379v6q-2 0 -2 4q-63 70 -197 121l-16 12q-8 6 -37 45q-4 12 -4 25q0 57 67 72q43 8 70 30q-2 0 -2 -2h-2q4 35 0 72q-4 35 10 70q-2 47 -20 151 q-16 98 -17 154q0 35 4 67q-37 76 -105.5 123t-148.5 43q-37 -2 -100 4q-72 6 -100 7q-49 0 -97 -15q-70 6 -131 -8q-33 -4 -67 -4h-12q-10 -2 -17 -2q-18 -10 -27 -51q-29 -137 -24 -273q2 -121 39 -274q10 -80 49 -209l61 -209q39 -158 39 -278q0 -74 -16 -150 q-4 -145 -29 -248q51 -2 154.5 -10t155.5 -10q35 113 71 276v94q-2 193 -80 361q-4 27 12.5 50.5t43.5 19.5q12 2 26 2q96 0 180 -125l3 -4h2q23 -53 51 -164l-2 4v-8q29 -68 43 -121q4 -168 -62 -377q27 -10 135 -23q20 2 60 5q35 4 59 -3q74 170 90 375zM647 1010q2 2 3 4 t3 4q0 -82 -18 -158q-23 -16 -62 -53q-45 -29 -69 -29q-10 0 -29 4q-33 4 -57 25q-23 82 -35 203q-8 104 -18 207q2 12 16 28q37 43 80 35q12 2 22 2q57 0 101 -63q12 -18 24 -43l4 -5q18 -29 25 -79q8 -74 10 -82zM520 1014q-2 31 -20 86l4 -80q2 -41 10 -82q10 37 6 76z " />
<glyph unicode="S" horiz-adv-x="1165" d="M1311 207q0 -33 -45 -33l2 -2q2 0 4 -2q25 -6 28 -35v-14q-2 -10 -2 -17l-8 -16q-6 -16 -18 -51q-6 4 -17 14q-14 -123 -135 -248l-65 -67q-137 -84 -348 -107q-49 6 -179 17q-74 4 -161 41q-41 29 -82 98q-47 80 -72 104q-57 166 -57 248q0 147 -25 273q29 47 72 59 q8 -2 159 -10q94 -6 158 -27q-8 -2 -22 -10q-31 23 -234 151q-141 90 -225 162q-104 121 -137 314q0 141 92 346q180 209 426 219q59 2 160 18q113 18 159 23q141 -43 197 -105q70 -117 70 -204q0 -20 -5 -41q4 -14 7 -56q14 -209 14 -192v-35l-2 2v-23q4 -31 -37 -36 q-25 2 -129 6q-12 0 -82 8h-12q-49 -8 -94 -8h-15l-20 -4h-2l-23 -4h-6l-16 24q162 -106 471 -332q96 -70 157 -184q43 -61 78 -176q4 -16 13 -51q2 -10 8 -37zM1169 272l15 -14q-47 156 -152 264h-18q-57 80 -197 160q-25 14 -74 43q2 -2 9 -10q-43 37 -129 87t-129 81 q-33 25 -80 49q-70 80 -70 188q-8 68 37 119q41 70 98 70q111 0 129 -150l8 -65q10 2 19 2h18q25 4 47 4l-4 -2q33 4 97 12q45 -6 137 -16q-4 2 -15 8q-27 63 -34 141q2 -18 10 -55q-8 76 -49 223q-49 111 -180 107q-14 0 -45 -5.5t-48 -5.5q-6 0 -20 -4q-20 4 -41 4 q10 0 -119 -18q-61 -8 -156 -33q-23 -14 -77 -63q-18 -16 -66 -60q-23 -63 -51 -205l-4 -73q16 -109 41 -172q12 -47 96 -125q100 -63 416 -236q80 -43 186 -135q63 -55 88 -164q0 -16 -5 -52t-5 -54q0 -25 8 -51q-33 -109 -155 -127q-10 0 -29 3t-29 3q-14 2 -29 -4 q-43 78 -38 178q-6 63 -27 186q-80 6 -242 23h-4q-2 -2 -6 -2h-16v-33q0 -2 2 -4v-43q-2 -4 -2 -6l-2 -4q8 -18 8 -46q-2 -14 3 -42.5t5 -38.5q6 -31 16 -91q90 -145 168 -217q94 -51 234 -41q31 0 90 -4q66 14 123 54q23 8 65.5 28.5t65.5 28.5q121 150 121 311 q-1 47 -13 94zM664 338l-9 10q10 -27 25 -82q-2 -6 -8 -20q8 -61 49 -176q6 23 8 49q2 25 -8 47q11 88 -57 172zM465 1135q4 -45 31 -76q-4 31 -29 115q-2 -10 -2 -21v-18z" />
<glyph unicode="T" horiz-adv-x="1116" d="M1028 1286h-18q8 -12 30 -33q0 -123 -88 -118q-25 2 -39 18q-2 0 -8 4q-20 -4 -59 -12q-10 0 -31.5 -4t-32.5 -4q0 -6 2 -20.5t2 -20.5v-11q0 -6 5 -18l-5 -10q-4 -45 -2 -111q2 -61 11 -108q111 -260 151 -394q63 -213 62 -411q-2 -141 -52 -279q-78 -109 -145 -102 q-57 -4 -172 -4l-98 -13q-12 0 -47 -6q-4 0 -11 -2h-24q-31 6 -94 25q-14 10 -17 29q-4 8 -12 22q27 45 104 213q12 80 13 160q0 182 -54 346q-8 23 -120 262q-20 43 -58 141q-45 119 -45 140q-4 37 -22 118q-66 25 -109 23q-18 -4 -55 -10q-57 10 -82 45q-2 86 8 168 q2 41 12 90q0 4 4 18q10 37 27 53q2 10 2 19v20l12 37q37 27 88 84q111 -4 220 -2t217 19q119 -2 534 -21q35 -2 51 -43q-10 -39 -24 -115q-12 -29 -15.5 -91t-15.5 -91zM731 1264l-4 2q37 -4 96 2q72 8 95 8q0 70 10 209q-12 0 -35 -4q-70 0 -195 16q-135 18 -194 21 l-416 -41q-45 -150 -45 -193q0 -18 6 -37q0 -8 -4 -16q33 2 92 -4q68 -8 92 -8q45 0 50 -45q0 -63 34 -238q-2 -72 31 -154q8 -20 70 -141l2 -20q55 -61 78 -213q49 -133 47 -322q0 -162 -49 -324q12 -2 34 -6l127 8q68 4 168 27q41 176 51 238q25 143 13 239q-8 68 -39 154 q-23 61 -49 145l-6 49q-4 12 -3 23q-70 141 -98 301q-10 20 -10 31q-4 37 -10 59q-6 47 -17 144q10 82 78 90z" />
<glyph unicode="U" horiz-adv-x="1218" d="M1276 506h4q47 -207 45 -256q6 -49 -22 -121q-8 -29 -31 -86v2q-8 -18 -12 -41q-63 -160 -267 -283q-162 -98 -305 -98h-4q-12 0 -39 -4q6 0 -16 -2q-29 0 -68 -2q-111 -4 -168 39q-78 18 -131 96q-12 16 -82 150l-16 94q-10 59 -8 96l10 146q-6 121 -84 313l-62 151 q-86 211 -86 437q0 223 76 424q12 18 45 45q16 10 27 10q29 0 186 -14q8 0 43 -9q59 4 103 2q61 -4 100 -2q16 -2 21 -14q2 -12 -7 -23q2 -41 -20 -133l-16 -67q-8 -33 -9 -70l4 -33l2 -16l5 -14q2 -8 0 -17l-5 -16q-2 -8 -10 -14q2 -178 121 -484q123 -313 133 -479 q2 -18 10 -39q-10 6 -28 16q0 170 -109 437q-16 39 -53 139q-53 156 -55 340q-2 111 55 379q43 135 135 162q92 -4 186 -5q158 0 238 -12l53 -8q20 -14 25 -29q4 -23 -10 -47l-23 -39q-12 -66 -39 -196q-6 -18 -6 -23v-20q0 -10 -2 -21q2 -14 -1 -27.5t1 -27.5 q-2 -31 -27 -57q10 -4 31 -19q4 -258 162 -610zM1022 836q-33 115 -45 280q-4 45 -2 103q0 25 12 98q18 147 19 123q0 31 -15 61h-301q-8 -31 -20 -90q-16 -27 -17 -55q0 -66 60 -109q-23 -88 -23 -174q0 -131 66 -352q12 -45 73 -258q49 -170 39 -264q4 -27 -10 -103 q-16 -90 -135 -116q-51 10 -100 114q-8 27 -11 68q0 35 25 59q-12 102 -62 238q-27 76 -92 227q-123 289 -114 475q0 8 -4.5 21.5t-4.5 21.5l-2 10v-6q-2 14 -10 41q12 113 43 203l-147 18l-148 17q-35 -137 -33 -287q2 -172 35 -287q12 -98 103 -352q78 -217 73 -356 q-4 -188 88 -318q29 -68 109 -102q14 -6 147 -45q92 8 183 18q111 16 170 56q106 94 147 163v-4q61 72 90 267q-6 127 -75 303q-99 250 -111 293z" />
<glyph unicode="V" horiz-adv-x="1361" d="M1358 1575q0 -2 4 -8q-63 -68 -154 -287q-14 -111 -10 -223q4 -113 39 -221q-4 -29 -4 -58q0 -63 39 -194q53 -182 53 -254q18 -86 -2 -171t-66 -161q-33 -131 -155 -262q-53 -70 -115 -78q-139 -18 -160 -18l-6 12q-238 -8 -209 -10q-35 2 -96 -4q-72 -6 -98 -7h-19 q-20 -2 -45 23l4 4q-23 6 -22 29q20 80 29 153q29 100 28 125q12 8 29 21q-61 379 -244 612l6 -12q-80 94 -180 303q-12 33 -23.5 64.5t-46.5 62.5q16 16 11 41q-16 72 -25 170q8 160 64 262q-2 -2 -8.5 -9t-8.5 -10q-16 16 -20 27q-2 10 2 21q68 88 143 92l191 4l190 4 l25 6q6 0 14 2h12q31 0 35 -16q4 -14 -6 -25q-2 -16 -14 -76q-8 -47 -9 -75q-6 -45 -22 -134q-2 -6 0 -18q0 -156 88 -360q-27 84 -25 174q2 246 158 499q2 2 11.5 10.5t17.5 16.5l12 12q18 8 47 27q57 -27 131 -21q51 2 182 13l48 4q39 4 168 -17q25 -4 18 -30v0 q0 -2 -2 -2v-2l2 2q0 -10 -6 -33zM1180 1491q2 8 10 27q-41 10 -62 24l-225 -6q-184 -293 -184 -616q0 -264 129 -480q4 -25 -2 -41q-29 -20 -53 -20q-35 -6 -72 49q-45 121 -150 229q-20 43 -73.5 121t-73.5 121q-23 76 -57 272l-2 21v25q0 12 6 55q6 35 2 55q4 37 22 111 q2 14 5 30.5t14 20.5q-111 0 -334 4l2 -2q2 0 4 -2q-18 -33 -16 -76v-80q0 -29 -2 -63q-2 -33 0 -68q4 -74 41 -121q-10 -258 227 -501q111 -160 113 -263q61 -129 94 -264q-41 -117 -51 -286q16 -4 51 -13q33 6 100 19q45 4 111 2q109 -2 108 -2q35 0 133 20q20 8 29 31 q166 178 174 428v-8q2 -6 2 -8q6 41 6 79q0 109 -47 230q-33 82 -110 295q-6 84 32 370q27 97 99 281zM1362 1606z" />
<glyph unicode="W" horiz-adv-x="1968" d="M1966 1538l6 -31q-158 -127 -157 -407q0 -31 2 -62q4 -4 14 -12q-6 -154 111 -350l96 -162q53 -88 82 -168q-6 -139 -11 -170q-8 -78 -36 -166q-20 -92 -70 -141q-39 -96 -150 -182q-25 -12 -24 -13q-4 0 -6 7q-74 -12 -146 -27q-102 -18 -137 -16q-39 2 -110 8 q-25 2 -54 4t-55 -2h-6q-4 2 -6 2l-125 -17q-6 2 -10 2q16 29 45 58q-8 45 -5 82q2 27 17 127q10 76 8 125l4 36q2 18 -2 37q-4 -10 -18 -24q-16 -156 -131 -289l2 2q-18 -29 -20.5 -32t-18.5 -29q-88 -88 -142 -88q-14 -2 -43 -9q-10 -2 -20 0q-20 4 -27 13l-4 4h-28 q-18 -4 -134 -10v-5q-2 0 -2 -2q-18 0 -77 -6q-49 -4 -78 0q-57 6 -146 6q-27 6 -43 33q-2 6 -2 14q0 6 10 25l11 23q20 61 20 49q0 6 21 26q37 129 37 211q0 55 -17 111q-23 150 -84 285h-2q0 2 -2 2q-63 111 -172 208q-66 84 -184 261l-37 106q-20 59 -25 109 q-6 33 -20 100q-4 59 -2 102q2 37 22 99q6 25 21 61q12 23 31 76q39 63 118 67q29 -4 23 -4q59 10 153 15q16 -2 31 0q14 2 29 2h37q20 0 39 -4h104q16 2 31 0q14 -2 30 -6q-53 -113 -59 -234q-43 -90 -43 -166q0 -37 10 -72l2 -18q6 -27 23 -53q-6 37 -2 74q18 70 49 210h6 q51 150 117 224q45 51 141 51q27 0 45 -8q8 -2 33 -4q16 0 20 -15q37 16 164 23q31 -2 168 12q55 0 84 -22q14 -14 19 -13q-119 -162 -119 -430q0 -59 6 -117q-14 254 193 529q39 43 170 55q201 18 245 19q35 0 68 -13h2q-6 0 -21 -4h5q12 6 34 10q6 0 18.5 3.5t18.5 3.5h21 q31 6 47 -21q-6 -49 -31 -88zM1696 1253h-6q59 158 114 256q-12 2 -35 -2q-23 -2 -34 0h-41q-12 0 -36 4.5t-36 4.5q-18 -2 -35 -3h-49v9q-2 6 -2 8q-205 -184 -215 -553q37 -100 145 -272q113 -178 150 -269q10 -14 8 -26q-6 -37 -45 -37q-8 0 -14 2q-41 4 -62 33 q-133 186 -246 311l25 -17l4 -2q-119 127 -188 256q-33 129 -33 201q0 49 14 100q-8 78 49 242l-120 -12q-16 0 -51 -5t-52 -5q-23 0 -45 8q-27 -4 -55 -4q-53 0 -107 16q-123 -190 -123 -381q0 -147 123 -389q2 -4 172 -291q-10 -43 -45 -47q-20 0 -39 6q-27 0 -61 41 q-43 68 -90 123l-98 117q-229 272 -230 547q0 143 53 268q-16 -4 -32 -6q-18 -2 -35 2q-27 0 -68 4q-18 2 -32 0t-30 4t-22 6q-23 -6 -92 -18l6 -6q-31 -66 -61 -258v4q0 -10 6 -29q10 -49 8 -72q68 -252 236 -475l-2 2q270 -240 297 -532q8 -100 -27 -207q8 -72 -43 -150 q43 2 178 -2q102 -2 178 0q16 4 47 13h9q4 2 6 2h-4q12 0 47 6l37 18q119 176 135 307q2 96 -49 314q0 57 -43 133q-6 10 -78 121l10 12l4 8q14 16 35 19q8 0 49 -19q49 -23 57 -24q29 -47 105 -142.5t100 -156.5q80 -154 84 -301v16q2 8 2 14q6 -215 -28 -323q4 0 10 -2h6 q10 0 28.5 -2t28.5 -2q23 -2 52 8q35 0 102.5 -3t101.5 -3h62q33 4 57 -19q203 199 195 492q2 2 5 6t5 6q-6 139 -141 348q-82 125 -101 162q-47 90 -61 180q-29 86 -25 154q7 73 21 153zM1874 1634h-2q4 0 6 2v0q-2 -2 -4 -2zM825 -356z" />
<glyph unicode="X" horiz-adv-x="1239" d="M1307 -297q-2 -2 -11 -8q-16 -6 -36 -8q-20 0 -33 16q-158 -53 -424 -78q-29 0 -29 25q0 31 8 63l17 66q8 37 8 65q0 31 -21 66q2 27 2 53q0 27 -4 53l-57 -151q-35 -92 -74 -141q-51 -94 -155 -89l-99 7l-37 4q-18 2 -36 6q-41 4 -33 4q-41 -2 -152 -14h-8q-35 6 -41 24 q-2 4 -4 15q-2 6 2 14l4 8q14 29 31 49h-2q0 -2 -2 -2q12 23 31 29q96 256 90 450q0 2 -2 37q-2 27 -2 49q2 88 -62 291q-8 59 -26 180l-9 17q-49 72 -112 227q-2 23 -17 68h4q0 -2 2 -2q-18 31 -30.5 97.5t-24.5 94.5q0 23 4 67t4 66q0 31 -8 62q-2 16 19 43q16 12 49 39 q16 6 35 20q23 -2 47 -2q45 0 145 16q57 -20 121 -12q76 8 119 17q23 0 22 -17q0 -6 -2 -14q-6 -37 -6 -72q0 -78 33 -217q18 131 84 234q8 8 22 24q47 18 82 60q61 6 189 18l186 16q39 0 61 -57q2 2 2 4t3 4q-246 -356 -246 -708q0 -43 4 -88q135 -174 186 -246 q104 -143 174 -256q53 -135 68 -273q6 -63 -4 -166q-12 -120 -49 -147zM915 -238q72 -4 310 54v75q0 53 -2 76q-6 76 -43 279q-25 49 -74 145l2 -8q-31 51 -90 152l-8 10q-72 88 -107 123q-66 63 -133 92q-18 369 225 741q-10 -2 -32 -10q-90 6 -234 -45q-31 -74 -84 -234 q-41 -121 -57 -227l-10 -10q-2 -2 -5.5 -8t-5.5 -9l-12 -8q-6 -4 -14 -4h-27q-10 2 -31 15q-6 14 -20 47q-18 41 -49 110q2 27 0 51q-2 25 -6 50h12q-23 94 -29 264q-25 0 -24 24q0 8 6 15q-59 -35 -123 -43q-10 0 -43 6q-39 -8 -111 -8q14 -47 8 -95q-6 -49 0 -94 q0 -84 48 -184q-4 -10 -5 -21q0 8 15 -51l-4 -2q18 -39 61 -115q23 -31 60 -98q10 -25 18 -91.5t25 -98.5q23 -63 24 -123q2 -63 -24 -125q20 -102 20 -209q0 -201 -74 -379q0 -2 -6 -20q12 -2 35 -7q37 2 74 3h73q12 2 60 4q31 2 57 -2q25 49 45 118q14 49 39 121 q16 41 14 86q18 41 21 80q6 70 -14 162l-17 78q16 41 60 47q66 -8 88 -78q29 -98 108 -358v6l8 -29q2 -14 -2 -31q12 -104 7 -209h-3zM483 961z" />
<glyph unicode="Y" horiz-adv-x="1173" d="M1192 1550q-238 -342 -238 -759q0 -156 37 -310q78 -147 107 -270q2 -33 2 -66q0 -227 -86 -415q-31 -70 -113 -88q2 0 4 -2h2q-27 -4 -82 -21q-94 8 -284 29q-2 0 -9 -2h-8q-8 -2 -16 -2h-16q-27 0 -41 -4h-13q-16 4 -45 22q-8 16 -8 25v10l8 16q4 8 13 4q70 166 83 365 q0 10 -2 45q-2 23 0 43l-20 102q-10 53 -16 103q-12 45 -58 133q-6 6 -14 22q-33 45 -66 95q-35 33 -47 73q-150 182 -192 301q0 -8 -6 -22q-45 94 -80 369q4 25 0 49l-8 49q-8 25 -7 49q2 25 7 49q16 39 108 70q55 10 100 26q55 -35 144 -34q27 0 78 5t75 5l17 -29 q-4 -66 16 -321l2 6q0 -25 8 -66q8 -49 11 -65q10 61 34 161q41 166 125 287q23 20 68 45q27 -2 57 0q35 0 105 4q20 2 43 0q20 0 61 2t62 2h26q14 0 27 7q14 -2 29.5 -4.5t21.5 -14.5q4 -27 2 -41t-6 -24l8 -17q-4 2 -6 2zM954 209q2 -2 7 -8q-27 100 -89 301 q-29 125 -32 262q-10 418 211 747q-35 2 -107 11q-53 -4 -158 -19q-2 -2 -6 -5t-6 -5q-8 -37 -37.5 -106.5t-38.5 -104.5q-4 -47 -26 -137q-27 -104 -33 -137q-12 -70 4 -140q0 -6 4 -16l-4 -21q-2 -10 -6 -20l-14 -12l-13 -6h-28l-23 6l-14 14q-51 51 -66 107q2 2 4 3t4 3 q-57 152 -69 190q-33 104 -29 199v61l6 -2q-10 31 -6 62t10 61l-301 -8q-2 -76 19 -150q4 -68 6 -104q4 -61 18 -105q-12 -12 -20 -16q182 -305 446 -655q0 -16 15 -140q25 -72 26 -135q2 -74 -16 -204l-31 -205q2 0 2 -2q27 2 80 8q55 -4 133 -19q23 -4 39 -2 q23 -10 64 -34q78 197 77 403q0 39 -2 80zM410 1483q-4 2 -15 6z" />
<glyph unicode="Z" horiz-adv-x="968" d="M1047 -260q-6 -10 -23 -29q-27 -20 -51 -30q-2 -2 -10.5 -7.5t-10.5 -7.5q-18 -4 -22 -4q-4 2 -4 6q-137 -41 -303 -41q-78 0 -154 8q-84 -4 -170 -10t-170 17q-8 4 -23 14q-6 25 -26 49l-4 12q-2 4 -2 9q0 4 2 6q10 59 33 176h-3q0 -2 -2 -2q12 55 13 114q18 51 53 156 q8 25 25 86q14 74 18 88q12 45 12 90q0 51 -12 140q-14 98 -16 139q-2 49 14 65q4 35 12 166q6 109 23 164q-20 4 -62 14h4q0 -2 2 -2q-37 8 -73 13q6 0 -66 -15q-35 6 -80 52v18q0 6 -2 12t2 13q0 6 -2 12v12q0 14 4 41l7 12q20 178 51 273q12 39 104 63q41 10 70 23 l674 -13q35 4 45 -34q-4 -35 -6 -72l-5 -72q-47 -133 -67 -213q-84 -190 -72 -526q2 -90 8 -268q4 -135 -24 -267q0 -2 -2 -2v-2l71 15q23 -4 47 -6l50 -5q29 2 112 -16q25 -10 33 -24q18 -70 18 -136q0 -33 -4 -59q1 0 -36 -215zM852 -229q29 0 63 12q37 102 52 164 q-14 102 -15 108q-33 6 -96 19v-2q-39 0 -76 -6v-3l-37 -4q-18 -2 -38 -2l-19 -6l-33 8q-16 4 -22 19q0 16 26 94q-33 0 -32 49v23q25 205 22 303q-2 63 -6 145q18 172 29 240q20 135 55 235q16 -8 25 -14q2 12 6 45l4 21v14l-2 -4l2 2q0 6 -2 14q-2 6 2 12q-6 23 12 31 q-4 25 -4 49q0 84 43 152l-670 22l-20 -57q-10 -29 -17 -57l5 -66q2 -33 6 -65l6 -2q16 2 72 -13q6 0 16 -4q14 0 45 6h-2q2 2 63 9q33 4 52.5 -23t15.5 -59q-14 -55 -35 -166v10q-27 -154 -22 -356q8 -326 6 -361q-8 -61 -43 -182q-10 -18 -58 -119q10 -35 11 -72 q0 -33 -23 -159q6 -6 25 -17h78q10 0 20 2h117q12 2 28 -2q8 -4 23 -18q111 23 342 31z" />
<glyph unicode="a" horiz-adv-x="1294" d="M1360 -283q0 -2 -2 -2v-2q-31 -78 -103 -73q-20 4 -61 14q-16 2 -35 10q-51 -6 -153.5 -13t-153.5 -13q-2 -2 -4 -3v0q-35 -16 -53 -12q-51 12 -52 64q0 25 19 43q27 100 26 125l3 2q6 35 6 67q0 20 -2 39h-15v-6q-2 -4 -2 -6q-4 -10 -12 -39l-8 -37q-10 -23 -25 -72 q-8 -20 -22 -41q-4 -6 -9 -26q-2 -2 -2 -6t2 -6q-10 -31 -28 -46q-63 -47 -107 -47h-18q-139 0 -205 9q-41 6 -68 0q-4 0 -10 -2h-8q-20 2 -72 8h-22q-6 0 -18.5 2t-18.5 2h-29q-6 2 -10 2q-20 25 -20 53q0 23 32 74l-2 -2q4 4 33 55l2 -2q18 47 57 139q6 23 11 60 q23 63 51 192q-14 125 -25 176q-18 94 -51 168q-84 268 -82 381q0 59 12 88q4 102 31 230q0 -2 25 92q8 37 28 98q37 78 64 113q43 59 98 80q20 0 37 -9v2q4 -2 23 -6q12 -4 12 -14q184 0 555 6q27 -10 25 -37t0 -49q-2 -49 -7 -149q0 -16 -4 -66q-4 -41 -4 -65 q0 -66 8 -132h-8q33 -152 176 -403l111 -195q145 -256 145 -469q0 -82 -22 -167v-15l-17 -82q-4 -10 -6 -20l-4 -21q-4 -12 -12 -39zM1065 -221q2 2 2 4l2 2q104 10 158 8q4 0 10 -2h10q10 25 33 72q25 94 25 188q0 190 -80 361q-16 37 -135 213q-90 137 -119 221 q-49 88 -80 180l-41 123q0 113 22 336q-43 0 -65 8q-10 2 -23 2h-20q-2 -2 -6 -7t-6 -7q-137 2 -412 10q-27 -102 -88 -303q-20 -59 -29 -189q-6 -104 49 -297q14 -47 52 -172q35 -111 41 -188q16 -242 -119 -563l110 -6q35 4 82 0q27 -2 80 -2q16 0 47 -7q70 147 99 252 q4 29 28.5 49.5t52.5 20.5h7l8 2l20 4l21 4l-2 -2q27 2 57 17q70 -10 78 -127l4 -54q-4 -55 -31 -166h6q12 0 25 3l25 4q49 0 102 8zM909 381q0 2 -2 2v2q4 -10 4 -18q0 -23 -20.5 -42.5t-44.5 -21.5q-25 4 -47 4l-23 2l-4 2h-67q-37 10 -43 35q-16 45 -25 88 q-35 90 -105 273q-57 156 -57 284q0 35 4 72q6 29 37 33h27q10 0 30 -11q14 -14 68 -139q27 -66 37 -96q8 -16 22 -53q4 -39 43 -105q31 -49 107 -182q0 -2 37 -76q8 -18 22 -53zM696 473q8 2 17 2q10 0 20 -4q-14 37 -37 76l4 -37q0 -19 -4 -37z" />
<glyph unicode="b" horiz-adv-x="1204" d="M1350 172q-2 2 -3 2t-4 2q4 -29 5 -57q0 -156 -113 -281q-51 -84 -127 -121q-49 -23 -174 -49q-29 -6 -90 -14l8 8q-12 0 -61 -12q-39 -10 -64 -6q-59 0 -94 6q-29 0 -86 6q-39 -8 -113 -8q-45 -6 -133 -17q-10 0 -33.5 5.5t-36.5 3.5q-31 4 -92 16h-14q-4 -2 -12 -4 q-25 20 -27 49q-2 31 12 72l25 67q6 68 31 178q8 74 16 162q-23 111 -45 221q-29 119 -72 220q-39 90 -82 210q-6 33 -28 58q-20 102 -21 192q-2 111 17 195q12 55 79 258h2q14 33 111 76q27 12 57 12q29 0 58 -4q33 8 65 10l133 -4q25 0 71 5t69 5q74 0 200 -47 q102 0 201 -88q49 -70 53 -190v2q2 0 2 2q4 -25 4 -47q2 -10 3 -23q0 -12 -5 -22q29 -53 39 -181q2 -20 9 -73q2 -31 -3 -76q4 -80 -75 -139q90 -37 186 -160q117 -150 117 -232l6 -24q2 -8 8 -31q0 10 14 -90q3 -14 7 -43zM1223 174q-2 16 -11 39l-12 61q-2 20 -12 72 q-14 68 -74 189q-31 43 -100 88l-68 30q-6 2 -94 37q-23 18 -33 35l-8 25q-4 23 6 45q111 25 127 82q16 25 19 75l2 39q2 23 6 37q-12 82 -76 299q-35 119 -205 146q-39 20 -147 20h-80q-6 0 -20.5 2t-20.5 2q-23 0 -66 4l4 2q-16 2 -86 4q-33 0 -108 -10v0h-2 q-16 -6 -33 -6q-10 0 -20 2q-53 -135 -58 -281q-4 -195 62 -417q43 -147 147 -398q4 -37 14 -110q0 -35 9 -49q2 -37 -13 -99q4 -41 4 -84q0 -66 -10 -133q-12 -39 -28 -119q-2 -18 14 -29.5t35 -9.5q6 0 12 -2h10q18 0 68 2q37 2 78 7q33 2 37 2h14q8 0 23.5 2t23.5 2h82 q39 0 76 -6h8q4 2 6 2q51 -6 78 -6q29 0 76 10l71 16l68 12h8q6 2 8 2q39 14 58 23q29 16 47 39q18 14 35 57q2 -4 10 -14q35 125 39 262zM905 252q4 -2 13 -8q-10 -51 -23 -105q-14 -59 -37 -98q-55 -94 -184 -109q-35 2 -68 54v16q0 63 4 49q-4 14 -2 31l-2 20v41 q2 -6 6 -20q0 201 -90 422q-2 25 14.5 45t41.5 14q18 2 36 2q125 0 211 -119q76 -104 80 -235zM672 1040v4q2 -61 10 -186l-4 -2q6 -12 6 -25q0 -39 -47 -67q-45 -20 -84 -27h-59l-31 13l-2 2q-41 33 -37 65q-2 12 -6 39q-8 18 -19 62l-8 32q-4 16 -14 31q4 23 4 47 q0 27 -7 78t-7 76q-2 14 0 28q4 35 -2 62q2 39 28.5 68.5t65.5 33.5l57 -16q29 -8 59 -15q107 -106 97 -303zM545 1055l-2 2q-2 49 -31 121l-8 20q-2 -41 -2 -78q0 -139 28 -248q2 2 4.5 3.5t4.5 3.5q14 20 10 43q0 23 -4 67q-4 37 0 66zM768 264h-2q-23 141 -70 197 q43 -145 43 -295q0 -35 -2 -70q33 33 35 80v45q-2 23 -4 43z" />
<glyph unicode="c" d="M1141 1010q-4 -2 -13 -4q16 -51 58 -271q-2 -10 -8 -26q-33 -27 -54 -25q-4 -2 -14 -6q-29 4 -57 4h-92q-25 0 -73 -2t-73 -2l-12 -4q-125 -6 -156 63l-8 19l-2 12l10 12q-45 125 -59 246q-14 53 -47 158h-11l-18 -31l-2 6q-4 -20 -4 -41q-2 -20 12 -37q-4 -90 23 -239 l8 -19l8 -20l2 -6q6 -12 10 -27q16 -61 72 -188l12 -41l9 -19v-20l-7 -13l25 -24l4 -6l2 -8l6 -19q14 -41 47 -221q-2 -39 0 -78t11 -78q6 16 12 45q31 41 31 105q0 20 -5 41v8l3 6q-4 37 -29 125q-16 59 -14 72l4 18l12 4q37 18 119 23q14 0 41 2q98 0 297 -6 q25 -10 41 -25q31 -55 41 -104q18 -45 18 -86q0 -47 -47 -260q-90 -195 -275 -295l-186 -58q-92 -29 -192 -39h-60q-18 0 -39 9h-2q-4 2 -6 2q-18 10 -47 10q-80 8 -158 55q-16 10 -39 41h15q8 2 12 2q-68 31 -104 121q-20 49 -43 160q4 31 4 61q0 55 -9 129l-14 129 q-4 41 -22 123q-35 92 -70 178q-4 6 -4 17q-43 119 -66 186q-35 111 -47 193q16 205 133 374q-12 6 -20 6q51 53 117 89l131 69q27 8 133 37q88 25 127 25h28q12 0 37 4q61 -16 62 -17q0 2 -2 2v2q27 -6 82 -20q53 0 116 -33q6 -2 105 -63q94 -94 127 -195q14 -90 22 -158z M997 1124l7 6q-8 74 -37 144q-20 41 -72 96q-59 66 -80.5 88.5t-99.5 40.5q-41 -4 -103 12h-14q-6 2 -10 2q-14 2 -37 15q-182 -16 -281 -68q-41 -20 -96 -57q-82 -115 -78 -264q-12 -66 -8 -111q10 -92 33 -332q86 -143 135 -342q2 -8 6 -18q4 -29 14 -84q8 -109 25 -203 q20 -115 55 -182q25 -29 82 -78q80 -10 238 -35q100 10 190 53q10 10 97 46q113 66 190 198q31 92 31 185q0 45 -8 92q-2 12 -19 28l-258 13q6 -25 10 -49.5t11 -49.5v-20q0 -6 2 -20.5t2 -20.5v-19q4 -27 -29 -131q-68 -135 -164 -129q-10 -2 -18 -2q-66 0 -82 70h-2 q-8 20 -23 94q2 27 6 58q4 33 0 57q0 37 -16 94q-8 37 -31 109q-4 66 -39 127q-2 12 -13 42.5t-11 47.5q0 12 4 24q-117 236 -133 451q-4 66 35 125q35 88 108 88q12 0 27 -4h37q86 0 86 -58q2 -25 26 -120q18 -74 15 -121q10 -94 47 -197q39 0 118 4l76 -2q39 -2 72 12 q-23 170 -23 269v26z" />
<glyph unicode="d" horiz-adv-x="1243" d="M1313 510v4q-2 2 -2 4q47 -168 63 -297q2 -16 -14 -24q14 -14 26 -33q-14 -121 -55 -211q2 4 3 5t3 5q-80 -135 -194 -213q-229 -78 -398 -94q-68 -6 -383 -27q-43 6 -126 19h-39q-12 0 -35 -3t-35 -3h-23q-23 0 -20 18q2 18 8 33q4 41 29.5 117.5t30.5 117.5q2 16 6 39 v4q-4 -16 -4 -26q14 92 14 180q0 164 -51 317q-51 115 -144 351q-39 113 -47 213l19 196q23 205 75 330q45 59 144 84q152 0 307 8l53 -6q16 -4 35 -6q10 -2 19 -2q10 0 20 5t37 21q205 -23 340 -114l-4 6q25 -23 45 -64q14 -37 31 -71q16 -66 30 -187q16 -133 27.5 -190.5 t28.5 -126.5q29 -66 84 -197q33 -59 96 -182zM1233 340v8q-23 57 -35 105q-10 23 -27 71q-2 6 -6 17q-45 84 -131 254q-68 139 -67 274q-8 57 -25 172q-16 94 -70 156v-2q-29 31 -114 59q0 6 -4 16q-53 -2 -109 -2q-55 0 -108 17q-188 20 -375 16v10q2 4 2 9q8 16 26 49 q-119 -229 -129 -492q-6 -127 19 -256q18 -106 104 -321q84 -207 101 -324q10 -70 10 -143q0 -139 -39 -273h150q47 8 96 4l98 -8q63 18 166 31l166 20q127 20 252 140l-2 -2q0 -2 -2 -4q27 33 51 168q10 57 6 116q-4 58 -4 115zM809 649q106 -227 106 -459q0 -33 -2 -67 q-6 -90 -90 -133q-106 -55 -143 -53q-49 2 -45 34q2 16 10 29q4 39 4 76q0 180 -90 381q-55 117 -192 424q-10 68 -11 137q0 143 43 305l13 20l16 13q14 8 31 12q16 4 33 0q59 0 92 -49q2 -6 10 -16q43 -55 57 -117q-2 -23 0 -49q4 -45 4 -52q0 -18 -4 -36q31 -137 92 -263 l19 -61q14 -27 47 -76zM700 561q-70 137 -100 268q-29 63 -65 181q-43 131 -64 180q0 -244 111 -481q14 -20 59 -107q119 -221 127 -483q6 16 8 33q0 14 -10 28q0 86 -25 217q-6 23 -18 78l-4 21l-2 20l-4 21zM645 -51q0 -2 2 -2zM651 -55v0q-2 2 -4 2q2 0 4 -2z" />
<glyph unicode="e" horiz-adv-x="954" d="M877 -342l-695 -14q-8 0 -108 39q-10 10 -6 20q2 10 10 18q25 139 37 275q10 133 -25 276q-10 117 -80 308q-76 209 -94 303q-35 190 -31 342q4 156 45 309q20 29 66 43q14 -6 18 -10q2 -6 0 -11q-8 -4 -22 -16q49 53 102 53q10 0 21 -2q78 39 164 41q84 2 167 -8h11 q4 2 8 2q27 -6 76 -6q18 -4 39 -2h51q10 2 16 2h19q20 2 59 6h-4q53 8 106 12q37 -4 58 -32q4 -29 -13 -54q-55 -213 -55 -383q-2 -12 -12 -26q-25 -37 -57 -31q-12 2 -29 18q-23 -16 -27 -14h-22q-10 0 -21 2h-14q-10 -2 -14 -2q-25 -6 -46 -6h-18q6 -51 10 -109l8 -108h17 q8 -2 14 -2q16 4 33 4h35q29 4 57 4h10q4 -2 9 -2q16 4 31.5 -7t27.5 -23.5t33 -39.5q10 -61 43 -165q37 -115 47 -164q6 -14 4 -27q-8 -51 -57 -45q-18 0 -56 6q-10 4 -43 10q-20 -4 -41 -4h-41l9 -37q18 -82 18 -112l12 -117q0 -27 -6 -51q39 10 80 10q-20 0 172 -18 q43 -53 33 -129q-18 -145 -74 -297q-18 -35 -45 -35q-10 0 -20 6zM246 -219l4 2q2 0 6 2l584 6q33 123 41 195q-55 6 -166 24l-13 -6q-12 -6 -38 -8q-39 -2 -54 72q8 223 -57 436q-8 59 57 69q61 -6 160 -6h12v2l-4 13q-4 16 -12 47v10q-10 18 -23.5 59t-23.5 60 q-12 8 -74 14h-39l-12 -2l-2 -2q-39 -23 -43 -23q-82 4 -96 78l-4 21l2 14q0 6 -5 14q-16 76 -22 265q-10 55 63 94q27 0 99 10q61 10 100 6q16 119 29 238q-82 2 -248 2t-248 2q-133 -27 -203 -68q-25 -102 -24 -200q0 -166 53 -344q47 -145 164 -527q33 -115 41 -268 q6 -135 -39 -279v-16q4 0 16.5 -3t18.5 -3zM594 768z" />
<glyph unicode="f" horiz-adv-x="940" d="M877 1331q2 0 4 2h2q-12 -47 -19 -76l-16 -77q-8 -27 -39 -37q-78 -8 -236 -29q-4 -31 -4 -59q0 -35 6 -68v-14q-2 -6 3 -15v-12q-2 -8 2 -14v-21q0 -10 -2 -20q123 -25 196 -23q29 -4 39 -32l29 -84l37 -74q35 -96 55 -186q2 -12 -6 -25q-8 -33 -31 -47l-170 12 q29 -133 29 -268q0 -207 -68 -424q-12 -41 -88 -70q-51 -14 -57 -14q-12 -2 -35 -8q-41 16 -86 12q-27 -2 -92 -8q-51 -6 -97 0q-18 2 -55 -2q-43 -4 -55 -4q-35 8 -49 49l-6 18q6 14 12 17q4 2 8 0q53 168 53 356q0 303 -143 639q-14 33 -16 76l-5 78q-25 96 -24 145 q0 20 2 41v20q0 8 -6 25l8 115q8 102 41 237q10 29 41 105q14 37 74 55q299 2 694 10q70 2 106 -39q-24 -69 -36 -262zM770 1470q14 16 33 29q-168 2 -553 10q-6 0 -23 -2q-6 -2 -10 -2q-23 -6 -45 -10q-23 -4 -45 2q-43 -150 -51 -311q-8 -162 16 -314q170 -520 162 -817 q-4 -139 -49 -276h61q10 -2 17 -2h18q4 0 10 -2h21q4 0 6 -2h4q10 2 23 2h22q10 2 21 2q18 0 36 -6q29 6 138 36q33 143 32 281q2 154 -39 348q-8 39 -4 70l4 -8l3 20l8 19q23 12 39 16q14 2 28 -2q29 -2 70 0q53 4 70 2q-20 61 -70 172q-12 16 -23 35h-38q-18 0 -37 6 q-70 -18 -78 -16q-41 -4 -74 45v-2q-6 35 -20 106q2 6 0 29q0 16 12 22q-18 86 -23 197l-2 -2v6q-8 18 -12 41q10 43 68 51q37 4 135 14q25 -2 49 3q25 4 49 0l6 36q4 10 15 84q0 70 20 90zM926 459q2 2 2 4t2 4l-2 -2v-4z" />
<glyph unicode="g" horiz-adv-x="1210" d="M1315 -70q-10 -31 -17 -49q-10 -86 -30 -129l-62 -53l-41 -29q-18 -12 -45 -18q-117 -25 -317 -29q-45 0 -45 58q0 12 2 24v10l-53 -20q-25 -10 -56 -14q-119 -31 -162 -25q-125 -8 -198 92q-49 25 -82 109l-27 69q-8 23 -24 70q-43 365 -111 555q-31 86 -72 207 q-35 115 -36 215q-10 41 -7 78q4 27 11 77v-8q16 66 22 88q14 47 37 82q-2 -2 -2 -4l-2 -2q37 68 51 109q45 37 131 116q45 29 139 74l-2 -2q29 8 107 23q14 2 51 8q25 4 51 10q158 14 160 14q100 10 205 -80l57 -49q43 -49 70 -133q20 -74 41 -147q33 -39 37 -113 q6 -115 8 -123v-18q2 -18 6 -39q0 -6 2 -19v-12q2 -12 8 -33q0 -27 -14 -36q-63 -33 -84 -29q-49 -2 -98 -2q-129 0 -328 20q-12 2 -43 19q-41 178 -35 293q0 12 -6 45q-20 -55 -27 -125q16 -166 84 -338q16 8 23 8l8 -4l438 24q66 -4 115 -49q49 -106 145 -319 q33 -115 33 -223q0 -107 -16 -224zM1192 -57v6l8 47q0 -18 10 67q2 20 -8 66q0 18 -2 41q-4 20 12 35q-20 115 -57 219q-31 86 -70 166l2 -2q-8 12 -20 28h-39q-14 -2 -39.5 3.5t-36.5 5.5q-12 0 -36.5 -4.5t-36.5 -4.5q-10 0 -30 3.5t-30 3.5q-20 0 -62 -7.5t-63 -7.5 q10 -23 51 -137h9q4 2 6 2q-2 0 -2 -2h-2q4 2 12 4q80 -16 115 -123q6 -18 16 -55q2 -51 6 -152q0 -76 -37 -147l2 2q-37 -49 -170 -98q-59 10 -84 61q-33 68 -32 223q0 82 -17 207q-27 102 -71 211q-16 47 -70 168q-6 18 -20 55q-18 55 -19 78q-29 80 -29 164q10 90 25 137 q78 109 147 115q66 6 95 -74q14 -66 18 -108q4 -45 0 -101q-4 -51 4 -100q10 -2 31 -8q53 -2 162 -10q31 8 71 8l74 8v6q-2 4 -2 6q-4 18 -12 58l-4 36q-2 14 -6 35q4 76 -68 215q-68 133 -131 191l-2 -2q-55 39 -98 37q-18 0 -48 -7q-39 10 -77 11q-96 0 -240 -78 q-133 -49 -176 -227q-45 -100 -53 -220q-8 -117 38 -223q-8 -4 -22 -14q20 -49 98 -197q63 -121 86 -201q41 -225 35 -315q29 -119 33 -131q31 -84 84 -90q63 -33 104 -33q18 0 37 6q31 -4 62 -4q82 0 145 33q68 78 139 74q29 -39 23 -76q-8 -14 -10 -27l-9 -16 q-4 -8 -6 -21q-2 -4 -12 -14q43 6 128 19.5t128 19.5q12 52 43 156zM764 342q-23 -2 -66 -6q14 -72 19 -146q2 -25 0 -40q0 -14 -2 -44q-2 -49 14 -75q51 10 55 94q0 12 2 37q0 16 -6 84q-6 39 -12 80q-2 10 0 18h-4q-2 -2 -4 -2h4z" />
<glyph unicode="h" d="M1276 522q63 -174 67 -350q4 -178 -51 -354l-18 -31q-20 -33 -51 -90q-55 -45 -105 -49q-16 4 -18 18t0 29q-31 -29 -142 -53h-38q-43 -4 -127 -4q-51 6 -91 2q-8 0 -22 12q-8 23 -4 45q2 25 33 113q4 16 -13 16q49 145 58 289q8 143 -27 291h-27v-3q2 -8 7 -20 q6 -20 18 -64l4 -16q16 -172 12 -248q-16 -80 -59 -235q-12 -20 -18 -62q-8 -51 -13 -61q-31 -25 -43 -33q-29 -14 -51 -16q-6 0 -27 6q-2 -2 -4 -2t-4 -2t-47 -17l-190 -6q-25 4 -49 4h-19q-6 0 -16 2q-45 20 -101 33q-27 12 -22 39q0 16 14 27q88 209 76 442 q-10 223 -111 432q-113 236 -125 473q-6 113 15 244q23 152 67 231q43 31 107 80l461 -12q20 0 20 -18q-2 -23 -12 -33q-84 -219 -84 -432q0 -88 14 -174q12 0 39 -4q-2 -12 -6 -39q-41 121 -41 247q0 209 100 394q45 35 107 53q23 -2 62.5 2t56.5 4q18 0 36 -2q47 2 113 0 q84 -4 111 -2q-2 -2 -4 -2l-2 -2q33 16 53 16h39q31 -6 22 -28l8 -25q-92 -211 -92 -451q0 -313 154 -604zM1145 524q-154 295 -154 602q0 184 60 355h-4q-2 -2 -7 -2h-4q-16 2 -51 8q-4 0 -14 4h-27l-90 -8q-63 4 -139 -15q-18 -45 -23 -90l-8 -94q-6 -18 -6 -37v-33 q-6 -53 -6 -88q2 -123 33 -247v-21l-3 -8q-16 -20 -49 -29q-18 0 -35 6l-22 9l-12 4l-13 -2h2l-22 -4h-16l-5 -3l-20 -4l-12 -2q-63 -4 -88 64v-6l4 -2q-8 55 -25 118q-10 41 -8 66q-4 37 6 72q-6 123 53 348h-129q-72 0 -100 4q-45 6 -100 2q-45 -141 -54 -289 q-12 -229 105 -532q131 -340 131 -549q0 -92 -27 -187l-6 7q8 -57 -37 -160q100 -27 123 -25q16 2 92 13q57 8 92 6q41 59 54 149q0 8 8 160q23 70 20 141q-2 72 -22 142q0 2 -2 2v2l-4 12l-6 18v-4q-2 6 -7 17l-2 10q-2 4 -4 16q-2 8 0 17v-8q0 12 6.5 37.5t6.5 37.5 q106 23 118 23q20 0 39 -4q55 0 107 -58q14 -47 35 -147q2 -29 8 -66q20 -135 6 -258q-14 -125 -60 -252q29 0 84 -4q98 4 228 27q8 27 10 22q16 49 45 150q-2 18 8 61q-2 27 45 101q-29 0 -28 26q0 8 2 21q-4 53 -37 174q-33 113 -33 172q-6 6 -20 18l-5 2q5 -4 15 -8z M1204 1591q0 4 2 6v0q-2 -2 -2 -6z" />
<glyph unicode="i" horiz-adv-x="608" d="M639 -186q-23 0 -68 4q16 0 50 4q39 -4 45 -23q4 -16 -7 -28q-41 -37 -120 -119q-4 0 -15 -4q-43 -18 -114 -29q-57 4 -170 10q-14 -4 -29 -4q-2 0 -84 17q-16 0 -36.5 14t-29.5 16q35 121 45 158q23 92 29 160q4 35 4 76q0 193 -73 497q-96 403 -97 574l11 10 q-10 18 -11 49q0 27 2 96q6 63 47 262q8 27 39 37v2q45 29 68 29q18 0 52 -2t52 -2l54 -8q23 -4 53 -2q16 0 49 6t51 6q10 0 31 4q90 -4 82 -147q-4 -59 -17 -154h-4q-2 -2 -6 -2q-8 -84 -4 -184q4 -113 10 -187q0 -8 7 -26q14 -41 18 -84q2 -18 12 -27q100 -436 97 -747 q-3 -125 -23 -252zM541 -217q23 139 22 278q0 281 -106 699q-27 61 -45 149q-6 57 -4 129q0 41 2 127q-4 35 -4 68q0 47 12 129q12 92 14 129l4 4l-305 8q-20 -47 -25 -106q-8 -96 -10 -109q-10 -47 -4 -90q2 -14 2 -41q0 -25 -4 -49q2 -14 2 -29v-28q2 -10 2 -23v-20 q0 -20 6 -62l-2 2q4 -20 15 -63q4 -39 28 -185q2 -6 11 -20l8 -25q74 -221 73 -551q0 -160 -26 -319l-4 -12q-2 -6 -2 -13l80 -18q27 2 221 31q2 6 6 20q18 12 24 6q7 -6 9 -16zM614 -272q-10 -14 -37.5 -38t-37.5 -38q6 6 14 18.5t12 16.5q12 4 49 41zM575 -289 q-2 -8 -10 -24q-6 -2 -20 -6q12 7 30 30z" />
<glyph unicode="j" horiz-adv-x="765" d="M668 1110q0 -166 102 -535q80 -285 80 -471q0 -37 -4 -69q-14 -145 -184 -295q-35 -20 -205 -59q-61 -27 -197 -27h-18q-6 2 -9 2q-16 4 -51 4q-8 -2 -22 -6l2 2q-25 -2 -51 -16q-45 4 -52 49q-4 25 0 41q23 74 68 219q-2 18 -14 49v27q2 10 6 28q6 10 24 25l74 16 q45 4 45 64q0 12 -2 28v54q-2 -6 -8 -19q8 39 8 76q0 127 -76 246q-63 240 -65 487q-2 246 65 483q18 31 66 86q10 6 33 15h14q8 2 12 2q20 4 43 4q10 2 21 2h30q0 -2 3 -2v-4q27 10 57 6l141 -16q2 -2 6 -2h8l44 14q12 4 24 6q25 0 41 -8q8 -29 4 -45t-12 -31 q-27 -172 -27 -323q-2 -16 0 -25q2 -27 6 -80h-14q-10 -2 -16 -2zM631 342l-45 283q-45 283 -45 454q0 217 55 396l-18 -7q-20 8 -172 27l-56 -6q-23 0 -49 -10q-20 -45 -41 -95q-29 -143 -20 -280q14 -219 94 -549q37 -150 53 -274q6 -47 6 -50q-2 -16 -4 -51q0 -10 -6 -22 q4 -92 -53 -140q-43 -16 -82 -20l-33 -170q-4 -14 -12 -45h69q180 0 234 27q55 18 80 36q86 39 94 119q2 0 4 -2h2q6 45 12 199q7 137 -67 180z" />
<glyph unicode="k" horiz-adv-x="1333" d="M1399 -248v-6q-2 -4 -2 -6q-14 -18 -41 -57q-78 -27 -123 -35h-6q-12 0 -37 4h-10q-8 2 -13 2q-4 0 -10 -2h-72q-37 -2 -63 -10q-16 0 -51 -7q-12 0 -35 -4q-35 4 -86 17q-33 -16 -62 -17q-27 0 -38 11h4q-6 10 -4 12q0 4 4 8q8 70 10 139q2 70 -10 140q-6 -25 -23 -93 q-18 -41 -47 -122q-12 -20 -55 -43q-16 -10 -33 -21q-47 -31 -82 -31h-25q-16 2 -28 0q-4 0 -31 -2l-70 -6q-12 0 -26 -6q-51 4 -154 21q-68 0 -92 24l-8 25q0 12 20 94q2 2 4 2t5 2q14 31 51 238q4 18 10 53q2 27 -6 53q8 59 8 102q0 49 -25 97q-10 88 -53 200 q-39 96 -80 193q-47 111 -55 182q-31 100 -31 244q0 94 19 190q43 150 76 222l12 16q33 43 110 53v-2q2 0 2 -2q20 -4 54 -2h53q102 -2 178 -25q25 2 76 9q35 2 74 -9q16 -16 16 -61q-23 -82 -59 -248q6 14 22 37q96 209 205 285q27 18 47 20h78q8 -2 16 -2h17q14 0 45 -6 q16 0 51 -6h211q8 -2 20 -8q16 -23 11 -47q-6 -25 -9 -48q-279 -360 -301 -718q184 -240 254 -355q201 -324 201 -592q0 -49 -8 -96zM1149 -221l2 2l33 -4q14 -2 30 0q12 0 39 4q-37 -39 -75 -76q8 61 8 123q0 408 -430 926q29 356 321 727h-43q-20 0 -41 4q-39 4 -63 12 q-12 6 -21 6h2q-6 0 -18 4h-41q-18 0 -39 -4q-59 -55 -76 -102q-10 -18 -30 -58l-25 -40v-3q2 0 2 -2l-57 -122q-20 -43 -56 -127q-6 -72 -16 -101q-20 -59 -68 -69q-33 2 -56 27.5t-25 60.5q0 8 -3 28l-18 21q4 174 39 354q4 23 29 100h-23q-33 4 -96 11q-33 0 -76 12 q-23 -2 -68 -2t-67 -2q-2 -12 -29 -64q-4 -94 -39 -241q-2 4 -8 12q-4 -43 -4 -88q0 -197 102 -438q39 -92 76 -164q72 -188 72 -377q0 -188 -66 -360q20 0 82 -9q51 -8 82 -4h21q4 2 8 2q29 4 55 4h8q23 2 43 7q20 4 41 -7q66 195 60 347q12 47 12 94q0 35 -18 180l-5 14 v15q-2 6 2 12l3 4l2 14l12 15l14 8h35l25 -8l16 -15q29 -27 82 -59q0 -68 20 -139l39 -138q33 -115 33 -192q0 -43 -10 -88v-25q0 -14 4 -26q51 0 78 2q43 4 78 -2q10 2 18 2h59q6 2 11 2h12zM750 -358l-2 2z" />
<glyph unicode="l" horiz-adv-x="854" d="M922 -203q0 -2 -2 -2v-2q-4 -53 -48 -88q-35 -29 -98 -39q-37 -14 -270 -43q-195 2 -432 10q-37 2 -25 41q0 2 2 2v5q-20 2 -20 26q0 6 2 14.5t8 26.5q2 20 -8 31q59 152 59 327q0 147 -41 338q-25 111 -74 332q-39 186 -38 338q0 82 12 164q16 43 26 133q18 53 50 162 q4 8 22 24q57 47 117 39h24q4 -2 9 -2h28q12 -2 25 -2h26q20 -2 39 -4q18 -2 39 2h25q14 -4 20 -4q8 0 56 4q25 2 53 -2q47 4 67 -41q6 -39 5 -67q-2 -31 -15 -68q0 -25 -11 -73t-11 -42q-4 -18 -8 -43q-2 -20 7 -60t7 -60q-2 -18 -19 -33q-8 -178 88 -492 q100 -328 101 -489q14 0 40.5 -6.5t41.5 -6.5q29 8 59 7q31 -2 60 0q39 8 38 -43q-2 -12 -10 -21l-2 2l-6 -55q0 -8 -3 -26.5t-3 -26.5v-19q0 -8 -2 -18v-21q0 -12 -2 -22q2 -16 -4 -47v2q0 -29 -4 -62zM414 -254q125 12 374 53q0 6 5 15v10q2 6 2 8q0 35 6 99.5t6 93.5h-53 q-70 0 -131 20q-6 10 -23 29q0 2 -2 2v2q-8 14 -12 26q2 25 2 50q0 55 -13 112l-4 115q-4 90 -55 219l-43 107q-53 133 -55 223q0 31 -10 106q-10 68 -9 107q2 35 15 69q-2 53 8 142q14 106 16 139h-153q-53 0 -154 23q-14 -37 -61 -326v-8l-7 -6q6 -70 27 -209 q25 -96 70 -291q29 -86 55 -184q8 -10 21 -31q8 -31 10 -98.5t14 -102.5q14 -82 14 -166q0 -180 -73 -319q31 -6 61 -8l62 -5q18 2 38 0q35 -4 38.5 -6t13.5 -10z" />
<glyph unicode="m" horiz-adv-x="1644" d="M1692 -272h-2q-6 -10 -54 -58q-35 -29 -129 -26q-154 2 -141 2q-139 -2 -225 0q-16 2 -17 14q0 16 25 41q102 211 92 399q-2 16 -6 58q-31 -121 -74 -234q-29 -41 -82 -127q-8 -25 -28 -73q-59 -43 -129 -48q-8 0 -33 5h2q-12 0 -37 4l-25 -7l-20 -4q-8 -2 -21 0 q-10 2 -51 -2q-31 -2 -51 0q-14 -2 -20 11l-13 24q57 131 62 279q-10 -53 -43 -148q-20 -59 -76 -129q-8 -8 -33 -24q-20 -8 -35 -13q-18 -4 -34 2q-92 -14 -162 -10q-31 2 -170 -12q-57 6 -80 37q-6 25 14 65v-2q6 25 33 86q10 23 23 39q37 119 36 250q2 10 2 16v19 q0 20 7 39q-4 174 -185 489q-55 98 -78 156q-57 152 -57 303q0 223 109 426q8 10 30 29l43 24q27 0 41 -8l2 2q2 0 4 2q139 8 400 21h8q6 -2 8 -3q12 2 25 0q12 -2 24 -6h68q8 0 18 -2q10 -10 11 -16q-2 -8 -4 -12q8 -47 8 -93q0 -41 -8.5 -122.5t-8.5 -124.5 q2 -104 33 -152q-8 123 111 332q27 47 53 102q-2 -2 -4 -2l-2 -2q25 33 72 62q43 20 86 43q53 -2 156.5 -10.5t156.5 -10.5q10 -2 20 -2q8 0 19 2q27 2 71 8q14 2 31 0q10 0 29 4q41 -4 92 -38q4 -4 12 -11q-6 -33 -37 -41q-90 -178 -94 -379q-4 -203 82 -383 q217 -352 242 -598q10 -100 -15 -210q-3 -72 -77 -252zM1294 -229q84 -6 250 -21q109 188 105 424q-4 233 -123 416q-178 274 -178 561q0 176 69 334q-4 0 -10 2h-39q-10 2 -18 2h-17q-18 -4 -37 -4q-18 -2 -41 0h-30q-4 0 -11 2h-14q-8 0 -21.5 -2t-21.5 -2q-41 8 -82 8 q-55 14 -59 14l-35 4q-16 2 -37 2q-43 -63 -84 -227q-8 -37 -18 -86q-39 -84 -37 -176q2 -102 10 -184q8 -12 8 -27q0 -47 -47 -51q-8 0 -35 6q-18 -4 -51 43q-98 139 -121 283q-31 106 -30 374v37q-10 4 -82 19l-13 -2q-25 -4 -65 -4q-129 -18 -115 -19h-125q-45 0 -88 -37 q-57 -158 -47 -327q8 -133 84 -322q43 -164 162 -401q12 -39 41 -117l4 -4q6 -53 24 -158q-2 -74 -26 -158q-23 -74 -45 -147q-2 -8 -6 -23q18 -10 28 -12l21 -4q115 14 123 14h37q4 0 10 -2h18q25 0 37 -4h8l13 25q14 37 51 112q8 55 20 140q4 27 4 41q0 66 -18 215 q-41 156 -107 252q-27 37 -53 75q-33 51 -35 82l7 -6q-14 25 -15 43q12 10 37 25q23 2 43 -11q10 -8 29 -22q47 -51 80 -113q39 -37 108 -141l49 -74q25 -37 56 -69q53 -127 63 -269q4 -57 -14 -145q-18 -96 -19 -137q0 -6 -2 -11q14 0 43 5q18 0 41 -5q-4 -10 -14 -26 q125 109 188 270q61 156 49 326q-8 102 -51 217q-8 20 -39 137q2 20 25 25q6 0 12 2h10q39 0 105 -78q31 -51 84 -158q8 -23 22 -39q37 -92 54 -170q12 -55 12 -180v-8q0 -2 -2 -8q0 -8 0 -6q2 -49 2 -68q0 -29 -12 -66q4 -18 4 -38q-2 -18 -11 -35z" />
<glyph unicode="n" horiz-adv-x="1196" d="M1141 784l92 -243q92 -244 92 -394q0 -57 -10 -114q4 -37 -19 -123q0 -10 -7 -33.5t-5 -38.5q-25 -43 -63 -131q-80 -53 -111 -49q-121 -4 -281 -10l-124 -6q-31 -2 -41 32q16 96 16 193q0 100 -18 201q-4 -51 -31 -144q-12 -57 -28.5 -108.5t-53.5 -104.5 q-78 -86 -211 -80q-115 6 -242 19q-23 4 -22 22q0 6 2 15v2q-2 2 -2 4q0 10 4 28q18 23 53 68q49 156 49 315q0 266 -131 537q-104 217 -119 461q-12 227 64 446q14 41 76 86q10 2 30 11q25 -4 43 -15q41 -4 82 -4q29 -10 60 -10q10 0 30 2h45q8 0 25.5 2t28 2t39.5 4h20 q10 0 21 2q14 -8 34 -35q-10 -293 70 -475l-16 -10q2 102 30 250q35 180 82 227v-2q31 45 72 41q10 -4 29 -16q25 -2 53 0q39 4 51 2q27 4 53 2q25 -4 52 -8q16 2 30 0q18 -2 29 -5h10q8 0 23 5q25 12 30 10q14 2 54 -25q-100 -242 -101 -475q1 -166 62 -330zM1130 -221 q2 6 9 20l16 -28q57 168 57 344q0 256 -104 479q-135 289 -135 567q0 156 43 307l-244 33q-55 -188 -55 -344q0 -43 4 -88q0 -33 -10 -53q2 -27 12 -98q2 -14 25 -89q2 -8 9 -23t15 -42q-25 -43 -65 -51q-37 -2 -93 71q-8 20 -10 31l-10 21l-2 10q-14 27 -57 94 q-74 106 -113 244q2 31 -9.5 90t-11.5 86q2 2 4.5 3t4.5 3q-10 27 -15 61l-8 62q-6 0 -17.5 -2t-17.5 -2h-37q-18 0 -34 -4q-6 2 -68 10q-29 -2 -57 -2q-29 0 -58 4q-25 -61 -24 -82q-33 -92 -31 -121l6 -67q-10 -25 -10 -52q0 -39 37 -149q2 -131 102 -410q90 -250 88 -413 l-6 6q25 -57 27 -107q6 -96 -66 -319l234 -4q2 0 6 2q14 29 33 84q-2 10 -17 24q45 170 37 338t-70 334q0 8 -2 14q-4 14 19 37q8 8 24 6q41 0 93 -51q23 -45 75 -127q4 -12 88 -229q53 -135 64 -236q2 4 3 5t3 6q0 -37 6 -99q8 -80 10 -96l62 -12q29 0 63 -4h4q37 4 76 4 h23q12 0 22 2h15q10 2 14 2h24zM649 999h-2l2 -6v6zM514 -96l-2 -2zM510 -106v4q2 2 2 4v-4q-2 -2 -2 -4z" />
<glyph unicode="o" horiz-adv-x="1204" d="M1300 457q2 -16 11 -35q43 -102 35 -199q-23 -268 -312 -495q-51 -25 -151 -74q-86 -4 -258 -14q-27 -10 -37 -9q-16 0 -32 7l-17 6q-20 8 -31 8l2 2q2 0 4 2q-190 -14 -303 246l-74 440q-20 123 -88 276q-39 90 -55 134q-29 80 -39 139q0 27 -12 49q2 12 2 27 q0 31 -21 86q6 10 17 28v0q2 20 8 62v-2q4 23 28 57q-8 227 252 363q74 31 197 47q182 25 203 30q37 -14 86 -16q39 -2 86 -4h-2q12 -4 24 -2q10 2 23 2l37 -8q18 -4 30 -21h-4q45 -27 80 -82q4 -8 55 -104l3 -2q25 -106 26 -207q2 -147 76 -379q20 -63 76.5 -180t74.5 -178 zM1198 227v-4q2 -2 2 -4q4 29 2 60q-2 29 -2 57q-16 37 -55 106q-16 61 -41 121l-49 119q-20 49 -45 131q-31 102 -31 131q-2 10 -4 19q-2 8 0 18v8q-2 4 -2 6v23q-2 16 -2 20q-4 12 -4 19v-8q-12 35 -15 131q-2 78 -37.5 128t-42.5 68q-39 33 -63 80q-27 27 -43 27l8 8 q-33 8 -96.5 8t-91.5 6q-90 -10 -267 -53q-12 0 -26 -10q-76 -29 -121 -88q-96 -80 -109 -314q2 -8 -4 -24v2q-2 -2 -2 -4t-2 -4q0 -23 -2 -43t0 -41q55 -168 146 -359q51 -106 69 -307q39 -131 119 -334q16 -43 53 -88q29 -23 43 -33q27 -16 49 -20q-2 -2 -4 -2l-2 -2 q43 -4 129 -19h-6q254 -10 363 113q166 92 186 352zM881 236q2 -53 2 -76q-4 -133 -101 -211l-16 12l-4 2q-10 -2 -21 -2q-57 0 -90 74q-10 23 -16 45q2 16 0 37q-4 20 -10 63q-2 14 4 27l-6 14q-74 213 -158 418q-96 233 -90 358q2 43 18 129q8 39 15 78l8 49q37 59 96 78 q104 0 117 -151q8 -29 10 -89.5t10 -89.5q23 -174 86 -342q106 -279 123 -337q2 -12 6 -27l2 2q5 -20 15 -61zM770 207q-20 109 -147 426q-104 262 -105 434l-4 8v-4q-2 18 -6 57l-2 -10l-4 -12q4 -35 4 -59q0 -4 -4 -60l30 12q8 -174 119 -450q-2 -31 41 -170 q27 -88 56 -174q6 -23 4 -55q4 18 18 57z" />
<glyph unicode="p" horiz-adv-x="1089" d="M1010 1016q-2 -4 -6 -15q76 -330 75 -436q0 -18 -10 -45q-35 -49 -115 -88q-39 4 -90 -10l-86 -25q2 0 2 -2h2q-31 -8 -86 -39q18 -84 19 -157q0 -78 -4 -158q0 -8 -9 -59v-17q-4 -39 -5 -51t-6 -34.5t-5 -35.5q-23 -88 -82 -145q-66 -66 -149 -57q-33 2 -78 10 q0 -2 -2 -2v-2q-39 8 -72 12q-49 0 -100 8l-103 17q-20 29 -18 61q2 33 2 68q6 45 18 92l7 37q14 49 17 78.5t3 39.5q8 27 41 31q35 0 35 -33v-4q-18 0 -37 2q-20 2 -39 0v-18q6 53 6 106q0 154 -57 353q-35 111 -101 331q-51 186 -53 342q0 111 39 234q4 12 10 27 q-4 25 7 49q16 35 17 43t3 12q8 51 78 76h-2q63 23 297 39q72 4 112 4q123 -2 217 -43q33 -2 68 -27q27 -23 55 -47q-2 -2 -6 -2t-6 -2q61 -25 111 -123q14 -61 41 -186v4q16 -70 45 -213zM893 965q0 -6 4 -15q-8 66 -18 113q-14 68 -33 111q-14 98 -53 155 q-66 141 -170 144q-23 4 -66 12q-14 0 -29 4l-385 33q-63 -188 -67 -392q-4 -205 55 -393q127 -293 127 -559q0 -135 -33 -270q2 -8 -6 -68l2 2q-2 -6 -2 -24q0 -6 -4 -23q43 0 141 -12q92 -10 144 -8q10 2 32 6q14 25 35 92q2 20 8 41v14l3 15q4 33 6 39q6 23 24 26 q10 186 -37 361q-10 20 -26 59q-4 16 28 61q33 2 99 13v6q-2 0 -2 4q63 12 182 53q43 10 53 13q31 12 43 28v-2q2 18 -8 55q-6 20 -12 56q0 -2 -2 -2v-2q-4 49 -21 143q-14 53 -14 82q0 15 2 29zM666 993l4 6q-2 -33 7 -96t7 -96q-4 2 -5 3t-5 3q8 -88 -76 -137 q-20 -8 -47 -6q-72 4 -107 63l-12 37q-8 25 -33 33q-37 143 -37 303q0 68 7 137q4 10 12 29q23 23 51 22q14 0 31 -6q133 8 178 -201q13 -59 25 -94zM543 971l2 -4q2 25 -13 63q-18 47 -20 64v-2q-6 14 -18 41v-11q0 -127 30 -237q0 -8 4 -23l7 -20l2 -2l4 -15q14 37 14 74 q0 33 -12 72z" />
<glyph unicode="q" horiz-adv-x="1247" d="M1403 -90q-2 0 -2 2h-2q-12 -51 -113 -125q-72 -53 -124 -99t-99 -55q-29 4 -80 56q-10 10 -29 32q-27 -10 -43 -20q-53 -20 -159 -59q-53 -6 -158 -17q-23 0 -47.5 6.5t-54.5 18.5q-18 -2 -55.5 11t-57.5 9q-121 106 -172 371q-6 33 -29 135v39q-2 12 2 25q-4 10 -24 88 q-12 70 -45 90q-16 66 -76 207q-55 131 -70 206q-14 39 -26 82l-25 91q-2 16 10.5 25t28.5 5l-6 6q-18 25 -23 66v70q72 219 334 393q53 18 207 47q115 23 192 18q33 2 70 -12l-2 2q16 -4 47 -14l-2 2q25 -6 49 -6q23 -12 62 -19q53 -10 63 -12q63 -43 80 -90q8 16 20 33 q-2 -139 62 -426q4 -12 45 -160q29 -100 29 -160q0 -4 2 -4v-6q0 2 -2 2v2q2 -8 14 -47q23 -49 61 -152q2 -6 37 -129q14 -57 31 -119q10 -84 31 -163q0 2 -2 2v2q0 -6 4 -13q2 -6 -2 -12q2 -14 -13 -76q-10 -25 -22 -36l-2 -3q29 -20 82 -67q4 -10 4 -21v-22zM1122 -215 l-4 -4q43 37 129 113q-16 8 -69 61q-16 20 -2 49q4 8 43 72v-2q-2 -2 -2 -4q16 82 8 157q-4 43 -37 166h2q-12 63 -47 131l-45 146q-20 68 -51 141q-23 82 -37 154q-12 61 -23 180q-20 33 -78 207q-10 29 -28 67q-78 51 -195 62q-23 4 -68 14l-10 4q-12 4 -10 12 q-190 -4 -317 -53q-115 -66 -154 -145q-8 -12 -36 -80t-28 -76v-4q-2 -2 -2 -4q-2 0 -2 2h-4q-20 -115 -16 -143q10 -31 29 -93q25 -78 22 -100q37 -106 90 -199q10 -25 39 -86l19 -34q4 -6 12 -35q55 -178 57 -285q20 -68 53 -205q4 -31 23 -57q-4 -27 45 -94 q10 -6 34.5 -12.5t35.5 -12.5q-4 2 -6 2l-5 2q16 -4 99 -18q55 -10 98 -6q23 -4 45 -4q45 0 125 22q43 12 84 33h-2q0 -2 -2 -2q66 33 80 33q12 -2 71 -39q10 -8 19 -17l16 -16h2zM885 336h8q20 -86 16 -164q-4 -82 -37 -162q-10 -23 -63 -65v2q2 0 2 2l-37 -21 q-18 -10 -41 -14q-20 0 -35 8q-31 27 -84 144q10 31 8.5 92t2.5 86q-10 25 -62 186q-47 150 -137 297q-31 80 -53 170q4 -2 12 -4q-33 72 -27 154q6 80 21 155l-4 -2q18 43 61 86q25 18 80 41q61 -20 90 -86q10 -68 39 -246q6 -39 35 -61q14 -109 100 -299q89 -197 105 -299 zM692 537q-31 63 -90 192q0 -2 -2 -2v-2q-55 113 -84 248q0 16 -20 137q0 -8 -1 -15.5t1 -15.5q-2 -18 -2 -28q-2 -16 2 -29l2 -23v-12q2 -14 12 -37l18 11l4 4q2 -111 80 -318q33 -88 56 -158q29 -92 37 -159q14 -39 22 -94q10 -84 14 -95q6 -35 15 -69q0 -4 2 -4v-7 q2 6 6 21q14 61 12 127q-6 156 -84 328z" />
<glyph unicode="r" horiz-adv-x="1163" d="M1294 176q2 -2 2 -3t2 -3q12 -25 13 -49q0 -20 -12.5 -64.5t-16.5 -62.5q0 -74 -80 -275q-12 -18 -26 -32q-57 -33 -99 -49l2 2q2 0 4 2q-20 -4 -53 -21q-55 4 -172 16.5t-176 12.5q-33 6 -23 31q0 2 50 153q18 43 43 262q2 20 0 43q2 70 -50 199l-2 -14q20 -57 37 -189 q-10 -98 -10 -190q-23 -76 -82 -224q-49 -35 -53 -36q-31 -18 -57 -21q-10 0 -62 -8q-31 -4 -61 6l-256 -6q-20 0 -54 14q-10 18 -8 35q2 4 4 16q2 8 0 19q4 31 11 57q51 195 45 336q-10 33 -9 66l5 63q-4 47 -5 51q-6 33 -18 47q-27 133 -78 258q-10 25 -29 84q-6 10 -8 37 q-2 20 -14 29q-27 63 -51 197q-16 90 -17 176q2 233 72 409q59 47 131 82q92 -10 209 -14q109 -4 207 20q76 4 151 4q72 0 150 -22q25 -6 108 -59q49 -61 60 -146q-2 -2 -4 -2l-2 -2q2 -41 12 -121q-10 -199 35 -332q2 -51 10 -161q2 -29 -16 -47l-35 -35q-4 -4 -10.5 -5 t-10.5 -5q10 -8 23 -15l24 -12q129 -113 170 -199q43 -117 52 -149q26 -86 28 -154zM1167 139q-6 0 -18 -4q0 274 -92 379v6q-2 0 -2 4q-63 70 -197 121l-16 12q-8 6 -37 45q-4 12 -4 25q0 57 67 72q43 8 70 30q-2 0 -2 -2h-2q4 35 0 72q-4 35 10 70q-2 47 -20 151 q-16 98 -17 154q0 35 4 67q-37 76 -105.5 123t-148.5 43q-37 -2 -100 4q-72 6 -100 7q-49 0 -97 -15q-70 6 -131 -8q-33 -4 -67 -4h-12q-10 -2 -17 -2q-18 -10 -27 -51q-29 -137 -24 -273q2 -121 39 -274q10 -80 49 -209l61 -209q39 -158 39 -278q0 -74 -16 -150 q-4 -145 -29 -248q51 -2 154.5 -10t155.5 -10q35 113 71 276v94q-2 193 -80 361q-4 27 12.5 50.5t43.5 19.5q12 2 26 2q96 0 180 -125l3 -4h2q23 -53 51 -164l-2 4v-8q29 -68 43 -121q4 -168 -62 -377q27 -10 135 -23q20 2 60 5q35 4 59 -3q74 170 90 375zM647 1010q2 2 3 4 t3 4q0 -82 -18 -158q-23 -16 -62 -53q-45 -29 -69 -29q-10 0 -29 4q-33 4 -57 25q-23 82 -35 203q-8 104 -18 207q2 12 16 28q37 43 80 35q12 2 22 2q57 0 101 -63q12 -18 24 -43l4 -5q18 -29 25 -79q8 -74 10 -82zM520 1014q-2 31 -20 86l4 -80q2 -41 10 -82q10 37 6 76z " />
<glyph unicode="s" horiz-adv-x="1165" d="M1311 207q0 -33 -45 -33l2 -2q2 0 4 -2q25 -6 28 -35v-14q-2 -10 -2 -17l-8 -16q-6 -16 -18 -51q-6 4 -17 14q-14 -123 -135 -248l-65 -67q-137 -84 -348 -107q-49 6 -179 17q-74 4 -161 41q-41 29 -82 98q-47 80 -72 104q-57 166 -57 248q0 147 -25 273q29 47 72 59 q8 -2 159 -10q94 -6 158 -27q-8 -2 -22 -10q-31 23 -234 151q-141 90 -225 162q-104 121 -137 314q0 141 92 346q180 209 426 219q59 2 160 18q113 18 159 23q141 -43 197 -105q70 -117 70 -204q0 -20 -5 -41q4 -14 7 -56q14 -209 14 -192v-35l-2 2v-23q4 -31 -37 -36 q-25 2 -129 6q-12 0 -82 8h-12q-49 -8 -94 -8h-15l-20 -4h-2l-23 -4h-6l-16 24q162 -106 471 -332q96 -70 157 -184q43 -61 78 -176q4 -16 13 -51q2 -10 8 -37zM1169 272l15 -14q-47 156 -152 264h-18q-57 80 -197 160q-25 14 -74 43q2 -2 9 -10q-43 37 -129 87t-129 81 q-33 25 -80 49q-70 80 -70 188q-8 68 37 119q41 70 98 70q111 0 129 -150l8 -65q10 2 19 2h18q25 4 47 4l-4 -2q33 4 97 12q45 -6 137 -16q-4 2 -15 8q-27 63 -34 141q2 -18 10 -55q-8 76 -49 223q-49 111 -180 107q-14 0 -45 -5.5t-48 -5.5q-6 0 -20 -4q-20 4 -41 4 q10 0 -119 -18q-61 -8 -156 -33q-23 -14 -77 -63q-18 -16 -66 -60q-23 -63 -51 -205l-4 -73q16 -109 41 -172q12 -47 96 -125q100 -63 416 -236q80 -43 186 -135q63 -55 88 -164q0 -16 -5 -52t-5 -54q0 -25 8 -51q-33 -109 -155 -127q-10 0 -29 3t-29 3q-14 2 -29 -4 q-43 78 -38 178q-6 63 -27 186q-80 6 -242 23h-4q-2 -2 -6 -2h-16v-33q0 -2 2 -4v-43q-2 -4 -2 -6l-2 -4q8 -18 8 -46q-2 -14 3 -42.5t5 -38.5q6 -31 16 -91q90 -145 168 -217q94 -51 234 -41q31 0 90 -4q66 14 123 54q23 8 65.5 28.5t65.5 28.5q121 150 121 311 q-1 47 -13 94zM664 338l-9 10q10 -27 25 -82q-2 -6 -8 -20q8 -61 49 -176q6 23 8 49q2 25 -8 47q11 88 -57 172zM465 1135q4 -45 31 -76q-4 31 -29 115q-2 -10 -2 -21v-18z" />
<glyph unicode="t" horiz-adv-x="1116" d="M1028 1286h-18q8 -12 30 -33q0 -123 -88 -118q-25 2 -39 18q-2 0 -8 4q-20 -4 -59 -12q-10 0 -31.5 -4t-32.5 -4q0 -6 2 -20.5t2 -20.5v-11q0 -6 5 -18l-5 -10q-4 -45 -2 -111q2 -61 11 -108q111 -260 151 -394q63 -213 62 -411q-2 -141 -52 -279q-78 -109 -145 -102 q-57 -4 -172 -4l-98 -13q-12 0 -47 -6q-4 0 -11 -2h-24q-31 6 -94 25q-14 10 -17 29q-4 8 -12 22q27 45 104 213q12 80 13 160q0 182 -54 346q-8 23 -120 262q-20 43 -58 141q-45 119 -45 140q-4 37 -22 118q-66 25 -109 23q-18 -4 -55 -10q-57 10 -82 45q-2 86 8 168 q2 41 12 90q0 4 4 18q10 37 27 53q2 10 2 19v20l12 37q37 27 88 84q111 -4 220 -2t217 19q119 -2 534 -21q35 -2 51 -43q-10 -39 -24 -115q-12 -29 -15.5 -91t-15.5 -91zM731 1264l-4 2q37 -4 96 2q72 8 95 8q0 70 10 209q-12 0 -35 -4q-70 0 -195 16q-135 18 -194 21 l-416 -41q-45 -150 -45 -193q0 -18 6 -37q0 -8 -4 -16q33 2 92 -4q68 -8 92 -8q45 0 50 -45q0 -63 34 -238q-2 -72 31 -154q8 -20 70 -141l2 -20q55 -61 78 -213q49 -133 47 -322q0 -162 -49 -324q12 -2 34 -6l127 8q68 4 168 27q41 176 51 238q25 143 13 239q-8 68 -39 154 q-23 61 -49 145l-6 49q-4 12 -3 23q-70 141 -98 301q-10 20 -10 31q-4 37 -10 59q-6 47 -17 144q10 82 78 90z" />
<glyph unicode="u" horiz-adv-x="1218" d="M1276 506h4q47 -207 45 -256q6 -49 -22 -121q-8 -29 -31 -86v2q-8 -18 -12 -41q-63 -160 -267 -283q-162 -98 -305 -98h-4q-12 0 -39 -4q6 0 -16 -2q-29 0 -68 -2q-111 -4 -168 39q-78 18 -131 96q-12 16 -82 150l-16 94q-10 59 -8 96l10 146q-6 121 -84 313l-62 151 q-86 211 -86 437q0 223 76 424q12 18 45 45q16 10 27 10q29 0 186 -14q8 0 43 -9q59 4 103 2q61 -4 100 -2q16 -2 21 -14q2 -12 -7 -23q2 -41 -20 -133l-16 -67q-8 -33 -9 -70l4 -33l2 -16l5 -14q2 -8 0 -17l-5 -16q-2 -8 -10 -14q2 -178 121 -484q123 -313 133 -479 q2 -18 10 -39q-10 6 -28 16q0 170 -109 437q-16 39 -53 139q-53 156 -55 340q-2 111 55 379q43 135 135 162q92 -4 186 -5q158 0 238 -12l53 -8q20 -14 25 -29q4 -23 -10 -47l-23 -39q-12 -66 -39 -196q-6 -18 -6 -23v-20q0 -10 -2 -21q2 -14 -1 -27.5t1 -27.5 q-2 -31 -27 -57q10 -4 31 -19q4 -258 162 -610zM1022 836q-33 115 -45 280q-4 45 -2 103q0 25 12 98q18 147 19 123q0 31 -15 61h-301q-8 -31 -20 -90q-16 -27 -17 -55q0 -66 60 -109q-23 -88 -23 -174q0 -131 66 -352q12 -45 73 -258q49 -170 39 -264q4 -27 -10 -103 q-16 -90 -135 -116q-51 10 -100 114q-8 27 -11 68q0 35 25 59q-12 102 -62 238q-27 76 -92 227q-123 289 -114 475q0 8 -4.5 21.5t-4.5 21.5l-2 10v-6q-2 14 -10 41q12 113 43 203l-147 18l-148 17q-35 -137 -33 -287q2 -172 35 -287q12 -98 103 -352q78 -217 73 -356 q-4 -188 88 -318q29 -68 109 -102q14 -6 147 -45q92 8 183 18q111 16 170 56q106 94 147 163v-4q61 72 90 267q-6 127 -75 303q-99 250 -111 293z" />
<glyph unicode="v" horiz-adv-x="1361" d="M1358 1575q0 -2 4 -8q-63 -68 -154 -287q-14 -111 -10 -223q4 -113 39 -221q-4 -29 -4 -58q0 -63 39 -194q53 -182 53 -254q18 -86 -2 -171t-66 -161q-33 -131 -155 -262q-53 -70 -115 -78q-139 -18 -160 -18l-6 12q-238 -8 -209 -10q-35 2 -96 -4q-72 -6 -98 -7h-19 q-20 -2 -45 23l4 4q-23 6 -22 29q20 80 29 153q29 100 28 125q12 8 29 21q-61 379 -244 612l6 -12q-80 94 -180 303q-12 33 -23.5 64.5t-46.5 62.5q16 16 11 41q-16 72 -25 170q8 160 64 262q-2 -2 -8.5 -9t-8.5 -10q-16 16 -20 27q-2 10 2 21q68 88 143 92l191 4l190 4 l25 6q6 0 14 2h12q31 0 35 -16q4 -14 -6 -25q-2 -16 -14 -76q-8 -47 -9 -75q-6 -45 -22 -134q-2 -6 0 -18q0 -156 88 -360q-27 84 -25 174q2 246 158 499q2 2 11.5 10.5t17.5 16.5l12 12q18 8 47 27q57 -27 131 -21q51 2 182 13l48 4q39 4 168 -17q25 -4 18 -30v0 q0 -2 -2 -2v-2l2 2q0 -10 -6 -33zM1180 1491q2 8 10 27q-41 10 -62 24l-225 -6q-184 -293 -184 -616q0 -264 129 -480q4 -25 -2 -41q-29 -20 -53 -20q-35 -6 -72 49q-45 121 -150 229q-20 43 -73.5 121t-73.5 121q-23 76 -57 272l-2 21v25q0 12 6 55q6 35 2 55q4 37 22 111 q2 14 5 30.5t14 20.5q-111 0 -334 4l2 -2q2 0 4 -2q-18 -33 -16 -76v-80q0 -29 -2 -63q-2 -33 0 -68q4 -74 41 -121q-10 -258 227 -501q111 -160 113 -263q61 -129 94 -264q-41 -117 -51 -286q16 -4 51 -13q33 6 100 19q45 4 111 2q109 -2 108 -2q35 0 133 20q20 8 29 31 q166 178 174 428v-8q2 -6 2 -8q6 41 6 79q0 109 -47 230q-33 82 -110 295q-6 84 32 370q27 97 99 281zM1362 1606z" />
<glyph unicode="w" horiz-adv-x="1968" d="M1966 1538l6 -31q-158 -127 -157 -407q0 -31 2 -62q4 -4 14 -12q-6 -154 111 -350l96 -162q53 -88 82 -168q-6 -139 -11 -170q-8 -78 -36 -166q-20 -92 -70 -141q-39 -96 -150 -182q-25 -12 -24 -13q-4 0 -6 7q-74 -12 -146 -27q-102 -18 -137 -16q-39 2 -110 8 q-25 2 -54 4t-55 -2h-6q-4 2 -6 2l-125 -17q-6 2 -10 2q16 29 45 58q-8 45 -5 82q2 27 17 127q10 76 8 125l4 36q2 18 -2 37q-4 -10 -18 -24q-16 -156 -131 -289l2 2q-18 -29 -20.5 -32t-18.5 -29q-88 -88 -142 -88q-14 -2 -43 -9q-10 -2 -20 0q-20 4 -27 13l-4 4h-28 q-18 -4 -134 -10v-5q-2 0 -2 -2q-18 0 -77 -6q-49 -4 -78 0q-57 6 -146 6q-27 6 -43 33q-2 6 -2 14q0 6 10 25l11 23q20 61 20 49q0 6 21 26q37 129 37 211q0 55 -17 111q-23 150 -84 285h-2q0 2 -2 2q-63 111 -172 208q-66 84 -184 261l-37 106q-20 59 -25 109 q-6 33 -20 100q-4 59 -2 102q2 37 22 99q6 25 21 61q12 23 31 76q39 63 118 67q29 -4 23 -4q59 10 153 15q16 -2 31 0q14 2 29 2h37q20 0 39 -4h104q16 2 31 0q14 -2 30 -6q-53 -113 -59 -234q-43 -90 -43 -166q0 -37 10 -72l2 -18q6 -27 23 -53q-6 37 -2 74q18 70 49 210h6 q51 150 117 224q45 51 141 51q27 0 45 -8q8 -2 33 -4q16 0 20 -15q37 16 164 23q31 -2 168 12q55 0 84 -22q14 -14 19 -13q-119 -162 -119 -430q0 -59 6 -117q-14 254 193 529q39 43 170 55q201 18 245 19q35 0 68 -13h2q-6 0 -21 -4h5q12 6 34 10q6 0 18.5 3.5t18.5 3.5h21 q31 6 47 -21q-6 -49 -31 -88zM1696 1253h-6q59 158 114 256q-12 2 -35 -2q-23 -2 -34 0h-41q-12 0 -36 4.5t-36 4.5q-18 -2 -35 -3h-49v9q-2 6 -2 8q-205 -184 -215 -553q37 -100 145 -272q113 -178 150 -269q10 -14 8 -26q-6 -37 -45 -37q-8 0 -14 2q-41 4 -62 33 q-133 186 -246 311l25 -17l4 -2q-119 127 -188 256q-33 129 -33 201q0 49 14 100q-8 78 49 242l-120 -12q-16 0 -51 -5t-52 -5q-23 0 -45 8q-27 -4 -55 -4q-53 0 -107 16q-123 -190 -123 -381q0 -147 123 -389q2 -4 172 -291q-10 -43 -45 -47q-20 0 -39 6q-27 0 -61 41 q-43 68 -90 123l-98 117q-229 272 -230 547q0 143 53 268q-16 -4 -32 -6q-18 -2 -35 2q-27 0 -68 4q-18 2 -32 0t-30 4t-22 6q-23 -6 -92 -18l6 -6q-31 -66 -61 -258v4q0 -10 6 -29q10 -49 8 -72q68 -252 236 -475l-2 2q270 -240 297 -532q8 -100 -27 -207q8 -72 -43 -150 q43 2 178 -2q102 -2 178 0q16 4 47 13h9q4 2 6 2h-4q12 0 47 6l37 18q119 176 135 307q2 96 -49 314q0 57 -43 133q-6 10 -78 121l10 12l4 8q14 16 35 19q8 0 49 -19q49 -23 57 -24q29 -47 105 -142.5t100 -156.5q80 -154 84 -301v16q2 8 2 14q6 -215 -28 -323q4 0 10 -2h6 q10 0 28.5 -2t28.5 -2q23 -2 52 8q35 0 102.5 -3t101.5 -3h62q33 4 57 -19q203 199 195 492q2 2 5 6t5 6q-6 139 -141 348q-82 125 -101 162q-47 90 -61 180q-29 86 -25 154q7 73 21 153zM1874 1634h-2q4 0 6 2v0q-2 -2 -4 -2zM825 -356z" />
<glyph unicode="x" horiz-adv-x="1239" d="M1307 -297q-2 -2 -11 -8q-16 -6 -36 -8q-20 0 -33 16q-158 -53 -424 -78q-29 0 -29 25q0 31 8 63l17 66q8 37 8 65q0 31 -21 66q2 27 2 53q0 27 -4 53l-57 -151q-35 -92 -74 -141q-51 -94 -155 -89l-99 7l-37 4q-18 2 -36 6q-41 4 -33 4q-41 -2 -152 -14h-8q-35 6 -41 24 q-2 4 -4 15q-2 6 2 14l4 8q14 29 31 49h-2q0 -2 -2 -2q12 23 31 29q96 256 90 450q0 2 -2 37q-2 27 -2 49q2 88 -62 291q-8 59 -26 180l-9 17q-49 72 -112 227q-2 23 -17 68h4q0 -2 2 -2q-18 31 -30.5 97.5t-24.5 94.5q0 23 4 67t4 66q0 31 -8 62q-2 16 19 43q16 12 49 39 q16 6 35 20q23 -2 47 -2q45 0 145 16q57 -20 121 -12q76 8 119 17q23 0 22 -17q0 -6 -2 -14q-6 -37 -6 -72q0 -78 33 -217q18 131 84 234q8 8 22 24q47 18 82 60q61 6 189 18l186 16q39 0 61 -57q2 2 2 4t3 4q-246 -356 -246 -708q0 -43 4 -88q135 -174 186 -246 q104 -143 174 -256q53 -135 68 -273q6 -63 -4 -166q-12 -120 -49 -147zM915 -238q72 -4 310 54v75q0 53 -2 76q-6 76 -43 279q-25 49 -74 145l2 -8q-31 51 -90 152l-8 10q-72 88 -107 123q-66 63 -133 92q-18 369 225 741q-10 -2 -32 -10q-90 6 -234 -45q-31 -74 -84 -234 q-41 -121 -57 -227l-10 -10q-2 -2 -5.5 -8t-5.5 -9l-12 -8q-6 -4 -14 -4h-27q-10 2 -31 15q-6 14 -20 47q-18 41 -49 110q2 27 0 51q-2 25 -6 50h12q-23 94 -29 264q-25 0 -24 24q0 8 6 15q-59 -35 -123 -43q-10 0 -43 6q-39 -8 -111 -8q14 -47 8 -95q-6 -49 0 -94 q0 -84 48 -184q-4 -10 -5 -21q0 8 15 -51l-4 -2q18 -39 61 -115q23 -31 60 -98q10 -25 18 -91.5t25 -98.5q23 -63 24 -123q2 -63 -24 -125q20 -102 20 -209q0 -201 -74 -379q0 -2 -6 -20q12 -2 35 -7q37 2 74 3h73q12 2 60 4q31 2 57 -2q25 49 45 118q14 49 39 121 q16 41 14 86q18 41 21 80q6 70 -14 162l-17 78q16 41 60 47q66 -8 88 -78q29 -98 108 -358v6l8 -29q2 -14 -2 -31q12 -104 7 -209h-3zM483 961z" />
<glyph unicode="y" horiz-adv-x="1173" d="M1192 1550q-238 -342 -238 -759q0 -156 37 -310q78 -147 107 -270q2 -33 2 -66q0 -227 -86 -415q-31 -70 -113 -88q2 0 4 -2h2q-27 -4 -82 -21q-94 8 -284 29q-2 0 -9 -2h-8q-8 -2 -16 -2h-16q-27 0 -41 -4h-13q-16 4 -45 22q-8 16 -8 25v10l8 16q4 8 13 4q70 166 83 365 q0 10 -2 45q-2 23 0 43l-20 102q-10 53 -16 103q-12 45 -58 133q-6 6 -14 22q-33 45 -66 95q-35 33 -47 73q-150 182 -192 301q0 -8 -6 -22q-45 94 -80 369q4 25 0 49l-8 49q-8 25 -7 49q2 25 7 49q16 39 108 70q55 10 100 26q55 -35 144 -34q27 0 78 5t75 5l17 -29 q-4 -66 16 -321l2 6q0 -25 8 -66q8 -49 11 -65q10 61 34 161q41 166 125 287q23 20 68 45q27 -2 57 0q35 0 105 4q20 2 43 0q20 0 61 2t62 2h26q14 0 27 7q14 -2 29.5 -4.5t21.5 -14.5q4 -27 2 -41t-6 -24l8 -17q-4 2 -6 2zM954 209q2 -2 7 -8q-27 100 -89 301 q-29 125 -32 262q-10 418 211 747q-35 2 -107 11q-53 -4 -158 -19q-2 -2 -6 -5t-6 -5q-8 -37 -37.5 -106.5t-38.5 -104.5q-4 -47 -26 -137q-27 -104 -33 -137q-12 -70 4 -140q0 -6 4 -16l-4 -21q-2 -10 -6 -20l-14 -12l-13 -6h-28l-23 6l-14 14q-51 51 -66 107q2 2 4 3t4 3 q-57 152 -69 190q-33 104 -29 199v61l6 -2q-10 31 -6 62t10 61l-301 -8q-2 -76 19 -150q4 -68 6 -104q4 -61 18 -105q-12 -12 -20 -16q182 -305 446 -655q0 -16 15 -140q25 -72 26 -135q2 -74 -16 -204l-31 -205q2 0 2 -2q27 2 80 8q55 -4 133 -19q23 -4 39 -2 q23 -10 64 -34q78 197 77 403q0 39 -2 80zM410 1483q-4 2 -15 6z" />
<glyph unicode="z" horiz-adv-x="968" d="M1047 -260q-6 -10 -23 -29q-27 -20 -51 -30q-2 -2 -10.5 -7.5t-10.5 -7.5q-18 -4 -22 -4q-4 2 -4 6q-137 -41 -303 -41q-78 0 -154 8q-84 -4 -170 -10t-170 17q-8 4 -23 14q-6 25 -26 49l-4 12q-2 4 -2 9q0 4 2 6q10 59 33 176h-3q0 -2 -2 -2q12 55 13 114q18 51 53 156 q8 25 25 86q14 74 18 88q12 45 12 90q0 51 -12 140q-14 98 -16 139q-2 49 14 65q4 35 12 166q6 109 23 164q-20 4 -62 14h4q0 -2 2 -2q-37 8 -73 13q6 0 -66 -15q-35 6 -80 52v18q0 6 -2 12t2 13q0 6 -2 12v12q0 14 4 41l7 12q20 178 51 273q12 39 104 63q41 10 70 23 l674 -13q35 4 45 -34q-4 -35 -6 -72l-5 -72q-47 -133 -67 -213q-84 -190 -72 -526q2 -90 8 -268q4 -135 -24 -267q0 -2 -2 -2v-2l71 15q23 -4 47 -6l50 -5q29 2 112 -16q25 -10 33 -24q18 -70 18 -136q0 -33 -4 -59q1 0 -36 -215zM852 -229q29 0 63 12q37 102 52 164 q-14 102 -15 108q-33 6 -96 19v-2q-39 0 -76 -6v-3l-37 -4q-18 -2 -38 -2l-19 -6l-33 8q-16 4 -22 19q0 16 26 94q-33 0 -32 49v23q25 205 22 303q-2 63 -6 145q18 172 29 240q20 135 55 235q16 -8 25 -14q2 12 6 45l4 21v14l-2 -4l2 2q0 6 -2 14q-2 6 2 12q-6 23 12 31 q-4 25 -4 49q0 84 43 152l-670 22l-20 -57q-10 -29 -17 -57l5 -66q2 -33 6 -65l6 -2q16 2 72 -13q6 0 16 -4q14 0 45 6h-2q2 2 63 9q33 4 52.5 -23t15.5 -59q-14 -55 -35 -166v10q-27 -154 -22 -356q8 -326 6 -361q-8 -61 -43 -182q-10 -18 -58 -119q10 -35 11 -72 q0 -33 -23 -159q6 -6 25 -17h78q10 0 20 2h117q12 2 28 -2q8 -4 23 -18q111 23 342 31z" />
<glyph unicode="&#x2000;" horiz-adv-x="830" />
<glyph unicode="&#x2001;" horiz-adv-x="1661" />
<glyph unicode="&#x2002;" horiz-adv-x="830" />
<glyph unicode="&#x2003;" horiz-adv-x="1661" />
<glyph unicode="&#x2004;" horiz-adv-x="553" />
<glyph unicode="&#x2005;" horiz-adv-x="415" />
<glyph unicode="&#x2006;" horiz-adv-x="276" />
<glyph unicode="&#x2007;" horiz-adv-x="276" />
<glyph unicode="&#x2008;" horiz-adv-x="207" />
<glyph unicode="&#x2009;" horiz-adv-x="332" />
<glyph unicode="&#x200a;" horiz-adv-x="92" />
<glyph unicode="&#x202f;" horiz-adv-x="332" />
<glyph unicode="&#x205f;" horiz-adv-x="415" />
<glyph unicode="&#x25fc;" horiz-adv-x="1638" d="M0 1638h1638v-1638h-1638v1638z" />
</font>
</defs>
</svg>
